<!-- Generated by IcoMoon.io -->
<svg version="1.1" xmlns="http://www.w3.org/2000/svg" width="32" height="32" viewBox="0 0 32 32">
<title>address-card-o</title>
<path d="M16.006 19.669c0 1.356-0.894 2.331-2 2.331h-8c-1.106 0-2-0.969-2-2.331 0-2.425 0.594-5.106 3.063-5.106 0.763 0.438 1.794 1.188 2.938 1.188s2.169-0.75 2.938-1.188c2.469 0 3.063 2.688 3.063 5.106v0zM13.55 11.544c0 1.969-1.594 3.544-3.544 3.544s-3.544-1.575-3.544-3.544c0-1.956 1.594-3.544 3.544-3.544s3.544 1.594 3.544 3.544v0zM28.006 18.5v1c0 0.281-0.219 0.5-0.5 0.5h-9c-0.281 0-0.5-0.219-0.5-0.5v-1c0-0.281 0.219-0.5 0.5-0.5h9c0.281 0 0.5 0.219 0.5 0.5zM28.006 14.563v0.875c0 0.313-0.25 0.563-0.563 0.563h-8.875c-0.313 0-0.563-0.25-0.563-0.563v-0.875c0-0.313 0.25-0.563 0.563-0.563h8.875c0.313 0 0.563 0.25 0.563 0.563zM28.006 10.5v1c0 0.281-0.219 0.5-0.5 0.5h-9c-0.281 0-0.5-0.219-0.5-0.5v-1c0-0.281 0.219-0.5 0.5-0.5h9c0.281 0 0.5 0.219 0.5 0.5v0zM30.006 25.5v-19c0-0.263-0.231-0.5-0.5-0.5h-27c-0.263 0-0.5 0.231-0.5 0.5v19c0 0.262 0.231 0.5 0.5 0.5h5.5v-1.5c0-0.281 0.219-0.5 0.5-0.5h1c0.281 0 0.5 0.219 0.5 0.5v1.5h12v-1.5c0-0.281 0.219-0.5 0.5-0.5h1c0.281 0 0.5 0.219 0.5 0.5v1.5h5.5c0.262 0 0.5-0.238 0.5-0.5v0zM32.006 6.5v19c0 1.375-1.125 2.5-2.5 2.5h-27c-1.375 0-2.5-1.125-2.5-2.5v-19c0-1.375 1.125-2.5 2.5-2.5h27c1.375 0 2.5 1.125 2.5 2.5z"></path>
</svg>
