<!-- Generated by IcoMoon.io -->
<svg version="1.1" xmlns="http://www.w3.org/2000/svg" width="32" height="32" viewBox="0 0 32 32">
<title>arrow-circle-o-right</title>
<path d="M23.962 16c0 0.169-0.063 0.35-0.188 0.475l-6.637 6.644c-0.125 0.125-0.313 0.188-0.475 0.188-0.35 0-0.662-0.313-0.662-0.663v-3.981h-7.306c-0.35 0-0.662-0.313-0.662-0.663v-3.981c0-0.35 0.313-0.662 0.662-0.662h7.306v-3.981c0-0.375 0.287-0.662 0.662-0.662 0.188 0 0.35 0.081 0.5 0.206l6.619 6.619c0.119 0.113 0.181 0.294 0.181 0.462v0zM27.288 16c0-6.225-5.063-11.287-11.288-11.287s-11.294 5.063-11.294 11.287 5.063 11.288 11.287 11.288 11.294-5.063 11.294-11.288v0zM31.931 16c0 8.8-7.137 15.938-15.938 15.938s-15.938-7.137-15.938-15.938 7.138-15.938 15.938-15.938 15.938 7.138 15.938 15.938v0z"></path>
</svg>
