<!-- Generated by IcoMoon.io -->
<svg version="1.1" xmlns="http://www.w3.org/2000/svg" width="32" height="32" viewBox="0 0 32 32">
<title>arrows-alt</title>
<path d="M26.644 8.662l-7.344 7.338 7.338 7.337 2.975-2.975c0.375-0.394 0.95-0.494 1.45-0.288 0.475 0.206 0.806 0.681 0.806 1.219v9.262c0 0.725-0.6 1.325-1.325 1.325h-9.256c-0.538 0-1.012-0.331-1.219-0.825-0.206-0.475-0.106-1.056 0.288-1.425l2.975-2.975-7.338-7.35-7.338 7.337 2.975 2.975c0.394 0.375 0.494 0.95 0.287 1.425-0.206 0.494-0.681 0.825-1.219 0.825h-9.256c-0.725 0-1.325-0.6-1.325-1.325v-9.25c0-0.538 0.331-1.012 0.825-1.219 0.475-0.206 1.056-0.106 1.425 0.288l2.975 2.975 7.344-7.338-7.338-7.338-2.975 2.975c-0.25 0.25-0.581 0.394-0.931 0.394-0.163 0-0.35-0.044-0.494-0.106-0.494-0.206-0.825-0.681-0.825-1.219v-9.256c-0.006-0.725 0.594-1.325 1.319-1.325h9.262c0.537 0 1.012 0.331 1.219 0.825 0.206 0.475 0.106 1.056-0.287 1.425l-2.975 2.975 7.338 7.338 7.331-7.331-2.975-2.975c-0.394-0.375-0.494-0.95-0.288-1.425 0.206-0.5 0.681-0.831 1.219-0.831h9.262c0.725 0 1.325 0.6 1.325 1.325v9.262c0 0.537-0.331 1.012-0.806 1.219-0.163 0.063-0.35 0.106-0.519 0.106-0.35 0-0.681-0.144-0.931-0.394l-2.975-2.981z"></path>
</svg>
