<!-- Generated by IcoMoon.io -->
<svg version="1.1" xmlns="http://www.w3.org/2000/svg" width="32" height="32" viewBox="0 0 32 32">
<title>audio</title>
<path d="M26.288 3.169l-1.712 1.644c2.988 2.869 4.831 6.825 4.831 11.188 0 4.369-1.85 8.319-4.831 11.188l1.712 1.637c3.438-3.281 5.569-7.819 5.569-12.831s-2.125-9.537-5.569-12.825zM22.969 6.412l-1.681 1.606c2.125 2.050 3.444 4.869 3.444 7.981s-1.319 5.931-3.444 7.981l1.681 1.606c2.556-2.462 4.137-5.844 4.137-9.581s-1.581-7.131-4.137-9.594v0zM19.606 9.625l-1.681 1.606c1.269 1.225 2.050 2.912 2.050 4.775s-0.781 3.544-2.050 4.775l1.681 1.606c1.7-1.637 2.75-3.894 2.75-6.375 0-2.5-1.050-4.75-2.75-6.387v0zM15.256 3.019c-0.35-0.212-0.775-0.169-1.094 0.106l-7.544 6.606h-4.362c-0.563 0-1.1 0.256-1.5 0.713-0.419 0.475-0.65 1.113-0.65 1.794v7.519c0 0.681 0.231 1.325 0.65 1.794 0.4 0.462 0.938 0.712 1.5 0.712h4.362l7.55 6.613c0.181 0.156 0.4 0.244 0.619 0.244 0.162 0 0.325-0.044 0.475-0.137 0.35-0.212 0.575-0.644 0.575-1.119v-23.725c-0.006-0.475-0.225-0.906-0.581-1.119v0zM13.738 25.394l-6.15-5.394c-0.181-0.156-0.4-0.244-0.619-0.244h-4.769v-3.756l0.056-3.762h4.706c0.225 0 0.438-0.088 0.619-0.244l6.156-5.388v18.788z"></path>
</svg>
