<!-- Generated by IcoMoon.io -->
<svg version="1.1" xmlns="http://www.w3.org/2000/svg" width="32" height="32" viewBox="0 0 32 32">
<title>camera</title>
<path d="M15.988 13.213c2.631 0 4.762 2.131 4.762 4.763s-2.131 4.762-4.762 4.762-4.762-2.131-4.762-4.762 2.131-4.762 4.762-4.762zM27.631 6.331c2.331 0 4.231 1.9 4.231 4.231v14.819c0 2.331-1.9 4.231-4.231 4.231h-23.288c-2.331 0-4.231-1.9-4.231-4.231v-14.819c0-2.331 1.9-4.231 4.231-4.231h3.706l0.844-2.25c0.412-1.094 1.706-1.981 2.863-1.981h8.469c1.156 0 2.45 0.894 2.863 1.981l0.844 2.25h3.7zM15.988 25.381c4.088 0 7.406-3.325 7.406-7.406s-3.325-7.412-7.406-7.412-7.406 3.325-7.406 7.406 3.319 7.413 7.406 7.413z"></path>
</svg>
