<!-- Generated by IcoMoon.io -->
<svg version="1.1" xmlns="http://www.w3.org/2000/svg" width="32" height="32" viewBox="0 0 32 32">
<title>cancel-circle</title>
<path d="M16 0.125c-8.769 0-15.875 7.106-15.875 15.875s7.106 15.875 15.875 15.875 15.875-7.106 15.875-15.875-7.106-15.875-15.875-15.875zM16 28.9c-7.125 0-12.9-5.775-12.9-12.9s5.775-12.9 12.9-12.9 12.9 5.775 12.9 12.9-5.775 12.9-12.9 12.9z"></path>
<path d="M20.962 8.063l-4.963 4.963-4.963-4.963-2.975 2.975 4.963 4.963-4.963 4.962 2.975 2.975 4.963-4.962 4.963 4.962 2.975-2.975-4.962-4.963 4.962-4.963-2.975-2.975z"></path>
</svg>
