<!-- Generated by IcoMoon.io -->
<svg version="1.1" xmlns="http://www.w3.org/2000/svg" width="32" height="32" viewBox="0 0 32 32">
<title>close2</title>
<path d="M16 0.125c-8.8 0-15.938 7.106-15.938 15.875s7.138 15.875 15.938 15.875c8.8 0 15.938-7.106 15.938-15.875s-7.137-15.875-15.938-15.875zM16 29.2c-7.619 0-13.262-5.55-13.262-13.137s5.644-13.262 13.262-13.262 13.262 5.613 13.262 13.2-5.644 13.2-13.262 13.2zM21.881 8.644l-5.837 5.819-5.238-5.819c-0.412-0.412-1.088-0.412-1.5 0s-0.412 1.081 0 1.494l5.238 5.819-5.925 5.9c-0.412 0.413-0.412 1.081 0 1.494s1.088 0.413 1.5 0l5.844-5.819 5.238 5.819c0.413 0.413 1.087 0.413 1.5 0s0.413-1.081 0-1.494l-5.244-5.819 5.925-5.9c0.413-0.412 0.413-1.081 0-1.494s-1.087-0.412-1.5 0v0z"></path>
</svg>
