<!-- Generated by IcoMoon.io -->
<svg version="1.1" xmlns="http://www.w3.org/2000/svg" width="27" height="32" viewBox="0 0 27 32">
<title>cog</title>
<path d="M18.288 16c0-2.519-2.056-4.569-4.569-4.569s-4.569 2.056-4.569 4.569 2.056 4.569 4.569 4.569 4.569-2.050 4.569-4.569zM27.431 14.056v3.963c0 0.269-0.212 0.587-0.5 0.644l-3.306 0.5c-0.194 0.569-0.413 1.106-0.694 1.625 0.606 0.875 1.25 1.663 1.913 2.462 0.106 0.125 0.181 0.288 0.181 0.444s-0.056 0.288-0.163 0.413c-0.431 0.569-2.837 3.194-3.444 3.194-0.163 0-0.319-0.069-0.462-0.163l-2.462-1.931c-0.519 0.269-1.069 0.5-1.625 0.681-0.125 1.087-0.231 2.25-0.519 3.319-0.069 0.288-0.319 0.5-0.644 0.5h-3.963c-0.319 0-0.606-0.231-0.644-0.538l-0.5-3.288c-0.556-0.181-1.088-0.394-1.606-0.663l-2.519 1.913c-0.125 0.106-0.287 0.163-0.444 0.163s-0.319-0.069-0.444-0.194c-0.963-0.85-2.212-1.956-2.962-2.994-0.087-0.125-0.125-0.269-0.125-0.413 0-0.163 0.056-0.288 0.144-0.413 0.606-0.819 1.269-1.606 1.875-2.444-0.306-0.569-0.556-1.163-0.731-1.769l-3.269-0.481c-0.306-0.050-0.519-0.337-0.519-0.644v-3.963c0-0.269 0.212-0.588 0.481-0.644l3.319-0.5c0.181-0.569 0.412-1.106 0.694-1.644-0.606-0.856-1.25-1.662-1.913-2.463-0.106-0.125-0.181-0.269-0.181-0.431s0.069-0.287 0.163-0.412c0.431-0.588 2.837-3.194 3.444-3.194 0.162 0 0.319 0.069 0.463 0.181l2.462 1.912c0.519-0.269 1.069-0.5 1.625-0.681 0.125-1.088 0.231-2.25 0.519-3.319 0.069-0.288 0.319-0.5 0.644-0.5h3.963c0.319 0 0.606 0.231 0.644 0.538l0.5 3.287c0.556 0.181 1.087 0.394 1.606 0.662l2.538-1.912c0.106-0.106 0.269-0.162 0.431-0.162s0.319 0.069 0.444 0.181c0.944 0.875 2.194 1.981 2.944 3.037 0.087 0.106 0.125 0.25 0.125 0.394 0 0.162-0.056 0.287-0.144 0.412-0.606 0.819-1.269 1.606-1.875 2.444 0.306 0.569 0.556 1.162 0.731 1.75l3.269 0.5c0.319 0.044 0.538 0.331 0.538 0.637v0z"></path>
</svg>
