<!-- Generated by IcoMoon.io -->
<svg version="1.1" xmlns="http://www.w3.org/2000/svg" width="32" height="32" viewBox="0 0 32 32">
<title>community</title>
<path d="M22.613 0.787c-2.731 0-5.075 1.656-6.088 4.025 0.931 0.075 1.8 0.338 2.581 0.763 0.663-1.263 1.975-2.138 3.5-2.138 2.194 0 3.969 1.775 3.969 3.969s-1.775 3.969-3.969 3.969c0 0.919-0.188 1.794-0.531 2.594 0.175 0.012 0.35 0.056 0.531 0.056 3.656 0 6.613-2.963 6.613-6.612s-2.95-6.625-6.606-6.625v0zM5.419 7.4c0-2.194 1.775-3.969 3.969-3.969 1.525 0 2.838 0.875 3.5 2.138 0.781-0.419 1.656-0.681 2.581-0.763-1.006-2.362-3.356-4.025-6.088-4.025-3.65 0-6.612 2.962-6.612 6.612s2.962 6.612 6.612 6.612c0.181 0 0.35-0.037 0.531-0.056-0.338-0.8-0.531-1.675-0.531-2.594-2.188 0.012-3.963-1.762-3.963-3.956zM19.113 5.569c-0.781-0.419-1.656-0.681-2.581-0.763-0.175-0.013-0.35-0.050-0.531-0.050s-0.35 0.037-0.531 0.056c-0.931 0.075-1.8 0.338-2.581 0.763-2.075 1.119-3.5 3.281-3.5 5.8 0 0.919 0.188 1.794 0.531 2.594 1.006 2.363 3.356 4.019 6.088 4.019s5.075-1.656 6.087-4.019c0.337-0.8 0.531-1.675 0.531-2.594-0.012-2.525-1.438-4.694-3.512-5.806v0zM19.5 13.2c-0.663 1.262-1.975 2.137-3.5 2.137s-2.838-0.875-3.5-2.137c-0.287-0.55-0.469-1.169-0.469-1.831 0-0.431 0.088-0.838 0.213-1.225 0.188-0.575 0.488-1.094 0.9-1.519 0.725-0.75 1.731-1.225 2.856-1.225s2.137 0.475 2.856 1.225c0.406 0.425 0.706 0.944 0.9 1.519 0.125 0.387 0.212 0.794 0.212 1.225 0 0.662-0.175 1.281-0.469 1.831zM31.875 22.544c0-5.444-4.144-9.856-9.262-9.856-3.056 0-4.012 3.387-7.444 4.012 0.275-0.025 0.55-0.044 0.831-0.044 0.794 0 1.563 0.119 2.294 0.319 1.163-1.006 2.656-1.644 4.319-1.644 3.656 0 6.613 2.962 6.613 6.613 0 1.45-1.837 2.363-4.131 2.731 0.106 0.594 0.163 1.206 0.163 1.831 0 0.194-0.019 0.381-0.056 0.563 3.631-0.481 6.675-2 6.675-4.525v0zM6.9 24.688c-2.3-0.369-4.131-1.281-4.131-2.731 0-3.656 2.963-6.613 6.613-6.613 1.662 0 3.162 0.631 4.319 1.644 0.475-0.131 0.963-0.225 1.463-0.275 0.275-0.025 0.55-0.044 0.831-0.044 0.288 0 0.563 0.031 0.844 0.063-3.963-0.356-4.394-4.031-7.456-4.031-5.112-0.006-9.256 4.406-9.256 9.844 0 2.563 3.050 4.075 6.669 4.544-0.037-0.188-0.056-0.381-0.056-0.575 0-0.625 0.056-1.231 0.162-1.825v0zM25.094 24.681c-0.669-3.769-3.337-6.762-6.8-7.706-0.469-0.131-0.956-0.206-1.456-0.256-0.281-0.025-0.556-0.063-0.844-0.063-0.281 0-0.556 0.019-0.831 0.044-0.5 0.050-0.988 0.144-1.463 0.275-3.456 0.938-6.138 3.938-6.806 7.706-0.106 0.594-0.162 1.206-0.162 1.831 0 0.2 0.019 0.394 0.056 0.581 1.056 5.55 17.369 5.463 18.413-0.019 0.031-0.181 0.056-0.369 0.056-0.563 0.006-0.625-0.056-1.231-0.163-1.831v0zM9.387 25.919c0-3.656 2.963-6.613 6.613-6.613 3.656 0 6.613 2.962 6.613 6.613 0 3.894-13.225 3.913-13.225 0z"></path>
</svg>
