<!-- Generated by IcoMoon.io -->
<svg version="1.1" xmlns="http://www.w3.org/2000/svg" width="32" height="32" viewBox="0 0 32 32">
<title>disc</title>
<path d="M31.75 0.25c-10.288 0-21.288 0-31.575 0-0.025 1.756-0.013 5.1-0.013 7.556 0 5.031 0 10.075 0 15.106 0 2.856 0.063 6.719-0.1 8.681 7.037 0 14.588 0.063 21.625 0.063 3.175 0 7.631 0.131 10.156 0.006 0-7.025 0-14.45 0-21.475 0-3.1 0.019-7.431-0.094-9.938v0zM11.938 2.237c1.081 0 2.169 0 3.25 0 0 1.456 0 2.919 0 4.375-1.081 0-2.169 0-3.25 0 0-1.462 0-2.919 0-4.375zM23.313 29.669c-5.012 0-10.019 0-15.031 0 0-3.575 0-7.156 0-10.731 5.012 0 10.019 0 15.031 0 0 3.575 0 7.15 0 10.731zM29.813 29.669c-1.488 0-2.981 0-4.469 0 0.025-3.844 0.137-9.231 0.031-12.725-4.063 0-8.563 0-12.625 0-2.181 0-4.775-0.025-6.494-0.056 0 4.106-0.006 8.669-0.006 12.775-1.356 0-2.706 0-4.063 0 0-9.144 0-18.288 0-27.431 2.569 0 5.144 0 7.719 0 0 1.856 0 3.713 0 5.569 4.2 0 8.394 0 12.594 0 0-1.856 0-3.713 0-5.569 2.438 0 4.875 0 7.313 0 0 9.15 0 18.294 0 27.438v0z"></path>
</svg>
