<!-- Generated by IcoMoon.io -->
<svg version="1.1" xmlns="http://www.w3.org/2000/svg" width="32" height="32" viewBox="0 0 32 32">
<title>editor</title>
<path d="M29.625 7.331l-5.631-5.844-3.488 3.188-8.581 8.231v8.5h8.313l2.85-2.831 8.788-8.688-2.25-2.556zM19.163 19.019h-4.719v-5.113l5.994-5.769 1.587 1.675-5.575 5.475 1.606 1.675 5.35-5.194 0.331-0.313 1.55 1.656-6.125 5.906zM28.806 9.7v0 0l-1.563 1.488-4.869-4.925 1.544-1.531 4.887 4.969zM0.125 9.988c3.219 0 6.438 0 9.65 0 0 0.887 0 1.769 0 2.656-3.219 0-6.438 0-9.65 0 0-0.887 0-1.769 0-2.656zM0.125 14.506c3.219 0 6.438 0 9.65 0 0 0.887 0 1.775 0 2.656-3.219 0-6.438 0-9.65 0 0-0.887 0-1.775 0-2.656v0zM0.125 18.756c3.219 0 6.438 0 9.65 0 0 0.881 0 1.769 0 2.656-3.219 0-6.438 0-9.65 0 0-0.887 0-1.775 0-2.656zM0.125 23.269c5.806 0 11.619 0 17.431 0 0 0.881 0 1.769 0 2.656-5.813 0-11.625 0-17.431 0 0-0.887 0-1.775 0-2.656zM0.125 27.781c5.806 0 11.619 0 17.431 0 0 0.887 0 1.769 0 2.656-5.813 0-11.625 0-17.431 0 0-0.887 0-1.769 0-2.656z"></path>
</svg>
