<!-- Generated by IcoMoon.io -->
<svg version="1.1" xmlns="http://www.w3.org/2000/svg" width="32" height="32" viewBox="0 0 32 32">
<title>envelope-o</title>
<path d="M29.712 26.856v-13.713c-0.375 0.431-0.788 0.819-1.231 1.181-2.556 1.962-5.125 3.962-7.606 6.037-1.337 1.125-3 2.5-4.856 2.5h-0.037c-1.856 0-3.519-1.375-4.856-2.5-2.481-2.069-5.056-4.069-7.606-6.037-0.444-0.356-0.856-0.75-1.231-1.181v13.712c0 0.306 0.269 0.569 0.569 0.569h26.288c0.3 0.006 0.569-0.262 0.569-0.569v0zM29.712 8.088c0-0.444 0.106-1.231-0.569-1.231h-26.288c-0.306 0-0.569 0.269-0.569 0.569 0 2.038 1.019 3.806 2.625 5.069 2.394 1.875 4.787 3.769 7.162 5.663 0.944 0.769 2.662 2.413 3.912 2.413h0.037c1.25 0 2.962-1.644 3.913-2.413 2.375-1.894 4.769-3.787 7.162-5.662 1.15-0.906 2.613-2.888 2.613-4.406v0zM32 7.431v19.431c0 1.569-1.288 2.856-2.856 2.856h-26.288c-1.569-0.006-2.856-1.288-2.856-2.863v-19.425c0-1.569 1.288-2.856 2.856-2.856h26.288c1.569-0.006 2.856 1.281 2.856 2.856z"></path>
</svg>
