<!-- Generated by IcoMoon.io -->
<svg version="1.1" xmlns="http://www.w3.org/2000/svg" width="32" height="32" viewBox="0 0 32 32">
<title>expand</title>
<path d="M15.725 19.306c0 0.163-0.081 0.35-0.206 0.475l-6.862 6.863 2.975 2.975c0.25 0.25 0.394 0.581 0.394 0.931 0 0.725-0.6 1.325-1.325 1.325h-9.256c-0.725 0-1.325-0.6-1.325-1.325v-9.256c0-0.725 0.6-1.325 1.325-1.325 0.35 0 0.681 0.144 0.931 0.394l2.975 2.975 6.863-6.863c0.125-0.125 0.313-0.206 0.475-0.206s0.35 0.081 0.475 0.206l2.356 2.356c0.125 0.125 0.206 0.313 0.206 0.475v0zM31.869 1.45v9.262c0 0.725-0.6 1.325-1.325 1.325-0.35 0-0.681-0.144-0.931-0.394l-2.975-2.975-6.856 6.856c-0.125 0.125-0.313 0.206-0.475 0.206s-0.35-0.081-0.475-0.206l-2.356-2.356c-0.125-0.125-0.206-0.313-0.206-0.475s0.081-0.35 0.206-0.475l6.856-6.862-2.975-2.981c-0.25-0.25-0.394-0.581-0.394-0.931 0-0.719 0.6-1.319 1.325-1.319h9.262c0.719 0 1.319 0.6 1.319 1.325v0z"></path>
</svg>
