<!-- Generated by IcoMoon.io -->
<svg version="1.1" xmlns="http://www.w3.org/2000/svg" width="32" height="32" viewBox="0 0 32 32">
<title>files-empty</title>
<path d="M28.681 11.156c-0.694-0.944-1.663-2.056-2.725-3.119s-2.169-2.031-3.119-2.725c-1.606-1.175-2.387-1.313-2.837-1.313h-11.5c-1.381 0-2.5 1.119-2.5 2.5v23c0 1.381 1.119 2.5 2.5 2.5h19c1.381 0 2.5-1.119 2.5-2.5v-15.5c0-0.45-0.137-1.231-1.319-2.844zM24.544 9.456c0.962 0.963 1.712 1.825 2.269 2.544h-4.813v-4.813c0.719 0.556 1.581 1.313 2.544 2.269v0 0zM28 29.5c0 0.269-0.231 0.5-0.5 0.5h-19c-0.269 0-0.5-0.231-0.5-0.5v-23c0-0.269 0.231-0.5 0.5-0.5 0 0 11.5 0 11.5 0v7c0 0.55 0.45 1 1 1h7v15.5z"></path>
<path d="M18.844 1.319c-1.613-1.181-2.394-1.319-2.844-1.319h-11.5c-1.381 0-2.5 1.119-2.5 2.5v23c0 1.206 0.862 2.219 2 2.45v-25.45c0-0.269 0.231-0.5 0.5-0.5h15.212c-0.3-0.25-0.594-0.475-0.869-0.681v0z"></path>
</svg>
