<!-- Generated by IcoMoon.io -->
<svg version="1.1" xmlns="http://www.w3.org/2000/svg" width="32" height="32" viewBox="0 0 32 32">
<title>file-picture</title>
<path d="M26 28h-20v-4l6-10 8.219 10 5.781-4v8z"></path>
<path d="M26 15c0 1.656-1.344 3-3 3s-3-1.344-3-3 1.344-3 3-3c1.656 0 3 1.344 3 3z"></path>
<path d="M28.681 7.156c-0.694-0.944-1.663-2.050-2.725-3.119s-2.169-2.031-3.119-2.725c-1.606-1.175-2.387-1.313-2.837-1.313h-15.5c-1.381 0-2.5 1.119-2.5 2.5v27c0 1.381 1.119 2.5 2.5 2.5h23c1.381 0 2.5-1.119 2.5-2.5v-19.5c0-0.45-0.137-1.231-1.319-2.844zM24.544 5.456c0.962 0.956 1.712 1.825 2.269 2.544h-4.813v-4.813c0.719 0.556 1.581 1.313 2.544 2.269v0zM28 29.5c0 0.269-0.231 0.5-0.5 0.5h-23c-0.269 0-0.5-0.231-0.5-0.5v-27c0-0.269 0.231-0.5 0.5-0.5 0 0 15.5 0 15.5 0v7c0 0.55 0.45 1 1 1h7v19.5z"></path>
</svg>
