<!-- Generated by IcoMoon.io -->
<svg version="1.1" xmlns="http://www.w3.org/2000/svg" width="32" height="32" viewBox="0 0 32 32">
<title>file-o</title>
<path d="M28.494 6.787c0.663 0.662 1.212 1.981 1.212 2.931v20.569c0 0.944-0.769 1.712-1.712 1.712h-24c-0.944 0-1.712-0.769-1.712-1.712v-28.575c0-0.944 0.769-1.712 1.712-1.712h16c0.944 0 2.269 0.556 2.931 1.212l5.569 5.575zM20.569 2.431v6.713h6.712c-0.106-0.306-0.269-0.606-0.394-0.731l-5.588-5.588c-0.125-0.131-0.431-0.288-0.731-0.394v0zM27.425 29.712v-18.281h-7.431c-0.944 0-1.712-0.769-1.712-1.713v-7.431h-13.713v27.431h22.856z"></path>
</svg>
