<!-- Generated by IcoMoon.io -->
<svg version="1.1" xmlns="http://www.w3.org/2000/svg" width="32" height="32" viewBox="0 0 32 32">
<title>googleplus</title>
<path d="M13.675 25.494c0 2.325-1.438 4.169-5.512 4.313-2.388-1.356-4.388-3.319-5.794-5.669 0.737-1.813 3.031-3.194 5.65-3.169 0.744 0.006 1.438 0.125 2.069 0.331 1.731 1.206 3.131 1.956 3.481 3.331 0.069 0.281 0.106 0.569 0.106 0.863v0zM16 0.125c-4.588 0-8.719 1.944-11.619 5.056 1.144-0.631 2.5-1.013 3.938-1.013 2.081 0 7.95 0 7.95 0l-1.775 1.862h-2.088c1.475 0.844 2.256 2.581 2.256 4.494 0 1.756-0.975 3.175-2.35 4.25-1.344 1.050-1.594 1.487-1.594 2.381 0 0.762 1.606 1.894 2.344 2.45 2.569 1.925 3.087 3.137 3.087 5.544 0 2.444-2.137 4.869-5.762 5.7 1.75 0.663 3.644 1.025 5.619 1.025 8.769 0 15.875-7.106 15.875-15.875s-7.113-15.875-15.881-15.875v0zM23.938 12.031v3.969h-1.988v-3.969h-3.969v-1.988h3.969v-3.969h1.988v3.969h3.969v1.988h-3.969zM11.469 10.65c0.369 2.813-0.863 4.625-3.006 4.563s-4.181-2.031-4.55-4.844c-0.369-2.813 1.069-4.969 3.212-4.906 2.137 0.063 3.969 2.375 4.344 5.188zM6.975 20.031c-2.313 0-4.281 0.8-5.669 1.981-0.762-1.856-1.181-3.881-1.181-6.012 0-1.762 0.287-3.45 0.819-5.037 0.231 3.081 2.4 5.463 5.981 5.463 0.263 0 0.519-0.012 0.769-0.031-0.244 0.475-0.425 1-0.425 1.55 0 0.931 0.513 1.462 1.144 2.075-0.475 0-0.938 0.012-1.438 0.012v0z"></path>
</svg>
