<!-- Generated by IcoMoon.io -->
<svg version="1.1" xmlns="http://www.w3.org/2000/svg" width="32" height="32" viewBox="0 0 32 32">
<title>headphones</title>
<path d="M9.056 17.988h-1.987v13.887h1.987c0.544 0 0.994-0.444 0.994-0.994v-11.906c0-0.544-0.45-0.988-0.994-0.988z"></path>
<path d="M22.944 17.988c-0.544 0-0.994 0.444-0.994 0.994v11.906c0 0.544 0.444 0.994 0.994 0.994h1.988v-13.894h-1.988z"></path>
<path d="M31.875 16c0-8.769-7.106-15.875-15.875-15.875s-15.875 7.106-15.875 15.875c0 1.906 0.338 3.731 0.95 5.419-0.606 1.031-0.95 2.231-0.95 3.512 0 3.5 2.587 6.394 5.95 6.875v-13.75c-0.987 0.144-1.913 0.494-2.719 1.006-0.169-0.831-0.256-1.688-0.256-2.563 0-7.125 5.775-12.9 12.9-12.9s12.9 5.775 12.9 12.894c0 0.875-0.087 1.738-0.256 2.563-0.806-0.512-1.731-0.863-2.719-1.006v13.75c3.363-0.481 5.95-3.375 5.95-6.875 0-1.281-0.344-2.481-0.95-3.506 0.613-1.688 0.95-3.512 0.95-5.419v0z"></path>
</svg>
