<!-- Generated by IcoMoon.io -->
<svg version="1.1" xmlns="http://www.w3.org/2000/svg" width="32" height="32" viewBox="0 0 32 32">
<title>hourglass</title>
<path d="M21.531 16c3.369-3.169 6.956-7.969 7.344-13.887 0.044-0.669-0.031-1.337-0.1-1.988h-26.431c-0.069 0.65-0.181 1.319-0.1 1.988 0.681 6.106 3.594 10.456 7.162 13.887-3.531 3.288-6.481 7.781-7.169 13.894-0.075 0.669 0.038 1.337 0.1 1.981h26.425c0.069-0.65 0.1-1.313 0.1-1.981-0.675-6.050-3.238-11.188-7.331-13.894v0zM5.094 29.894c0.625-5.8 3-10.2 6.656-12.494v-2.775c-3.594-2.256-6.15-6.656-6.656-12.512v0h20.925c-0.387 5.8-3.181 9.956-6.656 12.681v2.769c4.075 2.069 6.331 6.781 6.656 12.331 0 0-20.925 0-20.925 0zM18.756 20.887c-2.131-1.262-2.244-2.894-2.25-3.887v-1.994c0-0.994 0.113-2.631 2.25-3.894 1.144-0.694 2.131-1.744 2.887-3.050h-12.175c0.75 1.306 1.744 2.356 2.887 3.050 2.131 1.262 2.244 2.894 2.25 3.887v1.994c0 0.994-0.113 2.631-2.25 3.894-2.156 1.306-3.769 3.894-4.256 7.019h14.912c-0.488-3.125-2.1-5.712-4.256-7.019z"></path>
</svg>
