<!-- Generated by IcoMoon.io -->
<svg version="1.1" xmlns="http://www.w3.org/2000/svg" width="32" height="32" viewBox="0 0 32 32">
<title>image</title>
<path d="M10.694 10.706c0 1.75-1.425 3.175-3.175 3.175s-3.175-1.425-3.175-3.175 1.425-3.175 3.175-3.175 3.175 1.425 3.175 3.175zM27.631 17.056v7.406h-23.288v-3.175l5.294-5.294 2.644 2.644 8.469-8.456 6.881 6.875zM29.219 5.419h-26.462c-0.281 0-0.531 0.25-0.531 0.531v20.106c0 0.281 0.25 0.531 0.531 0.531h26.456c0.281 0 0.531-0.25 0.531-0.531v-20.113c0-0.281-0.25-0.525-0.525-0.525v0zM31.863 5.944v20.106c0 1.456-1.194 2.644-2.644 2.644h-26.462c-1.456 0-2.644-1.194-2.644-2.644v-20.106c0-1.456 1.194-2.644 2.644-2.644h26.456c1.456 0 2.65 1.188 2.65 2.644z"></path>
</svg>
