<!-- Generated by IcoMoon.io -->
<svg version="1.1" xmlns="http://www.w3.org/2000/svg" width="32" height="32" viewBox="0 0 32 32">
<title>kmaps-popover</title>
<path d="M10.344 8.137v15.994h21.5v-15.994h-21.5zM27.194 20.056c0 0.288-0.238 0.525-0.525 0.525h-12.094c-0.287 0-0.525-0.238-0.525-0.525v-0.119c0-0.288 0.238-0.525 0.525-0.525h12.094c0.288 0 0.525 0.238 0.525 0.525v0.119zM27.212 16.363c0 0.288-0.238 0.525-0.525 0.525h-12.094c-0.287 0-0.525-0.238-0.525-0.525v-0.113c0-0.287 0.238-0.525 0.525-0.525h12.094c0.288 0 0.525 0.238 0.525 0.525v0.113zM27.262 12.675c0 0.287-0.238 0.525-0.525 0.525h-12.094c-0.287 0-0.525-0.238-0.525-0.525v-0.113c0-0.287 0.238-0.525 0.525-0.525h12.094c0.288 0 0.525 0.238 0.525 0.525v0.113z"></path>
<path d="M10.369 8.137l-0.031 6.331-10.244-6.338z"></path>
</svg>
