<!-- Generated by IcoMoon.io -->
<svg version="1.1" xmlns="http://www.w3.org/2000/svg" width="32" height="32" viewBox="0 0 32 32">
<title>list2</title>
<path d="M12.031 2.112h19.844v3.969h-19.844v-3.969zM12.031 14.012h19.844v3.969h-19.844v-3.969zM12.031 25.925h19.844v3.969h-19.844v-3.969zM0.125 4.094c0-2.194 1.775-3.969 3.969-3.969s3.969 1.775 3.969 3.969-1.775 3.969-3.969 3.969-3.969-1.775-3.969-3.969zM0.125 16c0-2.194 1.775-3.969 3.969-3.969s3.969 1.775 3.969 3.969-1.775 3.969-3.969 3.969-3.969-1.775-3.969-3.969zM0.125 27.906c0-2.194 1.775-3.969 3.969-3.969s3.969 1.775 3.969 3.969-1.775 3.969-3.969 3.969-3.969-1.775-3.969-3.969z"></path>
</svg>
