<!-- Generated by IcoMoon.io -->
<svg version="1.1" xmlns="http://www.w3.org/2000/svg" width="32" height="32" viewBox="0 0 32 32">
<title>list-alt</title>
<path d="M6.931 22.344v1.131c0 0.3-0.269 0.569-0.569 0.569h-1.138c-0.3 0-0.569-0.269-0.569-0.569v-1.131c0-0.3 0.269-0.569 0.569-0.569h1.131c0.306 0 0.575 0.269 0.575 0.569zM6.931 17.806v1.131c0 0.3-0.269 0.569-0.569 0.569h-1.138c-0.3 0-0.569-0.269-0.569-0.569v-1.131c0-0.3 0.269-0.569 0.569-0.569h1.131c0.306 0.006 0.575 0.269 0.575 0.569zM6.931 13.275v1.131c0 0.3-0.269 0.569-0.569 0.569h-1.138c-0.3 0-0.569-0.269-0.569-0.569v-1.131c0-0.3 0.269-0.569 0.569-0.569h1.131c0.306 0 0.575 0.262 0.575 0.569zM27.337 22.344v1.131c0 0.3-0.269 0.569-0.569 0.569h-17.006c-0.3 0-0.569-0.269-0.569-0.569v-1.131c0-0.3 0.269-0.569 0.569-0.569h17.006c0.306 0 0.569 0.269 0.569 0.569zM27.337 17.806v1.131c0 0.3-0.269 0.569-0.569 0.569h-17.006c-0.3 0-0.569-0.269-0.569-0.569v-1.131c0-0.3 0.269-0.569 0.569-0.569h17.006c0.306 0.006 0.569 0.269 0.569 0.569zM27.337 13.275v1.131c0 0.3-0.269 0.569-0.569 0.569h-17.006c-0.3 0-0.569-0.269-0.569-0.569v-1.131c0-0.3 0.269-0.569 0.569-0.569h17.006c0.306 0 0.569 0.262 0.569 0.569zM29.606 25.744v-14.738c0-0.3-0.269-0.569-0.569-0.569h-26.075c-0.3 0-0.569 0.269-0.569 0.569v14.744c0 0.3 0.269 0.569 0.569 0.569h26.081c0.3-0.006 0.563-0.275 0.563-0.575zM31.875 6.469v19.275c0 1.556-1.275 2.837-2.837 2.837h-26.075c-1.563 0-2.837-1.275-2.837-2.837v-19.275c0-1.556 1.275-2.837 2.837-2.837h26.081c1.556 0 2.831 1.281 2.831 2.837z"></path>
</svg>
