<!-- Generated by IcoMoon.io -->
<svg version="1.1" xmlns="http://www.w3.org/2000/svg" width="32" height="32" viewBox="0 0 32 32">
<title>lock</title>
<path d="M25.094 12.563v-4.125c0-4.556-3.988-8.25-8.906-8.25s-8.906 3.694-8.906 8.25v4.125c-1.638 0-2.969 1.231-2.969 2.75v13.75c0 1.519 1.331 2.75 2.969 2.75h17.813c1.637 0 2.969-1.231 2.969-2.75v-13.75c0-1.519-1.331-2.75-2.969-2.75zM10.25 8.438c0-3.037 2.656-5.5 5.938-5.5s5.938 2.463 5.938 5.5v4.125h-11.875v-4.125zM25.094 29.063h-17.813v-13.75h17.813v13.75zM14.706 23.181v1.756c0 0.762 0.662 1.375 1.481 1.375s1.481-0.619 1.481-1.375v-1.756c0.881-0.475 1.481-1.356 1.481-2.369 0-1.519-1.331-2.75-2.969-2.75s-2.969 1.231-2.969 2.75c0.006 1.012 0.606 1.894 1.494 2.369v0z"></path>
</svg>
