<!-- Generated by IcoMoon.io -->
<svg version="1.1" xmlns="http://www.w3.org/2000/svg" width="32" height="32" viewBox="0 0 32 32">
<title>magnify</title>
<path d="M21.356 3.987c-4.863-4.763-12.775-4.763-17.637 0s-4.862 12.512 0 17.275c4.331 4.238 11.075 4.694 15.938 1.381 0.1 0.475 0.337 0.925 0.712 1.294l7.081 6.931c1.031 1.006 2.7 1.006 3.725 0 1.031-1.006 1.031-2.644 0-3.65l-7.081-6.938c-0.375-0.369-0.837-0.6-1.319-0.694 3.381-4.756 2.913-11.356-1.419-15.6zM19.125 19.069c-3.631 3.55-9.537 3.55-13.169 0-3.631-3.556-3.631-9.338 0-12.894 3.625-3.55 9.537-3.55 13.169 0 3.625 3.556 3.625 9.338 0 12.894z"></path>
</svg>
