<!-- Generated by IcoMoon.io -->
<svg version="1.1" xmlns="http://www.w3.org/2000/svg" width="32" height="32" viewBox="0 0 32 32">
<title>plus-square-o</title>
<path d="M26.113 15.262v1.444c0 0.406-0.319 0.719-0.719 0.719h-7.938v7.938c0 0.406-0.319 0.719-0.719 0.719h-1.444c-0.406 0-0.719-0.319-0.719-0.719v-7.938h-7.938c-0.406 0-0.719-0.319-0.719-0.719v-1.444c0-0.406 0.319-0.719 0.719-0.719h7.938v-7.938c0-0.406 0.319-0.719 0.719-0.719h1.444c0.406 0 0.719 0.319 0.719 0.719v7.938h7.938c0.4-0.006 0.719 0.313 0.719 0.719v0zM29 25.363v-18.762c0-1.987-1.625-3.606-3.606-3.606h-18.762c-1.987 0-3.606 1.625-3.606 3.606v18.762c0 1.988 1.625 3.606 3.606 3.606h18.762c1.981 0 3.606-1.619 3.606-3.606zM31.881 6.6v18.762c0 3.587-2.906 6.494-6.494 6.494h-18.756c-3.587 0-6.494-2.906-6.494-6.494v-18.762c-0.006-3.581 2.906-6.494 6.494-6.494h18.762c3.581 0 6.488 2.913 6.488 6.494v0z"></path>
</svg>
