<!-- Generated by IcoMoon.io -->
<svg version="1.1" xmlns="http://www.w3.org/2000/svg" width="32" height="32" viewBox="0 0 32 32">
<title>preview</title>
<path d="M0 19.969c3.956 0 7.919 0 11.875 0 0 1.087 0 2.175 0 3.262-3.956 0-7.919 0-11.875 0 0-1.087 0-2.175 0-3.262zM0 14.75c3.956 0 7.919 0 11.875 0 0 1.088 0 2.175 0 3.256-3.956 0-7.919 0-11.875 0 0-1.081 0-2.169 0-3.256zM0 9.206c4.575 0 9.15 0 13.725 0 0 1.088 0 2.175 0 3.262-4.575 0-9.15 0-13.725 0 0-1.088 0-2.169 0-3.262zM0 3.669c7.15 0 14.294 0 21.444 0 0 1.087 0 2.175 0 3.256-7.15 0-14.3 0-21.444 0 0-1.088 0-2.169 0-3.256zM31.631 26.163l-3.863-4.075c0.938-1.381 1.456-3.025 1.456-4.756 0-2.181-0.806-4.238-2.269-5.781s-3.406-2.394-5.481-2.394c-2.069 0-4.019 0.85-5.481 2.394s-2.269 3.594-2.269 5.781 0.806 4.238 2.269 5.781c1.462 1.544 3.413 2.394 5.481 2.394 1.644 0 3.2-0.544 4.506-1.531l3.863 4.075c0.25 0.262 0.569 0.394 0.894 0.394s0.644-0.131 0.894-0.394c0.494-0.525 0.494-1.369 0-1.887v0zM17.775 21.225c-0.988-1.044-1.531-2.425-1.531-3.9s0.544-2.856 1.531-3.894c0.988-1.044 2.3-1.613 3.694-1.613s2.706 0.575 3.694 1.613c0.988 1.044 1.531 2.425 1.531 3.894s-0.544 2.856-1.531 3.9c-0.988 1.044-2.3 1.613-3.694 1.613s-2.706-0.575-3.694-1.613z"></path>
</svg>
