<!-- Generated by IcoMoon.io -->
<svg version="1.1" xmlns="http://www.w3.org/2000/svg" width="32" height="32" viewBox="0 0 32 32">
<title>sign-out</title>
<path d="M13.081 27.012c0 0.569 0.262 1.944-0.65 1.944h-6.475c-3.219 0-5.831-2.606-5.831-5.831v-14.25c0-3.219 2.612-5.831 5.831-5.831h6.481c0.344 0 0.65 0.306 0.65 0.65 0 0.569 0.262 1.944-0.65 1.944h-6.481c-1.781 0-3.237 1.456-3.237 3.237v14.25c0 1.781 1.456 3.238 3.237 3.238h5.831c0.506 0.006 1.294-0.094 1.294 0.65v0zM31.875 16c0 0.344-0.144 0.669-0.387 0.913l-11.012 11.012c-0.244 0.244-0.569 0.387-0.913 0.387-0.706 0-1.294-0.587-1.294-1.294v-5.831h-9.075c-0.706 0-1.294-0.587-1.294-1.294v-7.781c0-0.706 0.587-1.294 1.294-1.294h9.069v-5.831c0-0.706 0.587-1.294 1.294-1.294 0.344 0 0.669 0.144 0.913 0.388l11.012 11.012c0.25 0.238 0.394 0.563 0.394 0.906v0z"></path>
</svg>
