<!-- Generated by IcoMoon.io -->
<svg version="1.1" xmlns="http://www.w3.org/2000/svg" width="32" height="32" viewBox="0 0 32 32">
<title>spinner2</title>
<path d="M32 16c-0.038-2.088-0.494-4.175-1.331-6.075-0.837-1.906-2.044-3.631-3.531-5.063-1.488-1.425-3.25-2.556-5.156-3.3-1.906-0.75-3.956-1.106-5.981-1.063-2.025 0.037-4.044 0.481-5.887 1.294-1.844 0.806-3.519 1.981-4.9 3.425-1.381 1.438-2.475 3.15-3.194 4.994s-1.063 3.825-1.019 5.787c0.038 1.962 0.469 3.913 1.256 5.694 0.781 1.781 1.919 3.4 3.319 4.738 1.394 1.337 3.044 2.394 4.831 3.087 1.787 0.7 3.7 1.031 5.6 0.988 1.9-0.038 3.781-0.456 5.5-1.219 1.725-0.756 3.288-1.856 4.575-3.206s2.306-2.944 2.975-4.669c0.406-1.044 0.681-2.137 0.831-3.244 0.038 0 0.075 0.006 0.119 0.006 1.106 0 2-0.894 2-2 0-0.056 0-0.113-0.006-0.169v-0.006zM28.825 21.313c-0.731 1.663-1.794 3.169-3.1 4.413-1.3 1.244-2.844 2.225-4.506 2.869s-3.444 0.95-5.212 0.906c-1.769-0.038-3.519-0.431-5.119-1.137s-3.050-1.731-4.25-2.994c-1.2-1.256-2.144-2.744-2.763-4.344-0.625-1.606-0.919-3.319-0.875-5.025s0.419-3.387 1.1-4.925c0.681-1.537 1.669-2.938 2.881-4.088s2.644-2.056 4.181-2.65c1.544-0.594 3.194-0.875 4.831-0.831s3.256 0.406 4.738 1.063c1.481 0.656 2.819 1.612 3.925 2.775s1.975 2.537 2.544 4.019c0.569 1.481 0.837 3.063 0.794 4.637h0.006c-0.006 0.056-0.006 0.113-0.006 0.169 0 1.031 0.781 1.881 1.781 1.988-0.188 1.087-0.506 2.15-0.95 3.156v0z"></path>
</svg>
