<!-- Generated by IcoMoon.io -->
<svg version="1.1" xmlns="http://www.w3.org/2000/svg" width="32" height="32" viewBox="0 0 32 32">
<title>spinner</title>
<path d="M12 4c0-2.206 1.794-4 4-4s4 1.794 4 4-1.794 4-4 4-4-1.794-4-4zM20.488 7.513c0-2.206 1.794-4 4-4s4 1.794 4 4-1.794 4-4 4-4-1.787-4-4zM26 16c0-1.106 0.894-2 2-2s2 0.894 2 2-0.894 2-2 2-2-0.894-2-2zM22.488 24.488c0-1.106 0.894-2 2-2s2 0.894 2 2-0.894 2-2 2-2-0.9-2-2zM14 28v0c0-1.106 0.894-2 2-2s2 0.894 2 2v0c0 1.106-0.894 2-2 2s-2-0.894-2-2zM5.513 24.488v0c0-1.106 0.894-2 2-2s2 0.894 2 2v0c0 1.106-0.894 2-2 2s-2-0.9-2-2zM4.513 7.513v0c0-1.656 1.344-3 3-3s3 1.344 3 3v0c0 1.656-1.344 3-3 3s-3-1.344-3-3zM1.75 16c0-1.244 1.006-2.25 2.25-2.25s2.25 1.006 2.25 2.25-1.006 2.25-2.25 2.25-2.25-1.006-2.25-2.25z"></path>
</svg>
