<!-- Generated by IcoMoon.io -->
<svg version="1.1" xmlns="http://www.w3.org/2000/svg" width="32" height="32" viewBox="0 0 32 32">
<title>subjects</title>
<path d="M14.412 7.819h3.175v16.119h-3.175v-16.119z"></path>
<path d="M3.3 12.825h25.4v3.175h-25.4v-3.175z"></path>
<path d="M3.3 12.825h3.175v6.45h-3.175v-6.45z"></path>
<path d="M25.525 12.825h3.175v6.137h-3.175v-6.137z"></path>
<path d="M16 0.125c-2.631 0-4.762 2.131-4.762 4.763s2.131 4.763 4.762 4.763c2.631 0 4.762-2.131 4.762-4.763s-2.131-4.763-4.762-4.763zM16 6.475c-0.875 0-1.588-0.706-1.588-1.588 0-0.875 0.713-1.587 1.588-1.587s1.587 0.712 1.587 1.587c0 0.881-0.712 1.588-1.588 1.588z"></path>
<path d="M27.113 17.587c-2.631 0-4.762 2.131-4.762 4.762s2.131 4.762 4.762 4.762 4.762-2.131 4.762-4.762c0-2.631-2.131-4.762-4.762-4.762zM27.113 23.938c-0.875 0-1.587-0.712-1.587-1.587s0.712-1.587 1.587-1.587 1.587 0.712 1.587 1.587c0 0.875-0.712 1.587-1.587 1.587z"></path>
<path d="M16 22.35c-2.631 0-4.762 2.131-4.762 4.762s2.131 4.762 4.762 4.762c2.631 0 4.762-2.131 4.762-4.762s-2.131-4.762-4.762-4.762zM16 28.7c-0.875 0-1.588-0.712-1.588-1.587s0.713-1.587 1.588-1.587 1.587 0.712 1.587 1.587c0 0.875-0.712 1.587-1.588 1.587z"></path>
<path d="M4.888 17.587c-2.631 0-4.763 2.131-4.763 4.762s2.131 4.762 4.763 4.762 4.763-2.131 4.763-4.762c0-2.631-2.131-4.762-4.763-4.762zM4.888 23.938c-0.875 0-1.587-0.712-1.587-1.587s0.712-1.587 1.587-1.587c0.875 0 1.587 0.712 1.587 1.587s-0.713 1.587-1.588 1.587z"></path>
</svg>
