<!-- Generated by IcoMoon.io -->
<svg version="1.1" xmlns="http://www.w3.org/2000/svg" width="32" height="32" viewBox="0 0 32 32">
<title>tags</title>
<path d="M7.6 8.5c0-1.188-0.95-2.138-2.138-2.138s-2.144 0.95-2.144 2.138 0.95 2.137 2.138 2.137 2.144-0.95 2.144-2.137zM25.444 18.131c0 0.569-0.231 1.119-0.619 1.506l-8.212 8.219c-0.4 0.387-0.95 0.619-1.519 0.619s-1.119-0.231-1.506-0.619l-11.956-11.969c-0.85-0.838-1.519-2.456-1.519-3.644v-6.956c0-1.169 0.969-2.138 2.138-2.138h6.956c1.188 0 2.806 0.669 3.662 1.519l11.956 11.938c0.381 0.4 0.619 0.956 0.619 1.525v0zM31.863 18.131c0 0.569-0.231 1.119-0.619 1.506l-8.213 8.219c-0.4 0.387-0.95 0.619-1.519 0.619-0.869 0-1.306-0.4-1.875-0.988l7.863-7.856c0.387-0.387 0.619-0.938 0.619-1.506s-0.231-1.119-0.619-1.519l-11.956-11.938c-0.85-0.85-2.475-1.519-3.662-1.519h3.744c1.188 0 2.806 0.669 3.663 1.519l11.956 11.938c0.381 0.4 0.619 0.956 0.619 1.525v0z"></path>
</svg>
