<!-- Generated by IcoMoon.io -->
<svg version="1.1" xmlns="http://www.w3.org/2000/svg" width="32" height="32" viewBox="0 0 32 32">
<title>th</title>
<path d="M9.194 24.313v3.837c0 1.056-0.762 1.919-1.7 1.919h-5.669c-0.938-0.006-1.7-0.863-1.7-1.925v-3.831c0-1.056 0.762-1.919 1.7-1.919h5.669c0.944 0 1.7 0.856 1.7 1.919zM9.194 14.081v3.837c0 1.056-0.762 1.919-1.7 1.919h-5.669c-0.938 0-1.7-0.856-1.7-1.919v-3.838c0-1.056 0.762-1.919 1.7-1.919h5.669c0.944 0 1.7 0.863 1.7 1.919v0zM20.538 24.313v3.837c0 1.056-0.762 1.919-1.7 1.919h-5.669c-0.938 0-1.7-0.856-1.7-1.919v-3.837c0-1.056 0.762-1.919 1.7-1.919h5.669c0.938 0 1.7 0.856 1.7 1.919zM9.194 3.856v3.831c0 1.056-0.762 1.919-1.7 1.919h-5.669c-0.938 0-1.7-0.856-1.7-1.919v-3.831c0-1.063 0.762-1.919 1.7-1.919h5.669c0.944 0 1.7 0.856 1.7 1.919v0zM20.538 14.081v3.837c0 1.056-0.762 1.919-1.7 1.919h-5.669c-0.938 0-1.7-0.856-1.7-1.919v-3.838c0-1.056 0.762-1.919 1.7-1.919h5.669c0.938 0 1.7 0.863 1.7 1.919v0zM31.875 24.313v3.837c0 1.056-0.762 1.919-1.7 1.919h-5.669c-0.938 0-1.7-0.856-1.7-1.919v-3.837c0-1.056 0.762-1.919 1.7-1.919h5.669c0.938 0 1.7 0.856 1.7 1.919zM20.538 3.856v3.831c0 1.056-0.762 1.919-1.7 1.919h-5.669c-0.938 0-1.7-0.856-1.7-1.919v-3.831c0-1.056 0.762-1.919 1.7-1.919h5.669c0.938 0 1.7 0.856 1.7 1.919v0zM31.875 14.081v3.837c0 1.056-0.762 1.919-1.7 1.919h-5.669c-0.938 0-1.7-0.856-1.7-1.919v-3.838c0-1.056 0.762-1.919 1.7-1.919h5.669c0.938 0 1.7 0.863 1.7 1.919v0zM31.875 3.856v3.831c0 1.056-0.762 1.919-1.7 1.919h-5.669c-0.938 0-1.7-0.856-1.7-1.919v-3.831c0-1.056 0.762-1.919 1.7-1.919h5.669c0.938 0 1.7 0.856 1.7 1.919v0z"></path>
</svg>
