<!-- Generated by IcoMoon.io -->
<svg version="1.1" xmlns="http://www.w3.org/2000/svg" width="32" height="32" viewBox="0 0 32 32">
<title>trash</title>
<path d="M13.963 0.1c1.356 0 2.719 0 4.081 0 0 1.244 0 2.494 0 3.737 3.4 0 6.8 0 10.194 0 0 1.244 0 2.487 0 3.737-8.156 0-16.313 0-24.469 0 0-1.244 0-2.487 0-3.737 3.4 0 6.8 0 10.194 0 0-1.25 0-2.494 0-3.737zM5.806 9.438c1.356 0 2.719 0 4.075 0 0 7.469 0 14.944 0 22.413-1.356 0-2.719 0-4.075 0 0-7.469 0-14.944 0-22.413zM13.963 9.438c1.356 0 2.719 0 4.081 0 0 7.469 0 14.944 0 22.413-1.356 0-2.719 0-4.081 0 0-7.469 0-14.944 0-22.413zM22.119 9.438c1.356 0 2.719 0 4.075 0 0 7.469 0 14.944 0 22.413-1.356 0-2.719 0-4.075 0 0-7.469 0-14.944 0-22.413z"></path>
</svg>
