<!-- Generated by IcoMoon.io -->
<svg version="1.1" xmlns="http://www.w3.org/2000/svg" width="32" height="32" viewBox="0 0 32 32">
<title>zoom-out</title>
<path d="M31.006 27.231l-7.575-6.444c-0.781-0.706-1.619-1.031-2.3-1 1.788-2.094 2.869-4.813 2.869-7.787 0-6.625-5.375-12-12-12s-12 5.375-12 12 5.375 12 12 12c2.969 0 5.694-1.081 7.788-2.869-0.031 0.675 0.294 1.512 1 2.3l6.444 7.581c1.106 1.225 2.906 1.331 4.006 0.231s1-2.906-0.231-4.012v0zM12 20c-4.419 0-8-3.581-8-8s3.581-8 8-8 8 3.581 8 8-3.581 8-8 8zM6 10h12v4h-12v-4z"></path>
</svg>
