<!-- Generated by IcoMoon.io -->
<svg version="1.1" xmlns="http://www.w3.org/2000/svg" width="32" height="32" viewBox="0 0 32 32">
<title>angle-right</title>
<path d="M21.188 16.144c0 0.144-0.069 0.306-0.181 0.413l-8.319 8.319c-0.106 0.106-0.269 0.181-0.412 0.181s-0.306-0.069-0.412-0.181l-0.894-0.894c-0.106-0.106-0.181-0.25-0.181-0.413 0-0.144 0.069-0.306 0.181-0.413l7.019-7.019-7.012-7.012c-0.106-0.106-0.181-0.269-0.181-0.412s0.069-0.306 0.181-0.412l0.894-0.894c0.106-0.106 0.269-0.181 0.412-0.181s0.306 0.069 0.412 0.181l8.319 8.319c0.106 0.113 0.175 0.275 0.175 0.419v0z"></path>
</svg>
