<!-- Generated by IcoMoon.io -->
<svg version="1.1" xmlns="http://www.w3.org/2000/svg" width="32" height="32" viewBox="0 0 32 32">
<title>angle-up</title>
<path d="M31.944 22.631c0 0.256-0.125 0.544-0.319 0.738l-1.6 1.6c-0.194 0.194-0.45 0.319-0.738 0.319-0.256 0-0.544-0.125-0.738-0.319l-12.544-12.556-12.556 12.556c-0.194 0.194-0.481 0.319-0.737 0.319s-0.544-0.125-0.738-0.319l-1.587-1.6c-0.194-0.194-0.319-0.481-0.319-0.738s0.125-0.544 0.319-0.738l14.881-14.881c0.194-0.194 0.481-0.319 0.738-0.319s0.544 0.125 0.738 0.319l14.881 14.887c0.188 0.194 0.319 0.481 0.319 0.731v0z"></path>
</svg>
