<!-- Generated by IcoMoon.io -->
<svg version="1.1" xmlns="http://www.w3.org/2000/svg" width="32" height="32" viewBox="0 0 32 32">
<title>arrows-h</title>
<path d="M31.906 16c0 0.3-0.125 0.587-0.337 0.8l-4.544 4.544c-0.212 0.212-0.5 0.337-0.8 0.337-0.619 0-1.137-0.512-1.137-1.137v-2.275h-18.175v2.275c0 0.619-0.513 1.137-1.138 1.137-0.3 0-0.588-0.125-0.8-0.337l-4.544-4.544c-0.212-0.212-0.338-0.5-0.338-0.8s0.125-0.588 0.338-0.8l4.544-4.544c0.213-0.213 0.5-0.338 0.8-0.338 0.619 0 1.138 0.512 1.138 1.137v2.275h18.181v-2.275c0-0.619 0.512-1.137 1.137-1.137 0.3 0 0.587 0.125 0.8 0.338l4.544 4.544c0.206 0.213 0.331 0.5 0.331 0.8v0z"></path>
</svg>
