<!-- Generated by IcoMoon.io -->
<svg version="1.1" xmlns="http://www.w3.org/2000/svg" width="32" height="32" viewBox="0 0 32 32">
<title>arrow-dbl-right</title>
<path d="M26.581 16l-12.056 10.962c-0.869 0.788-0.869 2.069 0 2.85 0.869 0.788 2.269 0.788 3.138 0l13.625-12.387c0.438-0.394 0.65-0.913 0.65-1.425 0-0.519-0.212-1.031-0.65-1.425l-13.625-12.387c-0.869-0.788-2.269-0.788-3.137 0s-0.869 2.063 0 2.85l12.056 10.963zM12.769 16l-12.056 10.962c-0.869 0.788-0.869 2.069 0 2.85 0.869 0.788 2.269 0.788 3.138 0l13.625-12.387c0.431-0.394 0.65-0.913 0.65-1.425 0-0.519-0.219-1.031-0.65-1.425l-13.625-12.387c-0.869-0.788-2.269-0.788-3.138 0s-0.869 2.063 0 2.85l12.056 10.963z"></path>
</svg>
