<!-- Generated by IcoMoon.io -->
<svg version="1.1" xmlns="http://www.w3.org/2000/svg" width="32" height="32" viewBox="0 0 32 32">
<title>arrow-dbl-left</title>
<path d="M5.419 16l12.056-10.963c0.869-0.787 0.869-2.069 0-2.85-0.869-0.788-2.269-0.788-3.137 0l-13.625 12.387c-0.431 0.394-0.65 0.906-0.65 1.425s0.219 1.031 0.65 1.425l13.625 12.387c0.869 0.788 2.269 0.788 3.137 0s0.869-2.063 0-2.85l-12.056-10.963zM19.231 16l12.056-10.963c0.869-0.787 0.869-2.069 0-2.85-0.869-0.788-2.269-0.788-3.137 0l-13.625 12.387c-0.431 0.394-0.65 0.912-0.65 1.425s0.219 1.031 0.65 1.425l13.625 12.387c0.869 0.788 2.269 0.788 3.137 0s0.869-2.063 0-2.85l-12.056-10.963z"></path>
</svg>
