<!-- Generated by IcoMoon.io -->
<svg version="1.1" xmlns="http://www.w3.org/2000/svg" width="32" height="32" viewBox="0 0 32 32">
<title>arrow-end-right</title>
<path d="M6.306 0.688c-0.888-0.869-2.331-0.869-3.219 0s-0.888 2.288 0 3.156l12.381 12.125-12.381 12.125c-0.888 0.869-0.888 2.288 0 3.156s2.331 0.869 3.225 0l13.994-13.706c0.444-0.438 0.669-1.006 0.669-1.575s-0.225-1.144-0.669-1.575l-14-13.706zM28.4 0.087h-4.069c-0.244 0-0.438 0.194-0.438 0.438v30.938c0 0.238 0.194 0.438 0.438 0.438h4.069c0.244 0 0.438-0.194 0.438-0.438v-30.938c0-0.237-0.194-0.438-0.438-0.438v0z"></path>
</svg>
