<!-- Generated by IcoMoon.io -->
<svg version="1.1" xmlns="http://www.w3.org/2000/svg" width="26" height="32" viewBox="0 0 26 32">
<title>arrow-end-left</title>
<path d="M22.319 31.3c0.881 0.875 2.313 0.875 3.194 0s0.881-2.294 0-3.163l-12.262-12.162 12.262-12.156c0.881-0.875 0.881-2.294 0-3.163-0.881-0.875-2.306-0.875-3.194 0l-13.863 13.738c-0.438 0.438-0.662 1.012-0.662 1.581 0 0.575 0.219 1.144 0.662 1.581l13.863 13.744zM0.525 31.956h4.1c0.244 0 0.438-0.194 0.438-0.681v-31.019c0 0.019-0.194-0.175-0.438-0.175h-4.1c-0.244 0-0.438 0.194-0.438 0.175v31.019c-0.006 0.488 0.194 0.681 0.438 0.681z"></path>
</svg>
