<!-- Generated by IcoMoon.io -->
<svg version="1.1" xmlns="http://www.w3.org/2000/svg" width="32" height="32" viewBox="0 0 32 32">
<title>books</title>
<path d="M6.588 4.912h-5.55c-0.506 0-0.925 0.419-0.925 0.925v20.331c0 0.506 0.419 0.925 0.925 0.925h5.544c0.506 0 0.925-0.419 0.925-0.925v-20.331c0-0.513-0.412-0.925-0.919-0.925zM5.662 10.456h-3.7v-1.85h3.694v1.85z"></path>
<path d="M15.825 4.912h-5.544c-0.506 0-0.925 0.419-0.925 0.925v20.331c0 0.506 0.419 0.925 0.925 0.925h5.544c0.506 0 0.925-0.419 0.925-0.925v-20.331c0-0.513-0.419-0.925-0.925-0.925zM14.9 10.456h-3.694v-1.85h3.694v1.85z"></path>
<path d="M22.212 6.338l-4.95 2.494c-0.456 0.231-0.637 0.787-0.413 1.244l8.319 16.506c0.231 0.456 0.788 0.637 1.244 0.413l4.95-2.494c0.456-0.231 0.637-0.788 0.413-1.244l-8.325-16.506c-0.225-0.456-0.788-0.638-1.238-0.412v0z"></path>
</svg>
