<!-- Generated by IcoMoon.io -->
<svg version="1.1" xmlns="http://www.w3.org/2000/svg" width="32" height="32" viewBox="0 0 32 32">
<title>calendar</title>
<path d="M15.225 18.65v8.25h2.563v-12.456h-2.213l-0.056 0.506c-0.075 0.662-0.269 1.106-0.556 1.281-0.369 0.219-0.906 0.325-1.606 0.325l-0.706-0.006v2.1h2.575zM0.581 3.388v28.613h30.8v-28.613h-30.8zM29.538 30.319h-27.106v-19.031h27.106v19.031zM2.431 9.544v-4.475h27.106v4.469l-27.106 0.006zM3.85-0.031h2.275v3.425h-2.275c0-0.006 0-3.425 0-3.425zM25.706-0.037h2.275v3.425h-2.275c0 0 0-3.425 0-3.425z"></path>
</svg>
