<!-- Generated by IcoMoon.io -->
<svg version="1.1" xmlns="http://www.w3.org/2000/svg" width="32" height="32" viewBox="0 0 32 32">
<title>check-square-o</title>
<path d="M27.012 16.731v6.069c0 3.038-2.462 5.5-5.5 5.5h-15.887c-3.038 0-5.5-2.462-5.5-5.5v-15.887c0-3.038 2.462-5.5 5.5-5.5h15.887c0.762 0 1.525 0.15 2.231 0.475 0.169 0.075 0.306 0.25 0.344 0.438 0.038 0.212-0.019 0.4-0.169 0.556l-0.938 0.938c-0.113 0.112-0.288 0.194-0.438 0.194-0.056 0-0.113-0.019-0.169-0.038-0.288-0.075-0.575-0.112-0.856-0.112h-15.894c-1.681 0-3.056 1.375-3.056 3.056v15.888c0 1.681 1.375 3.056 3.056 3.056h15.887c1.681 0 3.056-1.375 3.056-3.056v-4.85c0-0.15 0.056-0.306 0.169-0.419l1.225-1.225c0.131-0.131 0.288-0.194 0.438-0.194 0.075 0 0.15 0.019 0.231 0.056 0.225 0.094 0.381 0.306 0.381 0.556v0zM31.419 7.394l-15.537 15.537c-0.613 0.613-1.563 0.613-2.175 0l-8.213-8.206c-0.612-0.613-0.612-1.563 0-2.175l2.1-2.1c0.613-0.613 1.563-0.613 2.175 0l5.019 5.019 12.356-12.35c0.613-0.612 1.563-0.612 2.175 0l2.1 2.1c0.612 0.606 0.612 1.563 0 2.175v0z"></path>
</svg>
