<!-- Generated by IcoMoon.io -->
<svg version="1.1" xmlns="http://www.w3.org/2000/svg" width="32" height="32" viewBox="0 0 32 32">
<title>close</title>
<path d="M26.856 1.094l-9.794 9.838c-0.613 0.613-1.606 0.613-2.219 0l-9.65-9.694c-0.612-0.613-1.606-0.613-2.219 0l-1.769 1.775c-0.606 0.613-0.606 1.6 0 2.206l9.669 9.713c0.606 0.613 0.606 1.6 0 2.206l-9.525 9.569c-0.606 0.613-0.606 1.6 0 2.206l1.763 1.769c0.612 0.613 1.606 0.613 2.219 0l9.512-9.55c0.613-0.613 1.606-0.613 2.219 0l9.656 9.694c0.613 0.613 1.606 0.613 2.219 0l1.762-1.775c0.606-0.613 0.606-1.594 0-2.206l-9.675-9.706c-0.606-0.613-0.606-1.6 0-2.206l9.813-9.85c0.606-0.612 0.606-1.6 0-2.206l-1.769-1.775c-0.606-0.619-1.6-0.619-2.212-0.006z"></path>
</svg>
