<!-- Generated by IcoMoon.io -->
<svg version="1.1" xmlns="http://www.w3.org/2000/svg" width="32" height="32" viewBox="0 0 32 32">
<title>comments-o</title>
<path d="M12.569 5.856c-5.569 0-10.281 3.144-10.281 6.856 0 1.963 1.319 3.856 3.606 5.181l1.731 1-0.625 1.5c0.375-0.212 0.75-0.444 1.106-0.694l0.787-0.556 0.944 0.181c0.894 0.163 1.806 0.25 2.731 0.25 5.569 0 10.287-3.144 10.287-6.856s-4.712-6.862-10.287-6.862v0zM12.569 3.569c6.944 0 12.569 4.088 12.569 9.144s-5.625 9.144-12.569 9.144c-1.088 0-2.144-0.106-3.144-0.288-1.481 1.056-3.162 1.819-4.963 2.288-0.481 0.125-1 0.212-1.538 0.288h-0.050c-0.269 0-0.519-0.212-0.569-0.519v0c-0.069-0.337 0.163-0.556 0.356-0.788 0.694-0.781 1.481-1.481 2.087-2.962-2.894-1.681-4.75-4.269-4.75-7.162 0-5.050 5.625-9.144 12.569-9.144v0zM27.25 24.444c0.606 1.481 1.394 2.181 2.087 2.962 0.194 0.231 0.431 0.444 0.356 0.788v0c-0.069 0.319-0.337 0.556-0.625 0.519-0.538-0.069-1.056-0.163-1.538-0.288-1.806-0.462-3.481-1.231-4.963-2.288-1 0.181-2.056 0.288-3.144 0.288-3.231 0-6.194-0.894-8.431-2.356 0.519 0.038 1.056 0.069 1.569 0.069 3.837 0 7.462-1.106 10.231-3.106 2.981-2.181 4.625-5.125 4.625-8.319 0-0.931-0.144-1.838-0.413-2.713 3.019 1.662 4.981 4.306 4.981 7.287 0.012 2.906-1.844 5.481-4.738 7.156v0z"></path>
</svg>
