<!-- Generated by IcoMoon.io -->
<svg version="1.1" xmlns="http://www.w3.org/2000/svg" width="32" height="32" viewBox="0 0 32 32">
<title>commenting-o</title>
<path d="M11.431 13.813c0 1.269-1.019 2.288-2.287 2.288s-2.287-1.019-2.287-2.287 1.019-2.287 2.287-2.287 2.287 1.019 2.287 2.287v0zM18.288 13.813c0 1.269-1.019 2.288-2.288 2.288s-2.287-1.019-2.287-2.287 1.019-2.287 2.287-2.287 2.288 1.019 2.288 2.287zM25.144 13.813c0 1.269-1.019 2.288-2.288 2.288s-2.288-1.019-2.288-2.287 1.019-2.287 2.288-2.287 2.288 1.019 2.288 2.287zM16 4.669c-7.431 0-13.713 4.181-13.713 9.144 0 2.663 1.787 5.194 4.875 6.944l1.556 0.894-0.481 1.712c-0.338 1.269-0.787 2.25-1.25 3.069 1.806-0.75 3.444-1.769 4.912-3.056l0.769-0.681 1.019 0.106c0.769 0.087 1.556 0.144 2.319 0.144 7.431 0 13.712-4.181 13.712-9.144s-6.288-9.131-13.719-9.131v0zM32 13.813c0 6.319-7.163 11.431-16 11.431-0.875 0-1.75-0.056-2.588-0.144-2.338 2.069-5.125 3.538-8.213 4.319-0.644 0.181-1.337 0.306-2.038 0.394h-0.087c-0.356 0-0.681-0.288-0.769-0.681v-0.019c-0.087-0.444 0.212-0.712 0.481-1.038 1.125-1.269 2.412-2.337 3.25-5.319-3.681-2.087-6.037-5.319-6.037-8.944 0-6.306 7.162-11.431 16-11.431v0c8.837 0 16 5.125 16 11.431v0z"></path>
</svg>
