<!-- Generated by IcoMoon.io -->
<svg version="1.1" xmlns="http://www.w3.org/2000/svg" width="32" height="32" viewBox="0 0 32 32">
<title>compress</title>
<path d="M15.994 17.344v9.419c0 0.738-0.613 1.344-1.344 1.344-0.356 0-0.694-0.15-0.944-0.4l-3.025-3.025-6.987 6.981c-0.125 0.125-0.313 0.212-0.481 0.212s-0.356-0.081-0.481-0.212l-2.4-2.394c-0.125-0.125-0.212-0.313-0.212-0.481s0.081-0.356 0.212-0.481l6.981-6.988-3.025-3.025c-0.25-0.25-0.4-0.587-0.4-0.944 0-0.738 0.613-1.344 1.344-1.344h9.419c0.738-0.006 1.344 0.606 1.344 1.337v0zM31.869 3.219c0 0.169-0.081 0.356-0.212 0.481l-6.975 6.981 3.025 3.025c0.25 0.25 0.4 0.588 0.4 0.944 0 0.738-0.613 1.344-1.344 1.344h-9.419c-0.738 0-1.344-0.613-1.344-1.344v-9.412c0-0.737 0.613-1.344 1.344-1.344 0.356 0 0.694 0.15 0.944 0.4l3.025 3.025 6.981-6.981c0.125-0.125 0.313-0.212 0.481-0.212s0.356 0.081 0.481 0.212l2.4 2.4c0.131 0.119 0.212 0.313 0.212 0.481v0z"></path>
</svg>
