<!-- Generated by IcoMoon.io -->
<svg version="1.1" xmlns="http://www.w3.org/2000/svg" width="32" height="32" viewBox="0 0 32 32">
<title>create</title>
<path d="M10.706 7.181c3.581 0.275 7.106 0.031 10.581 0.219 0 0.588 0 2.719 0 3.306-3.525 0-7.056 0-10.581 0 0-1.175 0-2.35 0-3.525v0zM3.656 0.125c0 10.581 0 21.169 0 31.75 8.231 0 16.462 0 24.694 0 0-10.581 0-21.169 0-31.75-8.231 0-16.469 0-24.694 0v0zM24.819 28.35c-5.881 0-11.762 0-17.637 0 0-3.525 0-7.056 0-10.581 5.881 0 11.762 0 17.637 0 0 3.525 0 7.050 0 10.581v0zM24.819 14.238c-5.881 0-11.762 0-17.637 0 0-3.525 0-7.056 0-10.581 5.881 0 11.762 0 17.637 0 0 3.525 0 7.050 0 10.581zM10.706 21.294c3.419 0.262 6.944 0.106 10.581 0.219 0 0.587 0 2.719 0 3.306-3.525 0-7.056 0-10.581 0 0-1.175 0-2.35 0-3.525v0z"></path>
</svg>
