<!-- Generated by IcoMoon.io -->
<svg version="1.1" xmlns="http://www.w3.org/2000/svg" width="32" height="32" viewBox="0 0 32 32">
<title>directions</title>
<path d="M30.288 19.175l-4.762-4.762h-7.938v3.175h6.35l1.587 1.587-1.587 1.587h-6.35v3.175h7.938z"></path>
<path d="M9.65 20.762v-3.175h4.763v-3.175h-7.938v9.525h7.938v-3.175z"></path>
<path d="M8.063 9.65l-1.588-1.588 1.588-1.588h6.35v-3.175h-7.938l-4.763 4.763 4.763 4.762h7.938v-3.175z"></path>
<path d="M22.35 6.475v3.175h-4.762v3.175h7.938v-9.525h-7.938v3.175z"></path>
<path d="M14.412 0h3.175v6.475h-3.175v-6.475z"></path>
<path d="M14.412 9.65h3.175v7.937h-3.175v-7.938z"></path>
<path d="M14.412 20.762h3.175v11.238h-3.175v-11.238z"></path>
</svg>
