<!-- Generated by IcoMoon.io -->
<svg version="1.1" xmlns="http://www.w3.org/2000/svg" width="32" height="32" viewBox="0 0 32 32">
<title>disc2</title>
<path d="M0.125 0.125c0 10.581 0 21.169 0 31.75 10.581 0 21.169 0 31.75 0 0-10.581 0-21.169 0-31.75-10.581 0-21.169 0-31.75 0zM7.069 2.112c5.95 0 11.906 0 17.862 0 0 1.325 0 2.644 0 3.969-5.95 0-11.906 0-17.863 0 0-1.325 0-2.65 0-3.969zM7.069 8.063c5.95 0 11.906 0 17.862 0 0 1.656 0 3.306 0 4.963-5.95 0-11.906 0-17.863 0 0-1.656 0-3.306 0-4.963zM15.006 29.887c-1.656 0-3.306 0-4.963 0 0-2.313 0-4.631 0-6.944 1.656 0 3.306 0 4.963 0 0 2.319 0 4.631 0 6.944zM29.887 29.887c-1.988 0-3.969 0-5.95 0 0-2.975 0-5.95 0-8.931-5.294 0-10.581 0-15.875 0 0 2.975 0 5.95 0 8.931-1.987 0-3.969 0-5.95 0 0-9.256 0-18.519 0-27.781 0.994 0 1.987 0 2.975 0 0 4.3 0 8.6 0 12.9 7.275 0 14.556 0 21.825 0 0-4.3 0-8.6 0-12.9 0.994 0 1.988 0 2.975 0 0 9.262 0 18.525 0 27.781z"></path>
</svg>
