<!-- Generated by IcoMoon.io -->
<svg version="1.1" xmlns="http://www.w3.org/2000/svg" width="32" height="32" viewBox="0 0 32 32">
<title>download</title>
<path d="M0.388 0.113c10.387 0 20.775 0 31.163 0 0 7.056 0 14.119 0 21.181-3.706 0-7.419 0-11.131 0 0-0.731 0-1.462 0-2.188 2.969 0 5.938 0 8.906 0 0-5.6 0-11.2 0-16.8-8.906 0-17.813 0-26.712 0 0 5.6 0 11.2 0 16.8 2.969 0 5.938 0 8.906 0 0 0.731 0 1.456 0 2.188-3.713 0-7.419 0-11.131 0 0-7.063 0-14.125 0-21.181v0zM15.975 31.863l-5.088-7.269h3.238l0.063-18.306h3.625l0.019 18.306h3.231l-5.088 7.269z"></path>
</svg>
