<!-- Generated by IcoMoon.io -->
<svg version="1.1" xmlns="http://www.w3.org/2000/svg" width="32" height="32" viewBox="0 0 32 32">
<title>edit</title>
<path d="M15.856 22.519l2.069-2.069-2.713-2.712-2.069 2.069v1h1.713v1.712h1zM23.712 9.662c-0.163-0.162-0.431-0.144-0.587 0.019l-6.25 6.25c-0.163 0.162-0.181 0.431-0.019 0.588 0.163 0.163 0.431 0.144 0.587-0.019l6.25-6.25c0.163-0.162 0.181-0.431 0.019-0.588v0zM25.144 20.269v3.394c0 2.837-2.306 5.144-5.144 5.144h-14.856c-2.837 0-5.144-2.306-5.144-5.144v-14.856c0-2.838 2.306-5.144 5.144-5.144h14.856c0.712 0 1.431 0.144 2.087 0.444 0.163 0.069 0.288 0.231 0.319 0.412 0.038 0.194-0.019 0.375-0.163 0.519l-0.875 0.875c-0.163 0.162-0.375 0.213-0.569 0.144-0.269-0.069-0.538-0.106-0.806-0.106h-14.85c-1.569 0-2.856 1.287-2.856 2.856v14.856c0 1.569 1.288 2.856 2.856 2.856h14.856c1.569 0 2.856-1.288 2.856-2.856v-2.25c0-0.144 0.056-0.288 0.163-0.394l1.144-1.144c0.181-0.181 0.413-0.212 0.625-0.125s0.356 0.288 0.356 0.519v0zM23.431 7.088l5.144 5.144-12 12h-5.144v-5.144l12-12zM31.356 9.444l-1.644 1.644-5.144-5.144 1.644-1.644c0.663-0.663 1.769-0.663 2.431 0l2.712 2.713c0.663 0.669 0.663 1.775 0 2.431v0z"></path>
</svg>
