<!-- Generated by IcoMoon.io -->
<svg version="1.1" xmlns="http://www.w3.org/2000/svg" width="32" height="32" viewBox="0 0 32 32">
<title>eye-blocked</title>
<path d="M29.563 0.438c-0.587-0.588-1.538-0.588-2.119 0l-6.325 6.319c-1.619-0.494-3.337-0.756-5.119-0.756-6.981 0-13.025 4.063-16 10 1.288 2.569 3.144 4.781 5.406 6.469l-4.969 4.969c-0.588 0.587-0.588 1.538 0 2.119 0.294 0.294 0.675 0.438 1.063 0.438s0.769-0.144 1.063-0.438l27-26.994c0.581-0.587 0.581-1.538 0-2.125zM13 10c1.319 0 2.438 0.85 2.844 2.037l-3.806 3.806c-1.188-0.4-2.037-1.519-2.037-2.844 0-1.656 1.344-3 3-3zM3.444 16c1.194-1.894 2.788-3.5 4.669-4.694 0.125-0.075 0.244-0.156 0.369-0.225-0.313 0.856-0.481 1.775-0.481 2.738 0 1.713 0.537 3.306 1.456 4.606l-1.906 1.906c-1.631-1.156-3.031-2.631-4.106-4.331z"></path>
<path d="M24 13.813c0-0.85-0.131-1.669-0.381-2.431l-10.056 10.056c0.769 0.244 1.588 0.375 2.438 0.375 4.419 0 8-3.581 8-8v0z"></path>
<path d="M25.938 9.063l-2.169 2.169c0.038 0.025 0.081 0.050 0.119 0.075 1.881 1.2 3.475 2.806 4.669 4.694-1.194 1.894-2.788 3.5-4.669 4.694-2.363 1.512-5.088 2.306-7.887 2.306-1.206 0-2.406-0.15-3.563-0.438l-2.4 2.4c1.869 0.669 3.875 1.038 5.963 1.038 6.981 0 13.025-4.063 16-10-1.406-2.813-3.506-5.2-6.063-6.938z"></path>
</svg>
