<!-- Generated by IcoMoon.io -->
<svg version="1.1" xmlns="http://www.w3.org/2000/svg" width="32" height="32" viewBox="0 0 32 32">
<title>eye</title>
<path d="M16 6c-6.981 0-13.025 4.063-16 10 2.975 5.938 9.019 10 16 10s13.025-4.063 16-10c-2.975-5.938-9.019-10-16-10zM23.887 11.306c1.881 1.2 3.475 2.806 4.669 4.694-1.194 1.894-2.788 3.5-4.669 4.694-2.363 1.512-5.088 2.306-7.887 2.306s-5.525-0.794-7.887-2.306c-1.881-1.194-3.475-2.8-4.669-4.694 1.194-1.894 2.788-3.5 4.669-4.694 0.125-0.075 0.244-0.156 0.369-0.225-0.313 0.856-0.481 1.775-0.481 2.738 0 4.419 3.581 8 8 8s8-3.581 8-8c0-0.963-0.169-1.881-0.481-2.738 0.125 0.069 0.25 0.144 0.369 0.225v0 0zM16 13c0 1.656-1.344 3-3 3s-3-1.344-3-3 1.344-3 3-3 3 1.344 3 3z"></path>
</svg>
