<!-- Generated by IcoMoon.io -->
<svg version="1.1" xmlns="http://www.w3.org/2000/svg" width="32" height="32" viewBox="0 0 32 32">
<title>grid</title>
<path d="M0.125 0.125c4.3 0 8.6 0 12.9 0 0 4.3 0 8.6 0 12.9-4.3 0-8.6 0-12.9 0 0-4.3 0-8.6 0-12.9zM18.975 0.125c4.3 0 8.6 0 12.9 0 0 4.3 0 8.6 0 12.9-4.3 0-8.6 0-12.9 0 0-4.3 0-8.6 0-12.9zM0.125 18.975c4.3 0 8.6 0 12.9 0 0 4.3 0 8.6 0 12.9-4.3 0-8.6 0-12.9 0 0-4.3 0-8.6 0-12.9zM18.975 18.975c4.3 0 8.6 0 12.9 0 0 4.3 0 8.6 0 12.9-4.3 0-8.6 0-12.9 0 0-4.3 0-8.6 0-12.9z"></path>
</svg>
