<!-- Generated by IcoMoon.io -->
<svg version="1.1" xmlns="http://www.w3.org/2000/svg" width="32" height="32" viewBox="0 0 32 32">
<title>images</title>
<path d="M30.5 22.45c0.875-1.969 1.375-4.15 1.375-6.45 0-8.769-7.106-15.875-15.875-15.875s-15.875 7.106-15.875 15.875c0 8.769 7.106 15.875 15.875 15.875 6.331 0 11.775-3.712 14.325-9.069l0.269-0.269-0.094-0.087zM20.225 19.175h-4.787l-4.994-4.994 1.338-1.356h4.606l5.087 5.088-1.25 1.262zM3.3 16c0-1.35 0.212-2.65 0.606-3.869l7.044 7.044h-7.231c-0.263-1.019-0.419-2.075-0.419-3.175v0zM20.875 12.825h7.406c0.262 1.019 0.419 2.075 0.419 3.175 0 1.4-0.231 2.738-0.65 4l-7.175-7.175zM26.988 9.65h-12.081l5.481-5.556c2.794 1.031 5.125 3.013 6.6 5.556zM16 3.3c0.269 0 0.531 0.025 0.794 0.044l-8.537 8.65-2.906-2.906c2.269-3.481 6.188-5.787 10.65-5.787v0zM5.013 22.35h12.075l-5.481 5.556c-2.794-1.031-5.119-3.012-6.594-5.556zM16 28.7c-0.269 0-0.531-0.025-0.794-0.038l8.45-8.563 2.925 2.925c-2.275 3.419-6.162 5.675-10.581 5.675z"></path>
</svg>
