<!-- Generated by IcoMoon.io -->
<svg version="1.1" xmlns="http://www.w3.org/2000/svg" width="32" height="32" viewBox="0 0 32 32">
<title>info</title>
<path d="M14.012 9.55c0-0.819 0.669-1.488 1.488-1.488h0.994c0.819 0 1.488 0.669 1.488 1.488v0.994c0 0.819-0.669 1.488-1.488 1.488h-0.994c-0.819 0-1.488-0.669-1.488-1.488v-0.994z"></path>
<path d="M19.969 23.938h-7.938v-1.988h1.988v-5.95h-1.988v-1.988h5.95v7.938h1.988v1.988z"></path>
<path d="M16 0.125c-8.769 0-15.875 7.106-15.875 15.875s7.106 15.875 15.875 15.875 15.875-7.106 15.875-15.875-7.106-15.875-15.875-15.875zM16 28.9c-7.125 0-12.9-5.775-12.9-12.9s5.775-12.9 12.9-12.9 12.9 5.775 12.9 12.9-5.775 12.9-12.9 12.9z"></path>
</svg>
