<!-- Generated by IcoMoon.io -->
<svg version="1.1" xmlns="http://www.w3.org/2000/svg" width="32" height="32" viewBox="0 0 32 32">
<title>link-external</title>
<path d="M10.406 0.906v8.281h-10.231v16.075l-0.087 5.75v0.163l6.419-0.069h15.587v-6.331h9.744v-23.869h-21.431zM28.431 21.363c-3.25 0-6.494 0-9.744 0 0 2.113 0 4.225 0 6.331-5.031 0-10.069 0-15.1 0 0-5.031 0-10.069 0-15.1 3.412 0 6.819 0 10.231 0 0-2.763 0-5.519 0-8.281 4.869 0 9.744 0 14.612 0 0 5.681 0 11.369 0 17.050v0zM10.544 24.719v0 0 0l-2.713-2.813 10.775-10.306-2.931-2.994 8.869-0.113 0.012 9.181-3.306-3.162-10.706 10.206z"></path>
</svg>
