<!-- Generated by IcoMoon.io -->
<svg version="1.1" xmlns="http://www.w3.org/2000/svg" width="32" height="32" viewBox="0 0 32 32">
<title>list4</title>
<path d="M8.381 20.231c0 1.631-1.325 2.956-2.956 2.956s-2.956-1.325-2.956-2.956 1.325-2.956 2.956-2.956 2.956 1.325 2.956 2.956zM9.125 27.425h20.469v2.956h-20.469v-2.956zM8.381 28.906c0 1.631-1.325 2.956-2.963 2.956s-2.962-1.325-2.962-2.956c0-1.631 1.325-2.956 2.962-2.956s2.963 1.325 2.963 2.956zM8.381 11.556c0 1.631-1.325 2.956-2.963 2.956s-2.962-1.325-2.962-2.956 1.325-2.956 2.962-2.956 2.963 1.325 2.963 2.956zM9.125 10.081h20.469v2.956h-20.469v-2.956zM9.125 18.756h20.469v2.956h-20.469v-2.956zM9.125 1.738h20.469v2.956h-20.469v-2.956zM8.381 3.219c0 1.631-1.325 2.956-2.963 2.956s-2.962-1.325-2.962-2.956 1.331-2.956 2.962-2.956 2.963 1.325 2.963 2.956z"></path>
</svg>
