<!-- Generated by IcoMoon.io -->
<svg version="1.1" xmlns="http://www.w3.org/2000/svg" width="32" height="32" viewBox="0 0 32 32">
<title>lock-open</title>
<path d="M29.075 12.619h-13.075v-3.975c0-4.394-3.512-7.956-7.844-7.956s-7.844 3.563-7.844 7.956v5.306c0 0.731 0.588 1.325 1.306 1.325s1.306-0.594 1.306-1.325v-5.306c0-2.931 2.344-5.306 5.231-5.306s5.231 2.375 5.231 5.306v3.981c-1.444 0-2.613 1.188-2.613 2.65v13.263c0 1.462 1.169 2.65 2.613 2.65h15.688c1.444 0 2.613-1.188 2.613-2.65v-13.262c0-1.463-1.169-2.656-2.613-2.656v0zM29.075 28.538h-15.688v-13.262h15.688v13.262zM19.919 22.863v1.694c0 0.731 0.587 1.325 1.306 1.325 0.725 0 1.306-0.594 1.306-1.325v-1.694c0.775-0.462 1.306-1.306 1.306-2.281 0-1.469-1.169-2.65-2.613-2.65s-2.613 1.188-2.613 2.65c0 0.975 0.531 1.819 1.306 2.281v0z"></path>
</svg>
