<!-- Generated by IcoMoon.io -->
<svg version="1.1" xmlns="http://www.w3.org/2000/svg" width="32" height="32" viewBox="0 0 32 32">
<title>logo-shanti</title>
<path d="M15.994 29.188c-0.469 0-0.95-0.056-1.425-0.181-1.481-0.381-2.719-1.313-3.5-2.631l-1.556-2.637 5.081-2.994c0.669-0.344 1.431-0.431 2.163-0.238 0.794 0.206 1.456 0.7 1.875 1.406s0.531 1.531 0.325 2.319c-0.206 0.794-0.7 1.456-1.406 1.875s-1.531 0.531-2.319 0.331c-0.794-0.206-1.456-0.706-1.875-1.406l-0.95-1.613-1.262 0.744 0.95 1.613c0.613 1.044 1.6 1.781 2.769 2.081 2.419 0.619 4.887-0.837 5.512-3.256 0.3-1.175 0.125-2.387-0.488-3.431l-2.931-4.969 1.025-0.606 2.931 4.969c0.775 1.313 0.994 2.856 0.613 4.338-0.656 2.575-2.981 4.288-5.531 4.288v0 0zM13.438 22.806l0.95 1.613c0.256 0.431 0.662 0.738 1.144 0.863 1 0.256 2.019-0.344 2.281-1.344 0.125-0.481 0.050-0.988-0.2-1.419-0.256-0.431-0.663-0.731-1.144-0.856s-0.981-0.056-1.412 0.194l-1.619 0.95zM23.738 22.488l-2.994-5.081c-0.344-0.669-0.431-1.431-0.238-2.162 0.419-1.637 2.094-2.625 3.731-2.2 1.637 0.419 2.625 2.094 2.2 3.731-0.206 0.794-0.706 1.456-1.406 1.875l-1.613 0.95 0.744 1.262 1.613-0.95c1.044-0.613 1.781-1.6 2.081-2.769s0.131-2.387-0.488-3.431c-0.613-1.044-1.6-1.781-2.769-2.081-1.175-0.3-2.387-0.125-3.431 0.488l-4.969 2.931-0.606-1.025 4.969-2.931c1.313-0.775 2.856-0.994 4.331-0.613 1.481 0.381 2.719 1.313 3.5 2.631 0.775 1.319 0.994 2.856 0.613 4.331-0.381 1.481-1.313 2.725-2.631 3.5l-2.637 1.544zM21.938 17.087l0.875 1.475 1.613-0.95c0.431-0.256 0.738-0.663 0.863-1.144 0.256-1-0.344-2.019-1.344-2.281-0.994-0.256-2.019 0.344-2.275 1.344-0.125 0.481-0.056 0.981 0.194 1.413l0.075 0.144zM8.544 21.719c-0.481 0-0.963-0.063-1.438-0.181-1.481-0.381-2.719-1.313-3.5-2.631-0.775-1.319-0.994-2.856-0.612-4.331 0.381-1.481 1.313-2.719 2.631-3.5l2.637-1.556 2.994 5.081c0.344 0.669 0.431 1.431 0.244 2.163-0.419 1.631-2.094 2.625-3.731 2.2s-2.625-2.094-2.2-3.725c0.206-0.794 0.706-1.456 1.406-1.875l1.613-0.95-0.744-1.262-1.612 0.95c-1.044 0.613-1.781 1.6-2.081 2.769s-0.131 2.387 0.487 3.431c0.612 1.044 1.6 1.781 2.769 2.081 1.175 0.3 2.387 0.131 3.431-0.488l4.969-2.931 0.606 1.025-4.969 2.931c-0.894 0.525-1.894 0.8-2.9 0.8v0 0zM9.194 13.431l-1.612 0.95c-0.431 0.256-0.737 0.662-0.862 1.144-0.125 0.487-0.056 0.987 0.2 1.419s0.662 0.738 1.144 0.863c0.994 0.256 2.019-0.344 2.275-1.344 0.125-0.481 0.056-0.981-0.194-1.412l-0.95-1.619zM14.006 16.406l-2.931-4.969c-0.775-1.313-0.994-2.856-0.613-4.331 0.381-1.481 1.313-2.719 2.631-3.5 1.319-0.775 2.856-0.994 4.331-0.612 1.481 0.381 2.725 1.313 3.5 2.631l1.556 2.637-5.081 2.994c-0.669 0.344-1.425 0.431-2.162 0.244-1.637-0.419-2.625-2.094-2.2-3.731 0.419-1.638 2.094-2.625 3.731-2.2 0.794 0.206 1.456 0.706 1.875 1.406l0.95 1.613 1.262-0.744-0.95-1.612c-0.613-1.044-1.6-1.781-2.769-2.081-2.419-0.619-4.887 0.838-5.512 3.256-0.3 1.175-0.131 2.387 0.488 3.431l2.931 4.969-1.037 0.6zM16 6.662c-0.831 0-1.594 0.563-1.813 1.406-0.256 1 0.35 2.019 1.35 2.275 0.481 0.125 0.981 0.056 1.412-0.2l1.619-0.956-0.95-1.612c-0.256-0.431-0.656-0.737-1.144-0.862-0.163-0.031-0.319-0.050-0.475-0.050v0 0zM16.006 31.875c-0.706 0-1.412-0.087-2.1-0.269-3.438-0.881-5.9-3.762-6.269-7.25-0.406-0.044-0.806-0.119-1.2-0.219-4.487-1.15-7.2-5.744-6.044-10.231 0.887-3.438 3.763-5.9 7.25-6.263 0.044-0.406 0.119-0.806 0.219-1.2 0.956-3.725 4.3-6.319 8.131-6.319 0.706 0 1.413 0.087 2.1 0.269 3.438 0.887 5.9 3.763 6.262 7.25 0.406 0.044 0.806 0.119 1.2 0.219 2.175 0.563 4 1.931 5.144 3.862s1.462 4.194 0.9 6.369c-0.887 3.438-3.762 5.9-7.25 6.262-0.044 0.406-0.119 0.806-0.219 1.206-0.95 3.712-4.294 6.313-8.125 6.313v0 0zM8.794 8.15l0.119 0.613-0.694 0.031c-3.194 0.137-5.875 2.313-6.675 5.412-0.994 3.85 1.337 7.794 5.188 8.781 0.487 0.125 0.987 0.2 1.487 0.225l0.569 0.025v0.569c0.137 3.169 2.313 5.856 5.412 6.65 0.594 0.15 1.2 0.231 1.806 0.231 3.288 0 6.156-2.225 6.981-5.419 0.125-0.488 0.2-0.988 0.225-1.488l0.025-0.544 0.544-0.025c3.194-0.137 5.875-2.313 6.675-5.413 0.481-1.869 0.206-3.806-0.775-5.469-0.981-1.656-2.55-2.838-4.413-3.319-0.488-0.125-0.988-0.2-1.488-0.225l-0.544-0.025-0.025-0.544c-0.137-3.194-2.313-5.875-5.413-6.675-0.594-0.15-1.2-0.231-1.8-0.231-3.287 0-6.156 2.225-6.981 5.419-0.125 0.469-0.2 0.944-0.225 1.419v0 0z"></path>
</svg>
