<!-- Generated by IcoMoon.io -->
<svg version="1.1" xmlns="http://www.w3.org/2000/svg" width="32" height="32" viewBox="0 0 32 32">
<title>mail</title>
<path d="M16 0.125c-8.769 0-15.875 7.106-15.875 15.875s7.106 15.875 15.875 15.875 15.875-7.106 15.875-15.875-7.106-15.875-15.875-15.875zM8.063 8.063h15.875c0.281 0 0.556 0.063 0.813 0.175l-8.75 10.206-8.75-10.206c0.256-0.113 0.531-0.175 0.813-0.175v0zM6.075 21.95v-11.9c0-0.044 0-0.081 0.006-0.125l5.819 6.787-5.756 5.756c-0.044-0.169-0.063-0.337-0.069-0.519v0zM23.938 23.938h-15.875c-0.175 0-0.35-0.025-0.513-0.069l5.644-5.644 2.806 3.269 2.806-3.269 5.644 5.644c-0.163 0.044-0.337 0.069-0.512 0.069v0zM25.925 21.95c0 0.175-0.025 0.35-0.069 0.512l-5.756-5.756 5.819-6.787c0 0.044 0.006 0.081 0.006 0.125v11.906z"></path>
</svg>
