<!-- Generated by IcoMoon.io -->
<svg version="1.1" xmlns="http://www.w3.org/2000/svg" width="32" height="32" viewBox="0 0 32 32">
<title>minus-square-o</title>
<path d="M26.181 15.275v1.456c0 0.406-0.319 0.725-0.725 0.725h-18.913c-0.406 0-0.725-0.319-0.725-0.725v-1.456c0-0.406 0.319-0.725 0.725-0.725h18.906c0.413-0.006 0.731 0.313 0.731 0.725v0zM29.094 25.456v-18.913c0-2-1.637-3.638-3.637-3.638h-18.913c-2 0-3.638 1.638-3.638 3.638v18.906c0 2 1.638 3.637 3.638 3.637h18.906c2.006 0.006 3.644-1.631 3.644-3.631zM32 6.544v18.906c0 3.613-2.931 6.544-6.544 6.544h-18.913c-3.612 0.006-6.544-2.925-6.544-6.538v-18.913c0-3.612 2.931-6.544 6.544-6.544h18.906c3.619 0 6.55 2.931 6.55 6.544v0z"></path>
</svg>
