<!-- Generated by IcoMoon.io -->
<svg version="1.1" xmlns="http://www.w3.org/2000/svg" width="32" height="32" viewBox="0 0 32 32">
<title>pencil</title>
<path d="M7.787 29.194l1.906-1.906-4.925-4.925-1.906 1.906v2.244h2.681v2.681h2.244zM18.75 9.744c0-0.275-0.188-0.463-0.462-0.463-0.125 0-0.25 0.044-0.356 0.144l-11.356 11.363c-0.106 0.106-0.144 0.231-0.144 0.356 0 0.275 0.188 0.462 0.463 0.462 0.125 0 0.25-0.044 0.356-0.144l11.356-11.356c0.1-0.113 0.144-0.238 0.144-0.363v0zM17.619 5.719l8.719 8.719-17.438 17.438h-8.719v-8.719l17.438-17.438zM31.931 7.731c0 0.712-0.294 1.406-0.775 1.888l-3.481 3.481-8.713-8.719 3.475-3.462c0.481-0.5 1.175-0.794 1.887-0.794s1.406 0.294 1.906 0.794l4.925 4.906c0.481 0.506 0.775 1.194 0.775 1.906v0z"></path>
</svg>
