<!-- Generated by IcoMoon.io -->
<svg version="1.1" xmlns="http://www.w3.org/2000/svg" width="32" height="32" viewBox="0 0 32 32">
<title>places</title>
<path d="M16 0.125c-7.012 0-12.7 5.688-12.7 12.7 0 9.425 12.7 19.050 12.7 19.050s12.7-9.594 12.7-19.050c0-7.013-5.688-12.7-12.7-12.7v0zM16 27.887c0 0-9.525-7.094-9.525-15.063 0-5.263 4.263-9.525 9.525-9.525s9.525 4.263 9.525 9.525c0 7.988-9.525 15.063-9.525 15.063zM16 9.65c1.75 0 3.175 1.425 3.175 3.175 0 1.756-1.425 3.175-3.175 3.175-1.756 0-3.175-1.419-3.175-3.175 0-1.75 1.419-3.175 3.175-3.175z"></path>
</svg>
