<!-- Generated by IcoMoon.io -->
<svg version="1.1" xmlns="http://www.w3.org/2000/svg" width="32" height="32" viewBox="0 0 32 32">
<title>play-video</title>
<path d="M31.856 1.931c-10.581 0-21.169 0-31.75 0 0 7.8 0 15.6 0 23.4 4.144 0 8.281 0 12.425 0-0.463 1.587-0.919 3.181-1.381 4.775 3.219 0 6.444 0 9.662 0-0.462-1.587-0.919-3.181-1.381-4.775 4.144 0 8.281 0 12.425 0 0-7.8 0-15.6 0-23.4v0zM29.094 21.988c-8.738 0-17.488 0-26.225 0 0-5.725 0-11.463 0-17.188 8.744 0 17.488 0 26.225 0 0 5.731 0 11.463 0 17.188zM12.762 19.6l6.9-5.725-6.9-5.731v11.456z"></path>
</svg>
