<!-- Generated by IcoMoon.io -->
<svg version="1.1" xmlns="http://www.w3.org/2000/svg" width="32" height="32" viewBox="0 0 32 32">
<title>plus</title>
<path d="M31.881 13.819v4.331c0 1.194-0.969 2.163-2.163 2.163h-9.381v9.381c0 1.194-0.969 2.163-2.163 2.163h-4.331c-1.194 0-2.162-0.969-2.162-2.163v-9.381h-9.381c-1.194 0-2.163-0.969-2.163-2.163v-4.331c0-1.194 0.969-2.162 2.163-2.162h9.381v-9.387c0-1.194 0.969-2.163 2.162-2.163h4.331c1.194 0 2.163 0.969 2.163 2.163v9.381h9.381c1.194 0 2.163 0.975 2.163 2.169v0z"></path>
</svg>
