<!-- Generated by IcoMoon.io -->
<svg version="1.1" xmlns="http://www.w3.org/2000/svg" width="32" height="32" viewBox="0 0 32 32">
<title>print</title>
<path d="M7.463 28.212h17.1v-4.887h-17.1v4.887zM7.463 16h17.1v-7.325h-3.050c-1.012 0-1.831-0.819-1.831-1.831v-3.056h-12.219v12.212zM29.444 17.219c0-0.669-0.556-1.219-1.219-1.219-0.669 0-1.219 0.556-1.219 1.219 0 0.669 0.556 1.219 1.219 1.219 0.669 0.006 1.219-0.55 1.219-1.219zM31.887 17.219v7.938c0 0.325-0.288 0.613-0.613 0.613h-4.275v3.050c0 1.012-0.819 1.831-1.831 1.831h-18.313c-1.013 0-1.831-0.819-1.831-1.831v-3.050h-4.275c-0.325 0-0.613-0.288-0.613-0.613v-7.938c0-2.006 1.663-3.662 3.662-3.662h1.219v-10.381c0-1.013 0.819-1.831 1.831-1.831h12.825c1.012 0 2.406 0.575 3.131 1.3l2.9 2.9c0.725 0.725 1.3 2.119 1.3 3.131v4.887h1.219c2.006-0.006 3.663 1.656 3.663 3.656v0z"></path>
</svg>
