<!-- Generated by IcoMoon.io -->
<svg version="1.1" xmlns="http://www.w3.org/2000/svg" width="32" height="32" viewBox="0 0 32 32">
<title>search</title>
<path d="M17.275 23.482l6.2-6.2 1.551 1.551-6.2 6.2-1.551-1.551z"></path>
<path d="M17.276 18.834l1.551-1.551 3.098 3.098-1.551 1.551-3.098-3.098z"></path>
<path d="M18.825 3.337c-4.281-4.281-11.219-4.281-15.5 0s-4.281 11.219 0 15.5c4.281 4.281 11.219 4.281 15.5 0s4.281-11.219 0-15.5zM6.494 18.538c-0.569-0.35-1.119-0.756-1.612-1.25-3.431-3.425-3.431-8.975-0.006-12.4 0.494-0.494 1.044-0.9 1.612-1.25v14.9zM17.275 17.288v0c-2.331 2.331-5.631 3.038-8.588 2.194v-16.788c2.956-0.837 6.263-0.138 8.588 2.194 3.425 3.425 3.425 8.975 0 12.4z"></path>
<path d="M31.225 26.587l-6.975-6.975c-0.856-0.856-2.244-0.856-3.1 0l-1.55 1.55c-0.856 0.856-0.856 2.244 0 3.1l6.975 6.975c0.856 0.856 2.244 0.856 3.1 0l1.55-1.55c0.856-0.856 0.856-2.244 0-3.1zM28.125 29.688l-6.975-6.975 1.55-1.55 6.975 6.975-1.55 1.55z"></path>
</svg>
