<!-- Generated by IcoMoon.io -->
<svg version="1.1" xmlns="http://www.w3.org/2000/svg" width="32" height="32" viewBox="0 0 32 32">
<title>share</title>
<path d="M15.9 15.95c0.050 0 0.1 0 0.15 0 0 0.050 0 0.1 0 0.15-0.050 0-0.1 0-0.15 0 0-0.050 0-0.1 0-0.15v0zM15.95 16c0 0.019 0 0.031 0 0.050 0.019 0 0.031 0 0.050 0 0-0.019 0-0.031 0-0.050-0.019 0-0.031 0-0.050 0v0zM27.65 10c0-0.019 0-0.031 0-0.050 0.1 0 0.2 0 0.3 0 0-0.019 0-0.031 0-0.050 0.081 0 0.169 0 0.25 0 0-0.019 0-0.031 0-0.050 0.050 0 0.1 0 0.15 0 0-0.019 0-0.031 0-0.050 0.069 0 0.131 0 0.2 0 0-0.019 0-0.031 0-0.050 0.031 0 0.069 0 0.1 0 0-0.019 0-0.031 0-0.050 0.050 0 0.1 0 0.15 0 0-0.019 0-0.031 0-0.050 0.050 0 0.1 0 0.15 0 0-0.019 0-0.031 0-0.050 0.031 0 0.069 0 0.1 0 0-0.019 0-0.031 0-0.050 0.031 0 0.069 0 0.1 0 0-0.019 0-0.031 0-0.050 0.031 0 0.069 0 0.1 0 0-0.019 0-0.031 0-0.050 0.031 0 0.069 0 0.1 0 0-0.019 0-0.031 0-0.050 0.031 0 0.069 0 0.1 0 0-0.019 0-0.031 0-0.050 0.019 0 0.031 0 0.050 0 0-0.019 0-0.031 0-0.050 0.031 0 0.069 0 0.1 0 0-0.019 0-0.031 0-0.050 0.031 0 0.069 0 0.1 0 0-0.019 0-0.031 0-0.050 0.019 0 0.031 0 0.050 0 0-0.019 0-0.031 0-0.050 0.031 0 0.069 0 0.1 0 0-0.019 0-0.031 0-0.050 0.019 0 0.031 0 0.050 0 0-0.019 0-0.031 0-0.050 0.019 0 0.031 0 0.050 0 0-0.019 0-0.031 0-0.050 0.031 0 0.069 0 0.1 0 0-0.019 0-0.031 0-0.050 0.019 0 0.031 0 0.050 0 0-0.019 0-0.031 0-0.050 0.019 0 0.031 0 0.050 0 0-0.019 0-0.031 0-0.050 0.019 0 0.031 0 0.050 0 0-0.019 0-0.031 0-0.050 0.031 0 0.069 0 0.1 0 0-0.019 0-0.031 0-0.050 0.019 0 0.031 0 0.050 0 0-0.019 0-0.031 0-0.050 0.019 0 0.031 0 0.050 0 0-0.019 0-0.031 0-0.050 0.019 0 0.031 0 0.050 0 0-0.019 0-0.031 0-0.050 0.019 0 0.031 0 0.050 0 0-0.019 0-0.031 0-0.050 0.019 0 0.031 0 0.050 0 0-0.019 0-0.031 0-0.050 0.019 0 0.031 0 0.050 0 0-0.019 0-0.031 0-0.050 0.019 0 0.031 0 0.050 0 0-0.019 0-0.031 0-0.050 0.019 0 0.031 0 0.050 0 0-0.019 0-0.031 0-0.050 0.019 0 0.031 0 0.050 0 0-0.031 0-0.069 0-0.1 0.019 0 0.031 0 0.050 0 0-0.019 0-0.031 0-0.050 0.019 0 0.031 0 0.050 0 0-0.019 0-0.031 0-0.050 0.019 0 0.031 0 0.050 0 0-0.019 0-0.031 0-0.050 0.019 0 0.031 0 0.050 0 0-0.031 0-0.069 0-0.1 0.019 0 0.031 0 0.050 0 0-0.019 0-0.031 0-0.050 0.019 0 0.031 0 0.050 0 0-0.019 0-0.031 0-0.050 0.019 0 0.031 0 0.050 0 0-0.031 0-0.069 0-0.1 0.019 0 0.031 0 0.050 0 0-0.019 0-0.031 0-0.050 0.019 0 0.031 0 0.050 0 0-0.031 0-0.069 0-0.1 0.019 0 0.031 0 0.050 0 0-0.031 0-0.069 0-0.1 0.019 0 0.031 0 0.050 0 0-0.019 0-0.031 0-0.050 0.019 0 0.031 0 0.050 0 0-0.031 0-0.069 0-0.1 0.019 0 0.031 0 0.050 0 0-0.031 0-0.069 0-0.1 0.019 0 0.031 0 0.050 0 0-0.031 0-0.069 0-0.1 0.019 0 0.031 0 0.050 0 0-0.031 0-0.069 0-0.1 0.019 0 0.031 0 0.050 0 0-0.050 0-0.1 0-0.15 0.019 0 0.031 0 0.050 0 0-0.031 0-0.069 0-0.1 0.019 0 0.031 0 0.050 0 0-0.050 0-0.1 0-0.15 0.019 0 0.031 0 0.050 0 0-0.050 0-0.1 0-0.15 0.019 0 0.031 0 0.050 0 0-0.050 0-0.1 0-0.15 0.019 0 0.031 0 0.050 0 0-0.069 0-0.131 0-0.2 0.019 0 0.031 0 0.050 0 0-0.069 0-0.131 0-0.2 0.019 0 0.031 0 0.050 0 0-0.119 0-0.231 0-0.35 0.019 0 0.031 0 0.050 0 0-0.419 0-0.831 0-1.25-0.019 0-0.031 0-0.050 0 0-0.119 0-0.231 0-0.35-0.019 0-0.031 0-0.050 0 0-0.069 0-0.131 0-0.2-0.019 0-0.031 0-0.050 0 0-0.069 0-0.131 0-0.2-0.019 0-0.031 0-0.050 0 0-0.050 0-0.1 0-0.15-0.019 0-0.031 0-0.050 0 0-0.050 0-0.1 0-0.15-0.019 0-0.031 0-0.050 0 0-0.050 0-0.1 0-0.15-0.019 0-0.031 0-0.050 0 0-0.050 0-0.1 0-0.15-0.019 0-0.031 0-0.050 0 0-0.031 0-0.069 0-0.1-0.019 0-0.031 0-0.050 0 0-0.031 0-0.069 0-0.1-0.019 0-0.031 0-0.050 0 0-0.031 0-0.069 0-0.1-0.019 0-0.031 0-0.050 0 0-0.031 0-0.069 0-0.1-0.019 0-0.031 0-0.050 0 0-0.031 0-0.069 0-0.1-0.019 0-0.031 0-0.050 0 0-0.019 0-0.031 0-0.050-0.019 0-0.031 0-0.050 0 0-0.031 0-0.069 0-0.1-0.019 0-0.031 0-0.050 0 0-0.031 0-0.069 0-0.1-0.019 0-0.031 0-0.050 0 0-0.019 0-0.031 0-0.050-0.019 0-0.031 0-0.050 0 0-0.031 0-0.069 0-0.1-0.019 0-0.031 0-0.050 0 0-0.019 0-0.031 0-0.050-0.019 0-0.031 0-0.050 0 0-0.019 0-0.031 0-0.050-0.019 0-0.031 0-0.050 0 0-0.031 0-0.069 0-0.1-0.019 0-0.031 0-0.050 0 0-0.019 0-0.031 0-0.050-0.019 0-0.031 0-0.050 0 0-0.019 0-0.031 0-0.050-0.019 0-0.031 0-0.050 0 0-0.019 0-0.031 0-0.050-0.019 0-0.031 0-0.050 0 0-0.031 0-0.069 0-0.1-0.019 0-0.031 0-0.050 0 0-0.019 0-0.031 0-0.050-0.019 0-0.031 0-0.050 0 0-0.019 0-0.031 0-0.050-0.019 0-0.031 0-0.050 0 0-0.019 0-0.031 0-0.050-0.019 0-0.031 0-0.050 0 0-0.019 0-0.031 0-0.050-0.019 0-0.031 0-0.050 0 0-0.019 0-0.031 0-0.050-0.019 0-0.031 0-0.050 0 0-0.019 0-0.031 0-0.050-0.019 0-0.031 0-0.050 0 0-0.019 0-0.031 0-0.050-0.019 0-0.031 0-0.050 0 0-0.019 0-0.031 0-0.050-0.019 0-0.031 0-0.050 0 0-0.019 0-0.031 0-0.050-0.019 0-0.031 0-0.050 0 0-0.019 0-0.031 0-0.050-0.031 0-0.069 0-0.1 0 0-0.019 0-0.031 0-0.050-0.019 0-0.031 0-0.050 0 0-0.019 0-0.031 0-0.050-0.019 0-0.031 0-0.050 0 0-0.019 0-0.031 0-0.050-0.019 0-0.031 0-0.050 0 0-0.019 0-0.031 0-0.050-0.031 0-0.069 0-0.1 0 0-0.019 0-0.031 0-0.050-0.019 0-0.031 0-0.050 0 0-0.019 0-0.031 0-0.050-0.031 0-0.069 0-0.1 0 0-0.019 0-0.031 0-0.050-0.019 0-0.031 0-0.050 0 0-0.019 0-0.031 0-0.050-0.031 0-0.069 0-0.1 0 0-0.019 0-0.031 0-0.050-0.019 0-0.031 0-0.050 0 0-0.019 0-0.031 0-0.050-0.031 0-0.069 0-0.1 0 0-0.019 0-0.031 0-0.050-0.031 0-0.069 0-0.1 0 0-0.019 0-0.031 0-0.050-0.031 0-0.069 0-0.1 0 0-0.019 0-0.031 0-0.050-0.031 0-0.069 0-0.1 0 0-0.019 0-0.031 0-0.050-0.031 0-0.069 0-0.1 0 0-0.019 0-0.031 0-0.050-0.031 0-0.069 0-0.1 0 0-0.019 0-0.031 0-0.050-0.050 0-0.1 0-0.15 0 0-0.019 0-0.031 0-0.050-0.031 0-0.069 0-0.1 0 0-0.019 0-0.031 0-0.050-0.050 0-0.1 0-0.15 0 0-0.019 0-0.031 0-0.050-0.050 0-0.1 0-0.15 0 0-0.019 0-0.031 0-0.050-0.069 0-0.131 0-0.2 0 0-0.019 0-0.031 0-0.050-0.069 0-0.131 0-0.2 0 0-0.019 0-0.031 0-0.050-0.1 0-0.2 0-0.3 0 0-0.019 0-0.031 0-0.050-0.2 0-0.4 0-0.6 0 0-0.019 0-0.031 0-0.050-0.081 0-0.169 0-0.25 0 0 0.019 0 0.031 0 0.050-0.2 0-0.4 0-0.6 0 0 0.019 0 0.031 0 0.050-0.1 0-0.2 0-0.3 0 0 0.019 0 0.031 0 0.050-0.069 0-0.131 0-0.2 0 0 0.019 0 0.031 0 0.050-0.069 0-0.131 0-0.2 0 0 0.019 0 0.031 0 0.050-0.050 0-0.1 0-0.15 0 0 0.019 0 0.031 0 0.050-0.050 0-0.1 0-0.15 0 0 0.019 0 0.031 0 0.050-0.050 0-0.1 0-0.15 0 0 0.019 0 0.031 0 0.050-0.031 0-0.069 0-0.1 0 0 0.019 0 0.031 0 0.050-0.031 0-0.069 0-0.1 0 0 0.019 0 0.031 0 0.050-0.050 0-0.1 0-0.15 0 0 0.019 0 0.031 0 0.050-0.031 0-0.069 0-0.1 0 0 0.019 0 0.031 0 0.050-0.019 0-0.031 0-0.050 0 0 0.019 0 0.031 0 0.050-0.031 0-0.069 0-0.1 0 0 0.019 0 0.031 0 0.050-0.031 0-0.069 0-0.1 0 0 0.019 0 0.031 0 0.050-0.031 0-0.069 0-0.1 0 0 0.019 0 0.031 0 0.050-0.019 0-0.031 0-0.050 0 0 0.019 0 0.031 0 0.050-0.031 0-0.069 0-0.1 0 0 0.019 0 0.031 0 0.050-0.019 0-0.031 0-0.050 0 0 0.019 0 0.031 0 0.050-0.019 0-0.031 0-0.050 0 0 0.019 0 0.031 0 0.050-0.031 0-0.069 0-0.1 0 0 0.019 0 0.031 0 0.050-0.019 0-0.031 0-0.050 0 0 0.019 0 0.031 0 0.050-0.019 0-0.031 0-0.050 0 0 0.019 0 0.031 0 0.050-0.031 0-0.069 0-0.1 0 0 0.019 0 0.031 0 0.050-0.019 0-0.031 0-0.050 0 0 0.019 0 0.031 0 0.050-0.019 0-0.031 0-0.050 0 0 0.019 0 0.031 0 0.050-0.019 0-0.031 0-0.050 0 0 0.019 0 0.031 0 0.050-0.019 0-0.031 0-0.050 0 0 0.019 0 0.031 0 0.050-0.019 0-0.031 0-0.050 0 0 0.019 0 0.031 0 0.050-0.019 0-0.031 0-0.050 0 0 0.019 0 0.031 0 0.050-0.019 0-0.031 0-0.050 0 0 0.019 0 0.031 0 0.050-0.019 0-0.031 0-0.050 0 0 0.019 0 0.031 0 0.050-0.019 0-0.031 0-0.050 0 0 0.019 0 0.031 0 0.050-0.019 0-0.031 0-0.050 0 0 0.019 0 0.031 0 0.050-0.019 0-0.031 0-0.050 0 0 0.019 0 0.031 0 0.050-0.019 0-0.031 0-0.050 0 0 0.019 0 0.031 0 0.050-0.019 0-0.031 0-0.050 0 0 0.031 0 0.069 0 0.1-0.019 0-0.031 0-0.050 0 0 0.019 0 0.031 0 0.050-0.019 0-0.031 0-0.050 0 0 0.019 0 0.031 0 0.050-0.019 0-0.031 0-0.050 0 0 0.019 0 0.031 0 0.050-0.019 0-0.031 0-0.050 0 0 0.031 0 0.069 0 0.1-0.019 0-0.031 0-0.050 0 0 0.019 0 0.031 0 0.050-0.019 0-0.031 0-0.050 0 0 0.031 0 0.069 0 0.1-0.019 0-0.031 0-0.050 0 0 0.019 0 0.031 0 0.050-0.019 0-0.031 0-0.050 0 0 0.031 0 0.069 0 0.1-0.019 0-0.031 0-0.050 0 0 0.031 0 0.069 0 0.1-0.019 0-0.031 0-0.050 0 0 0.019 0 0.031 0 0.050-0.019 0-0.031 0-0.050 0 0 0.031 0 0.069 0 0.1-0.019 0-0.031 0-0.050 0 0 0.031 0 0.069 0 0.1-0.019 0-0.031 0-0.050 0 0 0.031 0 0.069 0 0.1-0.019 0-0.031 0-0.050 0 0 0.050 0 0.1 0 0.15-0.019 0-0.031 0-0.050 0 0 0.031 0 0.069 0 0.1-0.019 0-0.031 0-0.050 0 0 0.050 0 0.1 0 0.15-0.019 0-0.031 0-0.050 0 0 0.031 0 0.069 0 0.1-0.019 0-0.031 0-0.050 0 0 0.069 0 0.131 0 0.2-0.019 0-0.031 0-0.050 0 0 0.050 0 0.1 0 0.15-0.019 0-0.031 0-0.050 0 0 0.081 0 0.169 0 0.25-0.019 0-0.031 0-0.050 0 0 0.081 0 0.169 0 0.25-0.019 0-0.031 0-0.050 0 0 0.169 0 0.331 0 0.5-0.019 0-0.031 0-0.050 0 0 0.181 0 0.369 0 0.55 0.019 0 0.031 0 0.050 0 0 0.181 0 0.369 0 0.55-0.031 0-0.069 0-0.1 0 0 0.019 0 0.031 0 0.050-0.031 0-0.069 0-0.1 0 0 0.019 0 0.031 0 0.050-0.031 0-0.069 0-0.1 0 0 0.019 0 0.031 0 0.050-0.031 0-0.069 0-0.1 0 0 0.019 0 0.031 0 0.050-0.031 0-0.069 0-0.1 0 0 0.019 0 0.031 0 0.050-0.031 0-0.069 0-0.1 0 0 0.019 0 0.031 0 0.050-0.031 0-0.069 0-0.1 0 0 0.019 0 0.031 0 0.050-0.031 0-0.069 0-0.1 0 0 0.019 0 0.031 0 0.050-0.031 0-0.069 0-0.1 0 0 0.019 0 0.031 0 0.050-0.031 0-0.069 0-0.1 0 0 0.019 0 0.031 0 0.050-0.031 0-0.069 0-0.1 0 0 0.019 0 0.031 0 0.050-0.031 0-0.069 0-0.1 0 0 0.019 0 0.031 0 0.050-0.031 0-0.069 0-0.1 0 0 0.019 0 0.031 0 0.050-0.031 0-0.069 0-0.1 0 0 0.019 0 0.031 0 0.050-0.031 0-0.069 0-0.1 0 0 0.019 0 0.031 0 0.050-0.031 0-0.069 0-0.1 0 0 0.019 0 0.031 0 0.050-0.031 0-0.069 0-0.1 0 0 0.019 0 0.031 0 0.050-0.031 0-0.069 0-0.1 0 0 0.019 0 0.031 0 0.050-0.031 0-0.069 0-0.1 0 0 0.019 0 0.031 0 0.050-0.031 0-0.069 0-0.1 0 0 0.019 0 0.031 0 0.050-0.031 0-0.069 0-0.1 0 0 0.019 0 0.031 0 0.050-0.031 0-0.069 0-0.1 0 0 0.019 0 0.031 0 0.050-0.031 0-0.069 0-0.1 0 0 0.019 0 0.031 0 0.050-0.031 0-0.069 0-0.1 0 0 0.019 0 0.031 0 0.050-0.031 0-0.069 0-0.1 0 0 0.019 0 0.031 0 0.050-0.031 0-0.069 0-0.1 0 0 0.019 0 0.031 0 0.050-0.031 0-0.069 0-0.1 0 0 0.019 0 0.031 0 0.050-0.031 0-0.069 0-0.1 0 0 0.019 0 0.031 0 0.050-0.031 0-0.069 0-0.1 0 0 0.019 0 0.031 0 0.050-0.031 0-0.069 0-0.1 0 0 0.019 0 0.031 0 0.050-0.031 0-0.069 0-0.1 0 0 0.019 0 0.031 0 0.050-0.031 0-0.069 0-0.1 0 0 0.019 0 0.031 0 0.050-0.031 0-0.069 0-0.1 0 0 0.019 0 0.031 0 0.050-0.031 0-0.069 0-0.1 0 0 0.019 0 0.031 0 0.050-0.031 0-0.069 0-0.1 0 0 0.019 0 0.031 0 0.050-0.031 0-0.069 0-0.1 0 0 0.019 0 0.031 0 0.050-0.031 0-0.069 0-0.1 0 0 0.019 0 0.031 0 0.050-0.031 0-0.069 0-0.1 0 0 0.019 0 0.031 0 0.050-0.031 0-0.069 0-0.1 0 0 0.019 0 0.031 0 0.050-0.031 0-0.069 0-0.1 0 0 0.019 0 0.031 0 0.050-0.031 0-0.069 0-0.1 0 0 0.019 0 0.031 0 0.050-0.031 0-0.069 0-0.1 0 0 0.019 0 0.031 0 0.050-0.031 0-0.069 0-0.1 0 0 0.019 0 0.031 0 0.050-0.031 0-0.069 0-0.1 0 0 0.019 0 0.031 0 0.050-0.031 0-0.069 0-0.1 0 0 0.019 0 0.031 0 0.050-0.031 0-0.069 0-0.1 0 0 0.019 0 0.031 0 0.050-0.031 0-0.069 0-0.1 0 0 0.019 0 0.031 0 0.050-0.031 0-0.069 0-0.1 0 0 0.019 0 0.031 0 0.050-0.031 0-0.069 0-0.1 0 0 0.019 0 0.031 0 0.050-0.031 0-0.069 0-0.1 0 0 0.019 0 0.031 0 0.050-0.031 0-0.069 0-0.1 0 0 0.019 0 0.031 0 0.050-0.031 0-0.069 0-0.1 0 0 0.019 0 0.031 0 0.050-0.031 0-0.069 0-0.1 0 0 0.019 0 0.031 0 0.050-0.031 0-0.069 0-0.1 0 0 0.019 0 0.031 0 0.050-0.031 0-0.069 0-0.1 0 0 0.019 0 0.031 0 0.050-0.031 0-0.069 0-0.1 0 0 0.019 0 0.031 0 0.050-0.031 0-0.069 0-0.1 0 0 0.019 0 0.031 0 0.050-0.031 0-0.069 0-0.1 0 0 0.019 0 0.031 0 0.050-0.031 0-0.069 0-0.1 0 0 0.019 0 0.031 0 0.050-0.031 0-0.069 0-0.1 0 0 0.019 0 0.031 0 0.050-0.031 0-0.069 0-0.1 0 0 0.019 0 0.031 0 0.050-0.031 0-0.069 0-0.1 0 0 0.019 0 0.031 0 0.050-0.031 0-0.069 0-0.1 0 0 0.019 0 0.031 0 0.050-0.031 0-0.069 0-0.1 0 0 0.019 0 0.031 0 0.050-0.031 0-0.069 0-0.1 0 0 0.019 0 0.031 0 0.050-0.031 0-0.069 0-0.1 0 0 0.019 0 0.031 0 0.050-0.031 0-0.069 0-0.1 0 0 0.019 0 0.031 0 0.050-0.031 0-0.069 0-0.1 0 0 0.019 0 0.031 0 0.050-0.031 0-0.069 0-0.1 0 0 0.019 0 0.031 0 0.050-0.031 0-0.069 0-0.1 0 0 0.019 0 0.031 0 0.050-0.031 0-0.069 0-0.1 0 0 0.019 0 0.031 0 0.050-0.031 0-0.069 0-0.1 0 0 0.019 0 0.031 0 0.050-0.031 0-0.069 0-0.1 0 0 0.019 0 0.031 0 0.050-0.031 0-0.069 0-0.1 0 0 0.019 0 0.031 0 0.050-0.031 0-0.069 0-0.1 0 0 0.019 0 0.031 0 0.050-0.031 0-0.069 0-0.1 0 0 0.019 0 0.031 0 0.050-0.031 0-0.069 0-0.1 0 0 0.019 0 0.031 0 0.050-0.031 0-0.069 0-0.1 0 0 0.019 0 0.031 0 0.050-0.031 0-0.069 0-0.1 0 0 0.019 0 0.031 0 0.050-0.031 0-0.069 0-0.1 0 0 0.019 0 0.031 0 0.050-0.031 0-0.069 0-0.1 0 0 0.019 0 0.031 0 0.050-0.031 0-0.069 0-0.1 0 0 0.019 0 0.031 0 0.050-0.031 0-0.069 0-0.1 0 0 0.019 0 0.031 0 0.050-0.031 0-0.069 0-0.1 0 0 0.019 0 0.031 0 0.050-0.031 0-0.069 0-0.1 0 0 0.019 0 0.031 0 0.050-0.031 0-0.069 0-0.1 0 0 0.019 0 0.031 0 0.050-0.031 0-0.069 0-0.1 0 0 0.019 0 0.031 0 0.050-0.031 0-0.069 0-0.1 0 0 0.019 0 0.031 0 0.050-0.031 0-0.069 0-0.1 0 0 0.019 0 0.031 0 0.050-0.031 0-0.069 0-0.1 0 0 0.019 0 0.031 0 0.050-0.031 0-0.069 0-0.1 0 0 0.019 0 0.031 0 0.050-0.031 0-0.069 0-0.1 0 0 0.019 0 0.031 0 0.050-0.031 0-0.069 0-0.1 0 0 0.019 0 0.031 0 0.050-0.031 0-0.069 0-0.1 0 0 0.019 0 0.031 0 0.050-0.031 0-0.069 0-0.1 0 0 0.019 0 0.031 0 0.050-0.031 0-0.069 0-0.1 0 0 0.019 0 0.031 0 0.050-0.031 0-0.069 0-0.1 0 0 0.019 0 0.031 0 0.050-0.031 0-0.069 0-0.1 0 0 0.019 0 0.031 0 0.050-0.031 0-0.069 0-0.1 0 0 0.019 0 0.031 0 0.050-0.031 0-0.069 0-0.1 0 0 0.019 0 0.031 0 0.050-0.031 0-0.069 0-0.1 0 0 0.019 0 0.031 0 0.050-0.031 0-0.069 0-0.1 0 0 0.019 0 0.031 0 0.050-0.031 0-0.069 0-0.1 0 0 0.019 0 0.031 0 0.050-0.031 0-0.069 0-0.1 0 0 0.019 0 0.031 0 0.050-0.031 0-0.069 0-0.1 0 0 0.019 0 0.031 0 0.050-0.031 0-0.069 0-0.1 0 0 0.019 0 0.031 0 0.050-0.031 0-0.069 0-0.1 0 0 0.019 0 0.031 0 0.050-0.031 0-0.069 0-0.1 0 0 0.019 0 0.031 0 0.050-0.031 0-0.069 0-0.1 0 0 0.019 0 0.031 0 0.050-0.031 0-0.069 0-0.1 0 0 0.019 0 0.031 0 0.050-0.031 0-0.069 0-0.1 0 0 0.019 0 0.031 0 0.050-0.031 0-0.069 0-0.1 0 0 0.019 0 0.031 0 0.050-0.031 0-0.069 0-0.1 0 0 0.019 0 0.031 0 0.050-0.031 0-0.069 0-0.1 0 0 0.019 0 0.031 0 0.050-0.031 0-0.069 0-0.1 0 0 0.019 0 0.031 0 0.050-0.031 0-0.069 0-0.1 0 0 0.019 0 0.031 0 0.050-0.031 0-0.069 0-0.1 0 0 0.019 0 0.031 0 0.050-0.031 0-0.069 0-0.1 0 0 0.019 0 0.031 0 0.050-0.031 0-0.069 0-0.1 0 0 0.019 0 0.031 0 0.050-0.031 0-0.069 0-0.1 0 0 0.019 0 0.031 0 0.050-0.031 0-0.069 0-0.1 0 0 0.019 0 0.031 0 0.050-0.031 0-0.069 0-0.1 0 0 0.019 0 0.031 0 0.050-0.031 0-0.069 0-0.1 0 0 0.019 0 0.031 0 0.050-0.031 0-0.069 0-0.1 0 0 0.019 0 0.031 0 0.050-0.031 0-0.069 0-0.1 0 0 0.019 0 0.031 0 0.050-0.031 0-0.069 0-0.1 0 0 0.019 0 0.031 0 0.050-0.031 0-0.069 0-0.1 0 0 0.019 0 0.031 0 0.050-0.031 0-0.069 0-0.1 0 0 0.019 0 0.031 0 0.050-0.031 0-0.069 0-0.1 0 0 0.019 0 0.031 0 0.050-0.031 0-0.069 0-0.1 0 0 0.019 0 0.031 0 0.050-0.031 0-0.069 0-0.1 0 0 0.019 0 0.031 0 0.050-0.031 0-0.069 0-0.1 0 0 0.019 0 0.031 0 0.050-0.031 0-0.069 0-0.1 0 0 0.019 0 0.031 0 0.050-0.031 0-0.069 0-0.1 0 0 0.019 0 0.031 0 0.050-0.019 0-0.031 0-0.050 0 0-0.019 0-0.031 0-0.050-0.019 0-0.031 0-0.050 0 0-0.019 0-0.031 0-0.050-0.019 0-0.031 0-0.050 0 0-0.019 0-0.031 0-0.050-0.019 0-0.031 0-0.050 0 0-0.019 0-0.031 0-0.050-0.019 0-0.031 0-0.050 0 0-0.019 0-0.031 0-0.050-0.019 0-0.031 0-0.050 0 0-0.019 0-0.031 0-0.050-0.019 0-0.031 0-0.050 0 0-0.019 0-0.031 0-0.050-0.019 0-0.031 0-0.050 0 0-0.019 0-0.031 0-0.050-0.031 0-0.069 0-0.1 0 0-0.019 0-0.031 0-0.050-0.019 0-0.031 0-0.050 0 0-0.019 0-0.031 0-0.050-0.019 0-0.031 0-0.050 0 0-0.019 0-0.031 0-0.050-0.031 0-0.069 0-0.1 0 0-0.019 0-0.031 0-0.050-0.019 0-0.031 0-0.050 0 0-0.019 0-0.031 0-0.050-0.019 0-0.031 0-0.050 0 0-0.019 0-0.031 0-0.050-0.031 0-0.069 0-0.1 0 0-0.019 0-0.031 0-0.050-0.031 0-0.069 0-0.1 0 0-0.019 0-0.031 0-0.050-0.019 0-0.031 0-0.050 0 0-0.019 0-0.031 0-0.050-0.031 0-0.069 0-0.1 0 0-0.019 0-0.031 0-0.050-0.031 0-0.069 0-0.1 0 0-0.019 0-0.031 0-0.050-0.019 0-0.031 0-0.050 0 0-0.019 0-0.031 0-0.050-0.031 0-0.069 0-0.1 0 0-0.019 0-0.031 0-0.050-0.050 0-0.1 0-0.15 0 0-0.019 0-0.031 0-0.050-0.031 0-0.069 0-0.1 0 0-0.019 0-0.031 0-0.050-0.031 0-0.069 0-0.1 0 0-0.019 0-0.031 0-0.050-0.050 0-0.1 0-0.15 0 0-0.019 0-0.031 0-0.050-0.050 0-0.1 0-0.15 0 0-0.019 0-0.031 0-0.050-0.050 0-0.1 0-0.15 0 0-0.019 0-0.031 0-0.050-0.050 0-0.1 0-0.15 0 0-0.019 0-0.031 0-0.050-0.081 0-0.169 0-0.25 0 0-0.019 0-0.031 0-0.050-0.081 0-0.169 0-0.25 0 0-0.019 0-0.031 0-0.050-0.181 0-0.369 0-0.55 0 0-0.019 0-0.031 0-0.050-0.15 0-0.3 0-0.45 0 0 0.019 0 0.031 0 0.050-0.181 0-0.369 0-0.55 0 0 0.019 0 0.031 0 0.050-0.081 0-0.169 0-0.25 0 0 0.019 0 0.031 0 0.050-0.081 0-0.169 0-0.25 0 0 0.019 0 0.031 0 0.050-0.050 0-0.1 0-0.15 0 0 0.019 0 0.031 0 0.050-0.050 0-0.1 0-0.15 0 0 0.019 0 0.031 0 0.050-0.050 0-0.1 0-0.15 0 0 0.019 0 0.031 0 0.050-0.050 0-0.1 0-0.15 0 0 0.019 0 0.031 0 0.050-0.031 0-0.069 0-0.1 0 0 0.019 0 0.031 0 0.050-0.031 0-0.069 0-0.1 0 0 0.019 0 0.031 0 0.050-0.050 0-0.1 0-0.15 0 0 0.019 0 0.031 0 0.050-0.031 0-0.069 0-0.1 0 0 0.019 0 0.031 0 0.050-0.019 0-0.031 0-0.050 0 0 0.019 0 0.031 0 0.050-0.031 0-0.069 0-0.1 0 0 0.019 0 0.031 0 0.050-0.031 0-0.069 0-0.1 0 0 0.019 0 0.031 0 0.050-0.031 0-0.069 0-0.1 0 0 0.019 0 0.031 0 0.050-0.019 0-0.031 0-0.050 0 0 0.019 0 0.031 0 0.050-0.031 0-0.069 0-0.1 0 0 0.019 0 0.031 0 0.050-0.019 0-0.031 0-0.050 0 0 0.019 0 0.031 0 0.050-0.019 0-0.031 0-0.050 0 0 0.019 0 0.031 0 0.050-0.031 0-0.069 0-0.1 0 0 0.019 0 0.031 0 0.050-0.019 0-0.031 0-0.050 0 0 0.019 0 0.031 0 0.050-0.019 0-0.031 0-0.050 0 0 0.019 0 0.031 0 0.050-0.031 0-0.069 0-0.1 0 0 0.019 0 0.031 0 0.050-0.019 0-0.031 0-0.050 0 0 0.019 0 0.031 0 0.050-0.019 0-0.031 0-0.050 0 0 0.019 0 0.031 0 0.050-0.019 0-0.031 0-0.050 0 0 0.019 0 0.031 0 0.050-0.019 0-0.031 0-0.050 0 0 0.019 0 0.031 0 0.050-0.019 0-0.031 0-0.050 0 0 0.019 0 0.031 0 0.050-0.019 0-0.031 0-0.050 0 0 0.019 0 0.031 0 0.050-0.019 0-0.031 0-0.050 0 0 0.019 0 0.031 0 0.050-0.019 0-0.031 0-0.050 0 0 0.019 0 0.031 0 0.050-0.019 0-0.031 0-0.050 0 0 0.019 0 0.031 0 0.050-0.019 0-0.031 0-0.050 0 0 0.019 0 0.031 0 0.050-0.019 0-0.031 0-0.050 0 0 0.019 0 0.031 0 0.050-0.019 0-0.031 0-0.050 0 0 0.019 0 0.031 0 0.050-0.019 0-0.031 0-0.050 0 0 0.031 0 0.069 0 0.1-0.019 0-0.031 0-0.050 0 0 0.019 0 0.031 0 0.050-0.019 0-0.031 0-0.050 0 0 0.019 0 0.031 0 0.050-0.019 0-0.031 0-0.050 0 0 0.031 0 0.069 0 0.1-0.019 0-0.031 0-0.050 0 0 0.019 0 0.031 0 0.050-0.019 0-0.031 0-0.050 0 0 0.031 0 0.069 0 0.1-0.019 0-0.031 0-0.050 0 0 0.019 0 0.031 0 0.050-0.019 0-0.031 0-0.050 0 0 0.031 0 0.069 0 0.1-0.019 0-0.031 0-0.050 0 0 0.019 0 0.031 0 0.050-0.019 0-0.031 0-0.050 0 0 0.031 0 0.069 0 0.1-0.019 0-0.031 0-0.050 0 0 0.031 0 0.069 0 0.1-0.019 0-0.031 0-0.050 0 0 0.031 0 0.069 0 0.1-0.019 0-0.031 0-0.050 0 0 0.031 0 0.069 0 0.1-0.019 0-0.031 0-0.050 0 0 0.031 0 0.069 0 0.1-0.019 0-0.031 0-0.050 0 0 0.031 0 0.069 0 0.1-0.019 0-0.031 0-0.050 0 0 0.031 0 0.069 0 0.1-0.019 0-0.031 0-0.050 0 0 0.050 0 0.1 0 0.15-0.019 0-0.031 0-0.050 0 0 0.050 0 0.1 0 0.15-0.019 0-0.031 0-0.050 0 0 0.050 0 0.1 0 0.15-0.019 0-0.031 0-0.050 0 0 0.069 0 0.131 0 0.2-0.019 0-0.031 0-0.050 0 0 0.069 0 0.131 0 0.2-0.019 0-0.031 0-0.050 0 0 0.1 0 0.2 0 0.3-0.019 0-0.031 0-0.050 0 0 0.469 0 0.931 0 1.4 0.019 0 0.031 0 0.050 0 0 0.1 0 0.2 0 0.3 0.019 0 0.031 0 0.050 0 0 0.081 0 0.169 0 0.25 0.019 0 0.031 0 0.050 0 0 0.069 0 0.131 0 0.2 0.019 0 0.031 0 0.050 0 0 0.050 0 0.1 0 0.15 0.019 0 0.031 0 0.050 0 0 0.050 0 0.1 0 0.15 0.019 0 0.031 0 0.050 0 0 0.031 0 0.069 0 0.1 0.019 0 0.031 0 0.050 0 0 0.050 0 0.1 0 0.15 0.019 0 0.031 0 0.050 0 0 0.031 0 0.069 0 0.1 0.019 0 0.031 0 0.050 0 0 0.031 0 0.069 0 0.1 0.019 0 0.031 0 0.050 0 0 0.031 0 0.069 0 0.1 0.019 0 0.031 0 0.050 0 0 0.031 0 0.069 0 0.1 0.019 0 0.031 0 0.050 0 0 0.031 0 0.069 0 0.1 0.019 0 0.031 0 0.050 0 0 0.019 0 0.031 0 0.050 0.019 0 0.031 0 0.050 0 0 0.031 0 0.069 0 0.1 0.019 0 0.031 0 0.050 0 0 0.031 0 0.069 0 0.1 0.019 0 0.031 0 0.050 0 0 0.019 0 0.031 0 0.050 0.019 0 0.031 0 0.050 0 0 0.031 0 0.069 0 0.1 0.019 0 0.031 0 0.050 0 0 0.019 0 0.031 0 0.050 0.019 0 0.031 0 0.050 0 0 0.019 0 0.031 0 0.050 0.019 0 0.031 0 0.050 0 0 0.031 0 0.069 0 0.1 0.019 0 0.031 0 0.050 0 0 0.019 0 0.031 0 0.050 0.019 0 0.031 0 0.050 0 0 0.019 0 0.031 0 0.050 0.019 0 0.031 0 0.050 0 0 0.019 0 0.031 0 0.050 0.019 0 0.031 0 0.050 0 0 0.031 0 0.069 0 0.1 0.019 0 0.031 0 0.050 0 0 0.019 0 0.031 0 0.050 0.019 0 0.031 0 0.050 0 0 0.019 0 0.031 0 0.050 0.019 0 0.031 0 0.050 0 0 0.019 0 0.031 0 0.050 0.019 0 0.031 0 0.050 0 0 0.019 0 0.031 0 0.050 0.019 0 0.031 0 0.050 0 0 0.019 0 0.031 0 0.050 0.019 0 0.031 0 0.050 0 0 0.019 0 0.031 0 0.050 0.019 0 0.031 0 0.050 0 0 0.019 0 0.031 0 0.050 0.019 0 0.031 0 0.050 0 0 0.019 0 0.031 0 0.050 0.019 0 0.031 0 0.050 0 0 0.019 0 0.031 0 0.050 0.031 0 0.069 0 0.1 0 0 0.019 0 0.031 0 0.050 0.019 0 0.031 0 0.050 0 0 0.019 0 0.031 0 0.050 0.019 0 0.031 0 0.050 0 0 0.019 0 0.031 0 0.050 0.019 0 0.031 0 0.050 0 0 0.019 0 0.031 0 0.050 0.031 0 0.069 0 0.1 0 0 0.019 0 0.031 0 0.050 0.019 0 0.031 0 0.050 0 0 0.019 0 0.031 0 0.050 0.019 0 0.031 0 0.050 0 0 0.019 0 0.031 0 0.050 0.031 0 0.069 0 0.1 0 0 0.019 0 0.031 0 0.050 0.019 0 0.031 0 0.050 0 0 0.019 0 0.031 0 0.050 0.031 0 0.069 0 0.1 0 0 0.019 0 0.031 0 0.050 0.031 0 0.069 0 0.1 0 0 0.019 0 0.031 0 0.050 0.019 0 0.031 0 0.050 0 0 0.019 0 0.031 0 0.050 0.031 0 0.069 0 0.1 0 0 0.019 0 0.031 0 0.050 0.031 0 0.069 0 0.1 0 0 0.019 0 0.031 0 0.050 0.031 0 0.069 0 0.1 0 0 0.019 0 0.031 0 0.050 0.031 0 0.069 0 0.1 0 0 0.019 0 0.031 0 0.050 0.031 0 0.069 0 0.1 0 0 0.019 0 0.031 0 0.050 0.050 0 0.1 0 0.15 0 0 0.019 0 0.031 0 0.050 0.050 0 0.1 0 0.15 0 0 0.019 0 0.031 0 0.050 0.050 0 0.1 0 0.15 0 0 0.019 0 0.031 0 0.050 0.050 0 0.1 0 0.15 0 0 0.019 0 0.031 0 0.050 0.069 0 0.131 0 0.2 0 0 0.019 0 0.031 0 0.050 0.069 0 0.131 0 0.2 0 0 0.019 0 0.031 0 0.050 0.1 0 0.2 0 0.3 0 0 0.019 0 0.031 0 0.050 0.45 0 0.9 0 1.35 0 0-0.019 0-0.031 0-0.050 0.1 0 0.2 0 0.3 0 0-0.019 0-0.031 0-0.050 0.069 0 0.131 0 0.2 0 0-0.019 0-0.031 0-0.050 0.069 0 0.131 0 0.2 0 0-0.019 0-0.031 0-0.050 0.050 0 0.1 0 0.15 0 0-0.019 0-0.031 0-0.050 0.050 0 0.1 0 0.15 0 0-0.019 0-0.031 0-0.050 0.050 0 0.1 0 0.15 0 0-0.019 0-0.031 0-0.050 0.050 0 0.1 0 0.15 0 0-0.019 0-0.031 0-0.050 0.031 0 0.069 0 0.1 0 0-0.019 0-0.031 0-0.050 0.031 0 0.069 0 0.1 0 0-0.019 0-0.031 0-0.050 0.031 0 0.069 0 0.1 0 0-0.019 0-0.031 0-0.050 0.031 0 0.069 0 0.1 0 0-0.019 0-0.031 0-0.050 0.031 0 0.069 0 0.1 0 0-0.019 0-0.031 0-0.050 0.019 0 0.031 0 0.050 0 0-0.019 0-0.031 0-0.050 0.031 0 0.069 0 0.1 0 0-0.019 0-0.031 0-0.050 0.031 0 0.069 0 0.1 0 0-0.019 0-0.031 0-0.050 0.019 0 0.031 0 0.050 0 0-0.019 0-0.031 0-0.050 0.031 0 0.069 0 0.1 0 0-0.019 0-0.031 0-0.050 0.019 0 0.031 0 0.050 0 0-0.019 0-0.031 0-0.050 0.019 0 0.031 0 0.050 0 0-0.019 0-0.031 0-0.050 0.031 0 0.069 0 0.1 0 0-0.019 0-0.031 0-0.050 0.019 0 0.031 0 0.050 0 0-0.019 0-0.031 0-0.050 0.019 0 0.031 0 0.050 0 0-0.019 0-0.031 0-0.050 0.019 0 0.031 0 0.050 0 0-0.019 0-0.031 0-0.050 0.031 0 0.069 0 0.1 0 0-0.019 0-0.031 0-0.050 0.019 0 0.031 0 0.050 0 0-0.019 0-0.031 0-0.050 0.019 0 0.031 0 0.050 0 0-0.019 0-0.031 0-0.050 0.019 0 0.031 0 0.050 0 0-0.019 0-0.031 0-0.050 0.019 0 0.031 0 0.050 0 0-0.019 0-0.031 0-0.050 0.019 0 0.031 0 0.050 0 0-0.019 0-0.031 0-0.050 0.019 0 0.031 0 0.050 0 0 0.019 0 0.031 0 0.050 0.031 0 0.069 0 0.1 0 0 0.019 0 0.031 0 0.050 0.031 0 0.069 0 0.1 0 0 0.019 0 0.031 0 0.050 0.031 0 0.069 0 0.1 0 0 0.019 0 0.031 0 0.050 0.031 0 0.069 0 0.1 0 0 0.019 0 0.031 0 0.050 0.031 0 0.069 0 0.1 0 0 0.019 0 0.031 0 0.050 0.031 0 0.069 0 0.1 0 0 0.019 0 0.031 0 0.050 0.031 0 0.069 0 0.1 0 0 0.019 0 0.031 0 0.050 0.031 0 0.069 0 0.1 0 0 0.019 0 0.031 0 0.050 0.031 0 0.069 0 0.1 0 0 0.019 0 0.031 0 0.050 0.031 0 0.069 0 0.1 0 0 0.019 0 0.031 0 0.050 0.031 0 0.069 0 0.1 0 0 0.019 0 0.031 0 0.050 0.031 0 0.069 0 0.1 0 0 0.019 0 0.031 0 0.050 0.031 0 0.069 0 0.1 0 0 0.019 0 0.031 0 0.050 0.031 0 0.069 0 0.1 0 0 0.019 0 0.031 0 0.050 0.031 0 0.069 0 0.1 0 0 0.019 0 0.031 0 0.050 0.031 0 0.069 0 0.1 0 0 0.019 0 0.031 0 0.050 0.031 0 0.069 0 0.1 0 0 0.019 0 0.031 0 0.050 0.031 0 0.069 0 0.1 0 0 0.019 0 0.031 0 0.050 0.031 0 0.069 0 0.1 0 0 0.019 0 0.031 0 0.050 0.031 0 0.069 0 0.1 0 0 0.019 0 0.031 0 0.050 0.031 0 0.069 0 0.1 0 0 0.019 0 0.031 0 0.050 0.031 0 0.069 0 0.1 0 0 0.019 0 0.031 0 0.050 0.031 0 0.069 0 0.1 0 0 0.019 0 0.031 0 0.050 0.031 0 0.069 0 0.1 0 0 0.019 0 0.031 0 0.050 0.031 0 0.069 0 0.1 0 0 0.019 0 0.031 0 0.050 0.031 0 0.069 0 0.1 0 0 0.019 0 0.031 0 0.050 0.031 0 0.069 0 0.1 0 0 0.019 0 0.031 0 0.050 0.031 0 0.069 0 0.1 0 0 0.019 0 0.031 0 0.050 0.031 0 0.069 0 0.1 0 0 0.019 0 0.031 0 0.050 0.031 0 0.069 0 0.1 0 0 0.019 0 0.031 0 0.050 0.031 0 0.069 0 0.1 0 0 0.019 0 0.031 0 0.050 0.031 0 0.069 0 0.1 0 0 0.019 0 0.031 0 0.050 0.031 0 0.069 0 0.1 0 0 0.019 0 0.031 0 0.050 0.031 0 0.069 0 0.1 0 0 0.019 0 0.031 0 0.050 0.031 0 0.069 0 0.1 0 0 0.019 0 0.031 0 0.050 0.031 0 0.069 0 0.1 0 0 0.019 0 0.031 0 0.050 0.031 0 0.069 0 0.1 0 0 0.019 0 0.031 0 0.050 0.031 0 0.069 0 0.1 0 0 0.019 0 0.031 0 0.050 0.031 0 0.069 0 0.1 0 0 0.019 0 0.031 0 0.050 0.031 0 0.069 0 0.1 0 0 0.019 0 0.031 0 0.050 0.031 0 0.069 0 0.1 0 0 0.019 0 0.031 0 0.050 0.031 0 0.069 0 0.1 0 0 0.019 0 0.031 0 0.050 0.031 0 0.069 0 0.1 0 0 0.019 0 0.031 0 0.050 0.031 0 0.069 0 0.1 0 0 0.019 0 0.031 0 0.050 0.031 0 0.069 0 0.1 0 0 0.019 0 0.031 0 0.050 0.031 0 0.069 0 0.1 0 0 0.019 0 0.031 0 0.050 0.031 0 0.069 0 0.1 0 0 0.019 0 0.031 0 0.050 0.031 0 0.069 0 0.1 0 0 0.019 0 0.031 0 0.050 0.031 0 0.069 0 0.1 0 0 0.019 0 0.031 0 0.050 0.031 0 0.069 0 0.1 0 0 0.019 0 0.031 0 0.050 0.031 0 0.069 0 0.1 0 0 0.019 0 0.031 0 0.050 0.031 0 0.069 0 0.1 0 0 0.019 0 0.031 0 0.050 0.031 0 0.069 0 0.1 0 0 0.019 0 0.031 0 0.050 0.031 0 0.069 0 0.1 0 0 0.019 0 0.031 0 0.050 0.031 0 0.069 0 0.1 0 0 0.019 0 0.031 0 0.050 0.031 0 0.069 0 0.1 0 0 0.019 0 0.031 0 0.050 0.031 0 0.069 0 0.1 0 0 0.019 0 0.031 0 0.050 0.031 0 0.069 0 0.1 0 0 0.019 0 0.031 0 0.050 0.031 0 0.069 0 0.1 0 0 0.019 0 0.031 0 0.050 0.031 0 0.069 0 0.1 0 0 0.019 0 0.031 0 0.050 0.031 0 0.069 0 0.1 0 0 0.019 0 0.031 0 0.050 0.031 0 0.069 0 0.1 0 0 0.019 0 0.031 0 0.050 0.031 0 0.069 0 0.1 0 0 0.019 0 0.031 0 0.050 0.031 0 0.069 0 0.1 0 0 0.019 0 0.031 0 0.050 0.031 0 0.069 0 0.1 0 0 0.019 0 0.031 0 0.050 0.031 0 0.069 0 0.1 0 0 0.019 0 0.031 0 0.050 0.031 0 0.069 0 0.1 0 0 0.019 0 0.031 0 0.050 0.031 0 0.069 0 0.1 0 0 0.019 0 0.031 0 0.050 0.031 0 0.069 0 0.1 0 0 0.019 0 0.031 0 0.050 0.031 0 0.069 0 0.1 0 0 0.019 0 0.031 0 0.050 0.031 0 0.069 0 0.1 0 0 0.019 0 0.031 0 0.050 0.031 0 0.069 0 0.1 0 0 0.019 0 0.031 0 0.050 0.031 0 0.069 0 0.1 0 0 0.019 0 0.031 0 0.050 0.031 0 0.069 0 0.1 0 0 0.019 0 0.031 0 0.050 0.031 0 0.069 0 0.1 0 0 0.019 0 0.031 0 0.050 0.031 0 0.069 0 0.1 0 0 0.019 0 0.031 0 0.050 0.031 0 0.069 0 0.1 0 0 0.019 0 0.031 0 0.050 0.031 0 0.069 0 0.1 0 0 0.019 0 0.031 0 0.050 0.031 0 0.069 0 0.1 0 0 0.019 0 0.031 0 0.050 0.031 0 0.069 0 0.1 0 0 0.019 0 0.031 0 0.050 0.031 0 0.069 0 0.1 0 0 0.019 0 0.031 0 0.050 0.031 0 0.069 0 0.1 0 0 0.019 0 0.031 0 0.050 0.031 0 0.069 0 0.1 0 0 0.019 0 0.031 0 0.050 0.031 0 0.069 0 0.1 0 0 0.019 0 0.031 0 0.050 0.031 0 0.069 0 0.1 0 0 0.019 0 0.031 0 0.050 0.031 0 0.069 0 0.1 0 0 0.019 0 0.031 0 0.050 0.031 0 0.069 0 0.1 0 0 0.019 0 0.031 0 0.050 0.031 0 0.069 0 0.1 0 0 0.019 0 0.031 0 0.050 0.031 0 0.069 0 0.1 0 0 0.019 0 0.031 0 0.050 0.031 0 0.069 0 0.1 0 0 0.019 0 0.031 0 0.050 0.031 0 0.069 0 0.1 0 0 0.019 0 0.031 0 0.050 0.031 0 0.069 0 0.1 0 0 0.019 0 0.031 0 0.050 0.031 0 0.069 0 0.1 0 0 0.019 0 0.031 0 0.050 0.031 0 0.069 0 0.1 0 0 0.019 0 0.031 0 0.050 0.031 0 0.069 0 0.1 0 0 0.019 0 0.031 0 0.050 0.031 0 0.069 0 0.1 0 0 0.019 0 0.031 0 0.050 0.031 0 0.069 0 0.1 0 0 0.019 0 0.031 0 0.050 0.031 0 0.069 0 0.1 0 0 0.019 0 0.031 0 0.050 0.031 0 0.069 0 0.1 0 0 0.019 0 0.031 0 0.050 0.031 0 0.069 0 0.1 0 0 0.019 0 0.031 0 0.050 0.031 0 0.069 0 0.1 0 0 0.019 0 0.031 0 0.050 0.031 0 0.069 0 0.1 0 0 0.019 0 0.031 0 0.050 0.031 0 0.069 0 0.1 0 0 0.019 0 0.031 0 0.050 0.031 0 0.069 0 0.1 0 0 0.019 0 0.031 0 0.050 0.031 0 0.069 0 0.1 0 0 0.019 0 0.031 0 0.050 0.031 0 0.069 0 0.1 0 0 0.019 0 0.031 0 0.050 0.031 0 0.069 0 0.1 0 0 0.019 0 0.031 0 0.050 0.031 0 0.069 0 0.1 0 0 0.019 0 0.031 0 0.050 0.031 0 0.069 0 0.1 0 0 0.019 0 0.031 0 0.050 0.031 0 0.069 0 0.1 0 0 0.019 0 0.031 0 0.050 0.031 0 0.069 0 0.1 0 0 0.019 0 0.031 0 0.050 0.031 0 0.069 0 0.1 0 0 0.019 0 0.031 0 0.050 0.031 0 0.069 0 0.1 0 0 0.019 0 0.031 0 0.050 0.031 0 0.069 0 0.1 0 0 0.019 0 0.031 0 0.050 0.031 0 0.069 0 0.1 0 0 0.019 0 0.031 0 0.050 0.031 0 0.069 0 0.1 0 0 0.019 0 0.031 0 0.050 0.031 0 0.069 0 0.1 0 0 0.019 0 0.031 0 0.050 0.031 0 0.069 0 0.1 0 0 0.019 0 0.031 0 0.050 0.031 0 0.069 0 0.1 0 0 0.019 0 0.031 0 0.050 0.031 0 0.069 0 0.1 0 0 0.019 0 0.031 0 0.050 0.031 0 0.069 0 0.1 0 0 0.019 0 0.031 0 0.050 0.031 0 0.069 0 0.1 0 0 0.019 0 0.031 0 0.050 0.031 0 0.069 0 0.1 0 0 0.019 0 0.031 0 0.050 0.031 0 0.069 0 0.1 0 0 0.019 0 0.031 0 0.050 0.031 0 0.069 0 0.1 0 0 0.019 0 0.031 0 0.050 0.031 0 0.069 0 0.1 0 0 0.019 0 0.031 0 0.050 0.031 0 0.069 0 0.1 0 0 0.019 0 0.031 0 0.050 0.031 0 0.069 0 0.1 0 0 0.019 0 0.031 0 0.050 0.031 0 0.069 0 0.1 0 0 0.019 0 0.031 0 0.050 0.031 0 0.069 0 0.1 0 0 0.019 0 0.031 0 0.050 0.031 0 0.069 0 0.1 0 0 0.019 0 0.031 0 0.050 0.031 0 0.069 0 0.1 0 0 0.019 0 0.031 0 0.050 0.031 0 0.069 0 0.1 0 0 0.019 0 0.031 0 0.050 0.031 0 0.069 0 0.1 0 0 0.181 0 0.369 0 0.55-0.019 0-0.031 0-0.050 0 0 0.181 0 0.369 0 0.55 0.019 0 0.031 0 0.050 0 0 0.169 0 0.331 0 0.5 0.019 0 0.031 0 0.050 0 0 0.081 0 0.169 0 0.25 0.019 0 0.031 0 0.050 0 0 0.069 0 0.131 0 0.2 0.019 0 0.031 0 0.050 0 0 0.069 0 0.131 0 0.2 0.019 0 0.031 0 0.050 0 0 0.050 0 0.1 0 0.15 0.019 0 0.031 0 0.050 0 0 0.050 0 0.1 0 0.15 0.019 0 0.031 0 0.050 0 0 0.050 0 0.1 0 0.15 0.019 0 0.031 0 0.050 0 0 0.031 0 0.069 0 0.1 0.019 0 0.031 0 0.050 0 0 0.031 0 0.069 0 0.1 0.019 0 0.031 0 0.050 0 0 0.031 0 0.069 0 0.1 0.019 0 0.031 0 0.050 0 0 0.031 0 0.069 0 0.1 0.019 0 0.031 0 0.050 0 0 0.031 0 0.069 0 0.1 0.019 0 0.031 0 0.050 0 0 0.031 0 0.069 0 0.1 0.019 0 0.031 0 0.050 0 0 0.031 0 0.069 0 0.1 0.019 0 0.031 0 0.050 0 0 0.019 0 0.031 0 0.050 0.019 0 0.031 0 0.050 0 0 0.031 0 0.069 0 0.1 0.019 0 0.031 0 0.050 0 0 0.019 0 0.031 0 0.050 0.019 0 0.031 0 0.050 0 0 0.031 0 0.069 0 0.1 0.019 0 0.031 0 0.050 0 0 0.019 0 0.031 0 0.050 0.019 0 0.031 0 0.050 0 0 0.031 0 0.069 0 0.1 0.019 0 0.031 0 0.050 0 0 0.019 0 0.031 0 0.050 0.019 0 0.031 0 0.050 0 0 0.019 0 0.031 0 0.050 0.019 0 0.031 0 0.050 0 0 0.019 0 0.031 0 0.050 0.019 0 0.031 0 0.050 0 0 0.031 0 0.069 0 0.1 0.019 0 0.031 0 0.050 0 0 0.019 0 0.031 0 0.050 0.019 0 0.031 0 0.050 0 0 0.019 0 0.031 0 0.050 0.019 0 0.031 0 0.050 0 0 0.019 0 0.031 0 0.050 0.019 0 0.031 0 0.050 0 0 0.019 0 0.031 0 0.050 0.019 0 0.031 0 0.050 0 0 0.019 0 0.031 0 0.050 0.019 0 0.031 0 0.050 0 0 0.019 0 0.031 0 0.050 0.019 0 0.031 0 0.050 0 0 0.019 0 0.031 0 0.050 0.019 0 0.031 0 0.050 0 0 0.019 0 0.031 0 0.050 0.019 0 0.031 0 0.050 0 0 0.019 0 0.031 0 0.050 0.019 0 0.031 0 0.050 0 0 0.019 0 0.031 0 0.050 0.019 0 0.031 0 0.050 0 0 0.019 0 0.031 0 0.050 0.031 0 0.069 0 0.1 0 0 0.019 0 0.031 0 0.050 0.019 0 0.031 0 0.050 0 0 0.019 0 0.031 0 0.050 0.019 0 0.031 0 0.050 0 0 0.019 0 0.031 0 0.050 0.031 0 0.069 0 0.1 0 0 0.019 0 0.031 0 0.050 0.019 0 0.031 0 0.050 0 0 0.019 0 0.031 0 0.050 0.019 0 0.031 0 0.050 0 0 0.019 0 0.031 0 0.050 0.031 0 0.069 0 0.1 0 0 0.019 0 0.031 0 0.050 0.019 0 0.031 0 0.050 0 0 0.019 0 0.031 0 0.050 0.031 0 0.069 0 0.1 0 0 0.019 0 0.031 0 0.050 0.031 0 0.069 0 0.1 0 0 0.019 0 0.031 0 0.050 0.019 0 0.031 0 0.050 0 0 0.019 0 0.031 0 0.050 0.031 0 0.069 0 0.1 0 0 0.019 0 0.031 0 0.050 0.031 0 0.069 0 0.1 0 0 0.019 0 0.031 0 0.050 0.031 0 0.069 0 0.1 0 0 0.019 0 0.031 0 0.050 0.031 0 0.069 0 0.1 0 0 0.019 0 0.031 0 0.050 0.031 0 0.069 0 0.1 0 0 0.019 0 0.031 0 0.050 0.050 0 0.1 0 0.15 0 0 0.019 0 0.031 0 0.050 0.050 0 0.1 0 0.15 0 0 0.019 0 0.031 0 0.050 0.050 0 0.1 0 0.15 0 0 0.019 0 0.031 0 0.050 0.050 0 0.1 0 0.15 0 0 0.019 0 0.031 0 0.050 0.069 0 0.131 0 0.2 0 0 0.019 0 0.031 0 0.050 0.069 0 0.131 0 0.2 0 0 0.019 0 0.031 0 0.050 0.119 0 0.231 0 0.35 0 0 0.019 0 0.031 0 0.050 0.419 0 0.831 0 1.25 0 0-0.019 0-0.031 0-0.050 0.1 0 0.2 0 0.3 0 0-0.019 0-0.031 0-0.050 0.081 0 0.169 0 0.25 0 0-0.019 0-0.031 0-0.050 0.069 0 0.131 0 0.2 0 0-0.019 0-0.031 0-0.050 0.050 0 0.1 0 0.15 0 0-0.019 0-0.031 0-0.050 0.050 0 0.1 0 0.15 0 0-0.019 0-0.031 0-0.050 0.050 0 0.1 0 0.15 0 0-0.019 0-0.031 0-0.050 0.031 0 0.069 0 0.1 0 0-0.019 0-0.031 0-0.050 0.031 0 0.069 0 0.1 0 0-0.019 0-0.031 0-0.050 0.050 0 0.1 0 0.15 0 0-0.019 0-0.031 0-0.050 0.031 0 0.069 0 0.1 0 0-0.019 0-0.031 0-0.050 0.031 0 0.069 0 0.1 0 0-0.019 0-0.031 0-0.050 0.019 0 0.031 0 0.050 0 0-0.019 0-0.031 0-0.050 0.031 0 0.069 0 0.1 0 0-0.019 0-0.031 0-0.050 0.031 0 0.069 0 0.1 0 0-0.019 0-0.031 0-0.050 0.019 0 0.031 0 0.050 0 0-0.019 0-0.031 0-0.050 0.031 0 0.069 0 0.1 0 0-0.019 0-0.031 0-0.050 0.019 0 0.031 0 0.050 0 0-0.019 0-0.031 0-0.050 0.031 0 0.069 0 0.1 0 0-0.019 0-0.031 0-0.050 0.019 0 0.031 0 0.050 0 0-0.019 0-0.031 0-0.050 0.019 0 0.031 0 0.050 0 0-0.019 0-0.031 0-0.050 0.031 0 0.069 0 0.1 0 0-0.019 0-0.031 0-0.050 0.019 0 0.031 0 0.050 0 0-0.019 0-0.031 0-0.050 0.019 0 0.031 0 0.050 0 0-0.019 0-0.031 0-0.050 0.019 0 0.031 0 0.050 0 0-0.019 0-0.031 0-0.050 0.019 0 0.031 0 0.050 0 0-0.019 0-0.031 0-0.050 0.031 0 0.069 0 0.1 0 0-0.019 0-0.031 0-0.050 0.019 0 0.031 0 0.050 0 0-0.019 0-0.031 0-0.050 0.019 0 0.031 0 0.050 0 0-0.019 0-0.031 0-0.050 0.019 0 0.031 0 0.050 0 0-0.019 0-0.031 0-0.050 0.019 0 0.031 0 0.050 0 0-0.019 0-0.031 0-0.050 0.019 0 0.031 0 0.050 0 0-0.031 0-0.069 0-0.1 0.019 0 0.031 0 0.050 0 0-0.019 0-0.031 0-0.050 0.019 0 0.031 0 0.050 0 0-0.019 0-0.031 0-0.050 0.019 0 0.031 0 0.050 0 0-0.019 0-0.031 0-0.050 0.019 0 0.031 0 0.050 0 0-0.019 0-0.031 0-0.050 0.019 0 0.031 0 0.050 0 0-0.031 0-0.069 0-0.1 0.019 0 0.031 0 0.050 0 0-0.019 0-0.031 0-0.050 0.019 0 0.031 0 0.050 0 0-0.019 0-0.031 0-0.050 0.019 0 0.031 0 0.050 0 0-0.031 0-0.069 0-0.1 0.019 0 0.031 0 0.050 0 0-0.019 0-0.031 0-0.050 0.019 0 0.031 0 0.050 0 0-0.031 0-0.069 0-0.1 0.019 0 0.031 0 0.050 0 0-0.019 0-0.031 0-0.050 0.019 0 0.031 0 0.050 0 0-0.031 0-0.069 0-0.1 0.019 0 0.031 0 0.050 0 0-0.031 0-0.069 0-0.1 0.019 0 0.031 0 0.050 0 0-0.019 0-0.031 0-0.050 0.019 0 0.031 0 0.050 0 0-0.031 0-0.069 0-0.1 0.019 0 0.031 0 0.050 0 0-0.031 0-0.069 0-0.1 0.019 0 0.031 0 0.050 0 0-0.031 0-0.069 0-0.1 0.019 0 0.031 0 0.050 0 0-0.050 0-0.1 0-0.15 0.019 0 0.031 0 0.050 0 0-0.031 0-0.069 0-0.1 0.019 0 0.031 0 0.050 0 0-0.050 0-0.1 0-0.15 0.019 0 0.031 0 0.050 0 0-0.050 0-0.1 0-0.15 0.019 0 0.031 0 0.050 0 0-0.050 0-0.1 0-0.15 0.019 0 0.031 0 0.050 0 0-0.069 0-0.131 0-0.2 0.019 0 0.031 0 0.050 0 0-0.081 0-0.169 0-0.25 0.019 0 0.031 0 0.050 0 0-0.1 0-0.2 0-0.3 0.019 0 0.031 0 0.050 0 0-0.431 0-0.869 0-1.3-0.019 0-0.031 0-0.050 0 0-0.1 0-0.2 0-0.3-0.019 0-0.031 0-0.050 0 0-0.081 0-0.169 0-0.25-0.019 0-0.031 0-0.050 0 0-0.050 0-0.1 0-0.15-0.019 0-0.031 0-0.050 0 0-0.069 0-0.131 0-0.2-0.019 0-0.031 0-0.050 0 0-0.050 0-0.1 0-0.15-0.019 0-0.031 0-0.050 0 0-0.031 0-0.069 0-0.1-0.019 0-0.031 0-0.050 0 0-0.050 0-0.1 0-0.15-0.019 0-0.031 0-0.050 0 0-0.031 0-0.069 0-0.1-0.019 0-0.031 0-0.050 0 0-0.031 0-0.069 0-0.1-0.019 0-0.031 0-0.050 0 0-0.031 0-0.069 0-0.1-0.019 0-0.031 0-0.050 0 0-0.031 0-0.069 0-0.1-0.019 0-0.031 0-0.050 0 0-0.031 0-0.069 0-0.1-0.019 0-0.031 0-0.050 0 0-0.031 0-0.069 0-0.1-0.019 0-0.031 0-0.050 0 0-0.019 0-0.031 0-0.050-0.019 0-0.031 0-0.050 0 0-0.031 0-0.069 0-0.1-0.019 0-0.031 0-0.050 0 0-0.019 0-0.031 0-0.050-0.019 0-0.031 0-0.050 0 0-0.031 0-0.069 0-0.1-0.019 0-0.031 0-0.050 0 0-0.019 0-0.031 0-0.050-0.019 0-0.031 0-0.050 0 0-0.031 0-0.069 0-0.1-0.019 0-0.031 0-0.050 0 0-0.019 0-0.031 0-0.050-0.019 0-0.031 0-0.050 0 0-0.019 0-0.031 0-0.050-0.019 0-0.031 0-0.050 0 0-0.019 0-0.031 0-0.050-0.019 0-0.031 0-0.050 0 0-0.031 0-0.069 0-0.1-0.019 0-0.031 0-0.050 0 0-0.019 0-0.031 0-0.050-0.019 0-0.031 0-0.050 0 0-0.019 0-0.031 0-0.050-0.019 0-0.031 0-0.050 0 0-0.019 0-0.031 0-0.050-0.019 0-0.031 0-0.050 0 0-0.019 0-0.031 0-0.050-0.019 0-0.031 0-0.050 0 0-0.019 0-0.031 0-0.050-0.019 0-0.031 0-0.050 0 0-0.019 0-0.031 0-0.050-0.019 0-0.031 0-0.050 0 0-0.019 0-0.031 0-0.050-0.019 0-0.031 0-0.050 0 0-0.019 0-0.031 0-0.050-0.019 0-0.031 0-0.050 0 0-0.019 0-0.031 0-0.050-0.019 0-0.031 0-0.050 0 0-0.019 0-0.031 0-0.050-0.019 0-0.031 0-0.050 0 0-0.019 0-0.031 0-0.050-0.019 0-0.031 0-0.050 0 0-0.019 0-0.031 0-0.050-0.031 0-0.069 0-0.1 0 0-0.019 0-0.031 0-0.050-0.019 0-0.031 0-0.050 0 0-0.019 0-0.031 0-0.050-0.019 0-0.031 0-0.050 0 0-0.019 0-0.031 0-0.050-0.031 0-0.069 0-0.1 0 0-0.019 0-0.031 0-0.050-0.019 0-0.031 0-0.050 0 0-0.019 0-0.031 0-0.050-0.019 0-0.031 0-0.050 0 0-0.019 0-0.031 0-0.050-0.031 0-0.069 0-0.1 0 0-0.019 0-0.031 0-0.050-0.031 0-0.069 0-0.1 0 0-0.019 0-0.031 0-0.050-0.019 0-0.031 0-0.050 0 0-0.019 0-0.031 0-0.050-0.031 0-0.069 0-0.1 0 0-0.019 0-0.031 0-0.050-0.031 0-0.069 0-0.1 0 0-0.019 0-0.031 0-0.050-0.019 0-0.031 0-0.050 0 0-0.019 0-0.031 0-0.050-0.031 0-0.069 0-0.1 0 0-0.019 0-0.031 0-0.050-0.031 0-0.069 0-0.1 0 0-0.019 0-0.031 0-0.050-0.050 0-0.1 0-0.15 0 0-0.019 0-0.031 0-0.050-0.031 0-0.069 0-0.1 0 0-0.019 0-0.031 0-0.050-0.050 0-0.1 0-0.15 0 0-0.019 0-0.031 0-0.050-0.050 0-0.1 0-0.15 0 0-0.019 0-0.031 0-0.050-0.050 0-0.1 0-0.15 0 0-0.019 0-0.031 0-0.050-0.050 0-0.1 0-0.15 0 0-0.019 0-0.031 0-0.050-0.069 0-0.131 0-0.2 0 0-0.019 0-0.031 0-0.050-0.1 0-0.2 0-0.3 0 0-0.019 0-0.031 0-0.050-0.15 0-0.3 0-0.45 0 0-0.019 0-0.031 0-0.050-0.219 0-0.431 0-0.65 0 0 0.019 0 0.031 0 0.050-0.15 0-0.3 0-0.45 0 0 0.019 0 0.031 0 0.050-0.1 0-0.2 0-0.3 0 0 0.019 0 0.031 0 0.050-0.069 0-0.131 0-0.2 0 0 0.019 0 0.031 0 0.050-0.069 0-0.131 0-0.2 0 0 0.019 0 0.031 0 0.050-0.050 0-0.1 0-0.15 0 0 0.019 0 0.031 0 0.050-0.050 0-0.1 0-0.15 0 0 0.019 0 0.031 0 0.050-0.031 0-0.069 0-0.1 0 0 0.019 0 0.031 0 0.050-0.050 0-0.1 0-0.15 0 0 0.019 0 0.031 0 0.050-0.031 0-0.069 0-0.1 0 0 0.019 0 0.031 0 0.050-0.031 0-0.069 0-0.1 0 0 0.019 0 0.031 0 0.050-0.031 0-0.069 0-0.1 0 0 0.019 0 0.031 0 0.050-0.031 0-0.069 0-0.1 0 0 0.019 0 0.031 0 0.050-0.019 0-0.031 0-0.050 0 0 0.019 0 0.031 0 0.050-0.031 0-0.069 0-0.1 0 0 0.019 0 0.031 0 0.050-0.031 0-0.069 0-0.1 0 0 0.019 0 0.031 0 0.050-0.019 0-0.031 0-0.050 0 0 0.019 0 0.031 0 0.050-0.031 0-0.069 0-0.1 0 0 0.019 0 0.031 0 0.050-0.019 0-0.031 0-0.050 0 0 0.019 0 0.031 0 0.050-0.031 0-0.069 0-0.1 0 0 0.019 0 0.031 0 0.050-0.019 0-0.031 0-0.050 0 0 0.019 0 0.031 0 0.050-0.019 0-0.031 0-0.050 0 0 0.019 0 0.031 0 0.050-0.031 0-0.069 0-0.1 0 0 0.019 0 0.031 0 0.050-0.019 0-0.031 0-0.050 0 0 0.019 0 0.031 0 0.050-0.019 0-0.031 0-0.050 0 0 0.019 0 0.031 0 0.050-0.019 0-0.031 0-0.050 0 0 0.019 0 0.031 0 0.050-0.019 0-0.031 0-0.050 0 0 0.019 0 0.031 0 0.050-0.019 0-0.031 0-0.050 0 0 0.019 0 0.031 0 0.050-0.019 0-0.031 0-0.050 0 0 0.019 0 0.031 0 0.050-0.019 0-0.031 0-0.050 0 0 0.019 0 0.031 0 0.050-0.019 0-0.031 0-0.050 0 0 0.019 0 0.031 0 0.050-0.019 0-0.031 0-0.050 0 0-0.019 0-0.031 0-0.050-0.031 0-0.069 0-0.1 0 0-0.019 0-0.031 0-0.050-0.031 0-0.069 0-0.1 0 0-0.019 0-0.031 0-0.050-0.031 0-0.069 0-0.1 0 0-0.019 0-0.031 0-0.050-0.031 0-0.069 0-0.1 0 0-0.019 0-0.031 0-0.050-0.031 0-0.069 0-0.1 0 0-0.019 0-0.031 0-0.050-0.031 0-0.069 0-0.1 0 0-0.019 0-0.031 0-0.050-0.031 0-0.069 0-0.1 0 0-0.019 0-0.031 0-0.050-0.031 0-0.069 0-0.1 0 0-0.019 0-0.031 0-0.050-0.031 0-0.069 0-0.1 0 0-0.019 0-0.031 0-0.050-0.031 0-0.069 0-0.1 0 0-0.019 0-0.031 0-0.050-0.031 0-0.069 0-0.1 0 0-0.019 0-0.031 0-0.050-0.031 0-0.069 0-0.1 0 0-0.019 0-0.031 0-0.050-0.031 0-0.069 0-0.1 0 0-0.019 0-0.031 0-0.050-0.031 0-0.069 0-0.1 0 0-0.019 0-0.031 0-0.050-0.031 0-0.069 0-0.1 0 0-0.019 0-0.031 0-0.050-0.031 0-0.069 0-0.1 0 0-0.019 0-0.031 0-0.050-0.031 0-0.069 0-0.1 0 0-0.019 0-0.031 0-0.050-0.031 0-0.069 0-0.1 0 0-0.019 0-0.031 0-0.050-0.031 0-0.069 0-0.1 0 0-0.019 0-0.031 0-0.050-0.031 0-0.069 0-0.1 0 0-0.019 0-0.031 0-0.050-0.031 0-0.069 0-0.1 0 0-0.019 0-0.031 0-0.050-0.031 0-0.069 0-0.1 0 0-0.019 0-0.031 0-0.050-0.031 0-0.069 0-0.1 0 0-0.019 0-0.031 0-0.050-0.031 0-0.069 0-0.1 0 0-0.019 0-0.031 0-0.050-0.031 0-0.069 0-0.1 0 0-0.019 0-0.031 0-0.050-0.031 0-0.069 0-0.1 0 0-0.019 0-0.031 0-0.050-0.031 0-0.069 0-0.1 0 0-0.019 0-0.031 0-0.050-0.031 0-0.069 0-0.1 0 0-0.019 0-0.031 0-0.050-0.031 0-0.069 0-0.1 0 0-0.019 0-0.031 0-0.050-0.031 0-0.069 0-0.1 0 0-0.019 0-0.031 0-0.050-0.031 0-0.069 0-0.1 0 0-0.019 0-0.031 0-0.050-0.031 0-0.069 0-0.1 0 0-0.019 0-0.031 0-0.050-0.031 0-0.069 0-0.1 0 0-0.019 0-0.031 0-0.050-0.031 0-0.069 0-0.1 0 0-0.019 0-0.031 0-0.050-0.031 0-0.069 0-0.1 0 0-0.019 0-0.031 0-0.050-0.031 0-0.069 0-0.1 0 0-0.019 0-0.031 0-0.050-0.031 0-0.069 0-0.1 0 0-0.019 0-0.031 0-0.050-0.031 0-0.069 0-0.1 0 0-0.019 0-0.031 0-0.050-0.031 0-0.069 0-0.1 0 0-0.019 0-0.031 0-0.050-0.031 0-0.069 0-0.1 0 0-0.019 0-0.031 0-0.050-0.031 0-0.069 0-0.1 0 0-0.019 0-0.031 0-0.050-0.031 0-0.069 0-0.1 0 0-0.019 0-0.031 0-0.050-0.031 0-0.069 0-0.1 0 0-0.019 0-0.031 0-0.050-0.031 0-0.069 0-0.1 0 0-0.019 0-0.031 0-0.050-0.031 0-0.069 0-0.1 0 0-0.019 0-0.031 0-0.050-0.031 0-0.069 0-0.1 0 0-0.019 0-0.031 0-0.050-0.031 0-0.069 0-0.1 0 0-0.019 0-0.031 0-0.050-0.031 0-0.069 0-0.1 0 0-0.019 0-0.031 0-0.050-0.031 0-0.069 0-0.1 0 0-0.019 0-0.031 0-0.050-0.031 0-0.069 0-0.1 0 0-0.019 0-0.031 0-0.050-0.031 0-0.069 0-0.1 0 0-0.019 0-0.031 0-0.050-0.031 0-0.069 0-0.1 0 0-0.019 0-0.031 0-0.050-0.031 0-0.069 0-0.1 0 0-0.019 0-0.031 0-0.050-0.031 0-0.069 0-0.1 0 0-0.019 0-0.031 0-0.050-0.031 0-0.069 0-0.1 0 0-0.019 0-0.031 0-0.050-0.031 0-0.069 0-0.1 0 0-0.019 0-0.031 0-0.050-0.031 0-0.069 0-0.1 0 0-0.019 0-0.031 0-0.050-0.031 0-0.069 0-0.1 0 0-0.019 0-0.031 0-0.050-0.031 0-0.069 0-0.1 0 0-0.019 0-0.031 0-0.050-0.031 0-0.069 0-0.1 0 0-0.019 0-0.031 0-0.050-0.031 0-0.069 0-0.1 0 0-0.019 0-0.031 0-0.050-0.031 0-0.069 0-0.1 0 0-0.019 0-0.031 0-0.050-0.031 0-0.069 0-0.1 0 0-0.019 0-0.031 0-0.050-0.031 0-0.069 0-0.1 0 0-0.019 0-0.031 0-0.050-0.031 0-0.069 0-0.1 0 0-0.019 0-0.031 0-0.050-0.031 0-0.069 0-0.1 0 0-0.019 0-0.031 0-0.050-0.031 0-0.069 0-0.1 0 0-0.019 0-0.031 0-0.050-0.031 0-0.069 0-0.1 0 0-0.019 0-0.031 0-0.050-0.031 0-0.069 0-0.1 0 0-0.019 0-0.031 0-0.050-0.031 0-0.069 0-0.1 0 0-0.019 0-0.031 0-0.050-0.031 0-0.069 0-0.1 0 0-0.019 0-0.031 0-0.050-0.031 0-0.069 0-0.1 0 0-0.019 0-0.031 0-0.050-0.031 0-0.069 0-0.1 0 0-0.019 0-0.031 0-0.050-0.031 0-0.069 0-0.1 0 0-0.019 0-0.031 0-0.050-0.031 0-0.069 0-0.1 0 0-0.019 0-0.031 0-0.050-0.031 0-0.069 0-0.1 0 0-0.019 0-0.031 0-0.050-0.031 0-0.069 0-0.1 0 0-0.019 0-0.031 0-0.050-0.031 0-0.069 0-0.1 0 0-0.019 0-0.031 0-0.050-0.031 0-0.069 0-0.1 0 0-0.019 0-0.031 0-0.050-0.031 0-0.069 0-0.1 0 0-0.019 0-0.031 0-0.050-0.031 0-0.069 0-0.1 0 0-0.019 0-0.031 0-0.050-0.031 0-0.069 0-0.1 0 0-0.019 0-0.031 0-0.050-0.031 0-0.069 0-0.1 0 0-0.019 0-0.031 0-0.050-0.031 0-0.069 0-0.1 0 0-0.019 0-0.031 0-0.050-0.031 0-0.069 0-0.1 0 0-0.019 0-0.031 0-0.050-0.031 0-0.069 0-0.1 0 0-0.019 0-0.031 0-0.050-0.031 0-0.069 0-0.1 0 0-0.019 0-0.031 0-0.050-0.031 0-0.069 0-0.1 0 0-0.019 0-0.031 0-0.050-0.031 0-0.069 0-0.1 0 0-0.019 0-0.031 0-0.050-0.031 0-0.069 0-0.1 0 0-0.019 0-0.031 0-0.050-0.031 0-0.069 0-0.1 0 0-0.019 0-0.031 0-0.050-0.031 0-0.069 0-0.1 0 0-0.019 0-0.031 0-0.050-0.031 0-0.069 0-0.1 0 0-0.019 0-0.031 0-0.050-0.031 0-0.069 0-0.1 0 0-0.019 0-0.031 0-0.050-0.031 0-0.069 0-0.1 0 0-0.019 0-0.031 0-0.050-0.031 0-0.069 0-0.1 0 0-0.019 0-0.031 0-0.050-0.031 0-0.069 0-0.1 0 0-0.019 0-0.031 0-0.050-0.031 0-0.069 0-0.1 0 0-0.019 0-0.031 0-0.050-0.031 0-0.069 0-0.1 0 0-0.019 0-0.031 0-0.050-0.031 0-0.069 0-0.1 0 0-0.019 0-0.031 0-0.050-0.031 0-0.069 0-0.1 0 0-0.019 0-0.031 0-0.050-0.031 0-0.069 0-0.1 0 0-0.019 0-0.031 0-0.050-0.031 0-0.069 0-0.1 0 0-0.019 0-0.031 0-0.050-0.031 0-0.069 0-0.1 0 0-0.019 0-0.031 0-0.050-0.031 0-0.069 0-0.1 0 0-0.019 0-0.031 0-0.050-0.031 0-0.069 0-0.1 0 0-0.019 0-0.031 0-0.050-0.031 0-0.069 0-0.1 0 0-0.019 0-0.031 0-0.050-0.031 0-0.069 0-0.1 0 0-0.019 0-0.031 0-0.050-0.031 0-0.069 0-0.1 0 0-0.019 0-0.031 0-0.050-0.031 0-0.069 0-0.1 0 0-0.019 0-0.031 0-0.050-0.031 0-0.069 0-0.1 0 0-0.019 0-0.031 0-0.050-0.031 0-0.069 0-0.1 0 0-0.019 0-0.031 0-0.050-0.031 0-0.069 0-0.1 0 0-0.019 0-0.031 0-0.050-0.031 0-0.069 0-0.1 0 0-0.019 0-0.031 0-0.050-0.031 0-0.069 0-0.1 0 0-0.019 0-0.031 0-0.050-0.031 0-0.069 0-0.1 0 0-0.019 0-0.031 0-0.050-0.031 0-0.069 0-0.1 0 0-0.019 0-0.031 0-0.050-0.031 0-0.069 0-0.1 0 0-0.019 0-0.031 0-0.050-0.031 0-0.069 0-0.1 0 0-0.019 0-0.031 0-0.050-0.031 0-0.069 0-0.1 0 0-0.019 0-0.031 0-0.050-0.031 0-0.069 0-0.1 0 0-0.019 0-0.031 0-0.050-0.031 0-0.069 0-0.1 0 0-0.019 0-0.031 0-0.050-0.031 0-0.069 0-0.1 0 0-0.019 0-0.031 0-0.050-0.031 0-0.069 0-0.1 0 0-0.019 0-0.031 0-0.050-0.031 0-0.069 0-0.1 0 0-0.019 0-0.031 0-0.050-0.031 0-0.069 0-0.1 0 0-0.019 0-0.031 0-0.050-0.031 0-0.069 0-0.1 0 0-0.019 0-0.031 0-0.050-0.031 0-0.069 0-0.1 0 0-0.019 0-0.031 0-0.050-0.031 0-0.069 0-0.1 0 0-0.019 0-0.031 0-0.050-0.031 0-0.069 0-0.1 0 0-0.019 0-0.031 0-0.050-0.031 0-0.069 0-0.1 0 0-0.019 0-0.031 0-0.050-0.031 0-0.069 0-0.1 0 0-0.019 0-0.031 0-0.050-0.031 0-0.069 0-0.1 0 0-0.019 0-0.031 0-0.050-0.031 0-0.069 0-0.1 0 0-0.019 0-0.031 0-0.050-0.019 0-0.031 0-0.050 0 0-0.031 0-0.069 0-0.1 0.019 0 0.031 0 0.050 0 0-0.469 0-0.931 0-1.4-0.019 0-0.031 0-0.050 0 0-0.019 0-0.031 0-0.050 0.019 0 0.031 0 0.050 0 0-0.019 0-0.031 0-0.050 0.031 0 0.069 0 0.1 0 0-0.019 0-0.031 0-0.050 0.031 0 0.069 0 0.1 0 0-0.019 0-0.031 0-0.050 0.031 0 0.069 0 0.1 0 0-0.019 0-0.031 0-0.050 0.031 0 0.069 0 0.1 0 0-0.019 0-0.031 0-0.050 0.031 0 0.069 0 0.1 0 0-0.019 0-0.031 0-0.050 0.031 0 0.069 0 0.1 0 0-0.019 0-0.031 0-0.050 0.031 0 0.069 0 0.1 0 0-0.019 0-0.031 0-0.050 0.031 0 0.069 0 0.1 0 0-0.019 0-0.031 0-0.050 0.031 0 0.069 0 0.1 0 0-0.019 0-0.031 0-0.050 0.031 0 0.069 0 0.1 0 0-0.019 0-0.031 0-0.050 0.031 0 0.069 0 0.1 0 0-0.019 0-0.031 0-0.050 0.031 0 0.069 0 0.1 0 0-0.019 0-0.031 0-0.050 0.031 0 0.069 0 0.1 0 0-0.019 0-0.031 0-0.050 0.031 0 0.069 0 0.1 0 0-0.019 0-0.031 0-0.050 0.031 0 0.069 0 0.1 0 0-0.019 0-0.031 0-0.050 0.031 0 0.069 0 0.1 0 0-0.019 0-0.031 0-0.050 0.031 0 0.069 0 0.1 0 0-0.019 0-0.031 0-0.050 0.031 0 0.069 0 0.1 0 0-0.019 0-0.031 0-0.050 0.031 0 0.069 0 0.1 0 0-0.019 0-0.031 0-0.050 0.031 0 0.069 0 0.1 0 0-0.019 0-0.031 0-0.050 0.031 0 0.069 0 0.1 0 0-0.019 0-0.031 0-0.050 0.031 0 0.069 0 0.1 0 0-0.019 0-0.031 0-0.050 0.031 0 0.069 0 0.1 0 0-0.019 0-0.031 0-0.050 0.031 0 0.069 0 0.1 0 0-0.019 0-0.031 0-0.050 0.031 0 0.069 0 0.1 0 0-0.019 0-0.031 0-0.050 0.031 0 0.069 0 0.1 0 0-0.019 0-0.031 0-0.050 0.031 0 0.069 0 0.1 0 0-0.019 0-0.031 0-0.050 0.031 0 0.069 0 0.1 0 0-0.019 0-0.031 0-0.050 0.031 0 0.069 0 0.1 0 0-0.019 0-0.031 0-0.050 0.031 0 0.069 0 0.1 0 0-0.019 0-0.031 0-0.050 0.031 0 0.069 0 0.1 0 0-0.019 0-0.031 0-0.050 0.031 0 0.069 0 0.1 0 0-0.019 0-0.031 0-0.050 0.031 0 0.069 0 0.1 0 0-0.019 0-0.031 0-0.050 0.031 0 0.069 0 0.1 0 0-0.019 0-0.031 0-0.050 0.031 0 0.069 0 0.1 0 0-0.019 0-0.031 0-0.050 0.031 0 0.069 0 0.1 0 0-0.019 0-0.031 0-0.050 0.031 0 0.069 0 0.1 0 0-0.019 0-0.031 0-0.050 0.031 0 0.069 0 0.1 0 0-0.019 0-0.031 0-0.050 0.031 0 0.069 0 0.1 0 0-0.019 0-0.031 0-0.050 0.031 0 0.069 0 0.1 0 0-0.019 0-0.031 0-0.050 0.031 0 0.069 0 0.1 0 0-0.019 0-0.031 0-0.050 0.031 0 0.069 0 0.1 0 0-0.019 0-0.031 0-0.050 0.031 0 0.069 0 0.1 0 0-0.019 0-0.031 0-0.050 0.031 0 0.069 0 0.1 0 0-0.019 0-0.031 0-0.050 0.031 0 0.069 0 0.1 0 0-0.019 0-0.031 0-0.050 0.031 0 0.069 0 0.1 0 0-0.019 0-0.031 0-0.050 0.031 0 0.069 0 0.1 0 0-0.019 0-0.031 0-0.050 0.031 0 0.069 0 0.1 0 0-0.019 0-0.031 0-0.050 0.031 0 0.069 0 0.1 0 0-0.019 0-0.031 0-0.050 0.031 0 0.069 0 0.1 0 0-0.019 0-0.031 0-0.050 0.031 0 0.069 0 0.1 0 0-0.019 0-0.031 0-0.050 0.031 0 0.069 0 0.1 0 0-0.019 0-0.031 0-0.050 0.031 0 0.069 0 0.1 0 0-0.019 0-0.031 0-0.050 0.031 0 0.069 0 0.1 0 0-0.019 0-0.031 0-0.050 0.031 0 0.069 0 0.1 0 0-0.019 0-0.031 0-0.050 0.031 0 0.069 0 0.1 0 0-0.019 0-0.031 0-0.050 0.031 0 0.069 0 0.1 0 0-0.019 0-0.031 0-0.050 0.031 0 0.069 0 0.1 0 0-0.019 0-0.031 0-0.050 0.031 0 0.069 0 0.1 0 0-0.019 0-0.031 0-0.050 0.031 0 0.069 0 0.1 0 0-0.019 0-0.031 0-0.050 0.031 0 0.069 0 0.1 0 0-0.019 0-0.031 0-0.050 0.031 0 0.069 0 0.1 0 0-0.019 0-0.031 0-0.050 0.031 0 0.069 0 0.1 0 0-0.019 0-0.031 0-0.050 0.031 0 0.069 0 0.1 0 0-0.019 0-0.031 0-0.050 0.031 0 0.069 0 0.1 0 0-0.019 0-0.031 0-0.050 0.031 0 0.069 0 0.1 0 0-0.019 0-0.031 0-0.050 0.031 0 0.069 0 0.1 0 0-0.019 0-0.031 0-0.050 0.031 0 0.069 0 0.1 0 0-0.019 0-0.031 0-0.050 0.031 0 0.069 0 0.1 0 0-0.019 0-0.031 0-0.050 0.031 0 0.069 0 0.1 0 0-0.019 0-0.031 0-0.050 0.031 0 0.069 0 0.1 0 0-0.019 0-0.031 0-0.050 0.031 0 0.069 0 0.1 0 0-0.019 0-0.031 0-0.050 0.031 0 0.069 0 0.1 0 0-0.019 0-0.031 0-0.050 0.031 0 0.069 0 0.1 0 0-0.019 0-0.031 0-0.050 0.031 0 0.069 0 0.1 0 0-0.019 0-0.031 0-0.050 0.031 0 0.069 0 0.1 0 0-0.019 0-0.031 0-0.050 0.031 0 0.069 0 0.1 0 0-0.019 0-0.031 0-0.050 0.031 0 0.069 0 0.1 0 0-0.019 0-0.031 0-0.050 0.031 0 0.069 0 0.1 0 0-0.019 0-0.031 0-0.050 0.031 0 0.069 0 0.1 0 0-0.019 0-0.031 0-0.050 0.031 0 0.069 0 0.1 0 0-0.019 0-0.031 0-0.050 0.031 0 0.069 0 0.1 0 0-0.019 0-0.031 0-0.050 0.031 0 0.069 0 0.1 0 0-0.019 0-0.031 0-0.050 0.031 0 0.069 0 0.1 0 0-0.019 0-0.031 0-0.050 0.031 0 0.069 0 0.1 0 0-0.019 0-0.031 0-0.050 0.031 0 0.069 0 0.1 0 0-0.019 0-0.031 0-0.050 0.031 0 0.069 0 0.1 0 0-0.019 0-0.031 0-0.050 0.031 0 0.069 0 0.1 0 0-0.019 0-0.031 0-0.050 0.031 0 0.069 0 0.1 0 0-0.019 0-0.031 0-0.050 0.031 0 0.069 0 0.1 0 0-0.019 0-0.031 0-0.050 0.031 0 0.069 0 0.1 0 0-0.019 0-0.031 0-0.050 0.031 0 0.069 0 0.1 0 0-0.019 0-0.031 0-0.050 0.031 0 0.069 0 0.1 0 0-0.019 0-0.031 0-0.050 0.031 0 0.069 0 0.1 0 0-0.019 0-0.031 0-0.050 0.031 0 0.069 0 0.1 0 0-0.019 0-0.031 0-0.050 0.031 0 0.069 0 0.1 0 0-0.019 0-0.031 0-0.050 0.031 0 0.069 0 0.1 0 0-0.019 0-0.031 0-0.050 0.031 0 0.069 0 0.1 0 0-0.019 0-0.031 0-0.050 0.031 0 0.069 0 0.1 0 0-0.019 0-0.031 0-0.050 0.031 0 0.069 0 0.1 0 0-0.019 0-0.031 0-0.050 0.031 0 0.069 0 0.1 0 0-0.019 0-0.031 0-0.050 0.031 0 0.069 0 0.1 0 0-0.019 0-0.031 0-0.050 0.031 0 0.069 0 0.1 0 0-0.019 0-0.031 0-0.050 0.031 0 0.069 0 0.1 0 0-0.019 0-0.031 0-0.050 0.031 0 0.069 0 0.1 0 0-0.019 0-0.031 0-0.050 0.031 0 0.069 0 0.1 0 0-0.019 0-0.031 0-0.050 0.031 0 0.069 0 0.1 0 0-0.019 0-0.031 0-0.050 0.031 0 0.069 0 0.1 0 0-0.019 0-0.031 0-0.050 0.031 0 0.069 0 0.1 0 0-0.019 0-0.031 0-0.050 0.031 0 0.069 0 0.1 0 0-0.019 0-0.031 0-0.050 0.031 0 0.069 0 0.1 0 0-0.019 0-0.031 0-0.050 0.031 0 0.069 0 0.1 0 0-0.019 0-0.031 0-0.050 0.031 0 0.069 0 0.1 0 0-0.019 0-0.031 0-0.050 0.031 0 0.069 0 0.1 0 0-0.019 0-0.031 0-0.050 0.031 0 0.069 0 0.1 0 0-0.019 0-0.031 0-0.050 0.031 0 0.069 0 0.1 0 0-0.019 0-0.031 0-0.050 0.031 0 0.069 0 0.1 0 0-0.019 0-0.031 0-0.050 0.031 0 0.069 0 0.1 0 0-0.019 0-0.031 0-0.050 0.031 0 0.069 0 0.1 0 0-0.019 0-0.031 0-0.050 0.031 0 0.069 0 0.1 0 0-0.019 0-0.031 0-0.050 0.031 0 0.069 0 0.1 0 0-0.019 0-0.031 0-0.050 0.031 0 0.069 0 0.1 0 0-0.019 0-0.031 0-0.050 0.031 0 0.069 0 0.1 0 0-0.019 0-0.031 0-0.050 0.031 0 0.069 0 0.1 0 0-0.019 0-0.031 0-0.050 0.031 0 0.069 0 0.1 0 0-0.019 0-0.031 0-0.050 0.031 0 0.069 0 0.1 0 0-0.019 0-0.031 0-0.050 0.031 0 0.069 0 0.1 0 0-0.019 0-0.031 0-0.050 0.031 0 0.069 0 0.1 0 0-0.019 0-0.031 0-0.050 0.031 0 0.069 0 0.1 0 0-0.019 0-0.031 0-0.050 0.031 0 0.069 0 0.1 0 0-0.019 0-0.031 0-0.050 0.031 0 0.069 0 0.1 0 0-0.019 0-0.031 0-0.050 0.031 0 0.069 0 0.1 0 0-0.019 0-0.031 0-0.050 0.031 0 0.069 0 0.1 0 0-0.019 0-0.031 0-0.050 0.031 0 0.069 0 0.1 0 0-0.019 0-0.031 0-0.050 0.019 0 0.031 0 0.050 0 0 0.019 0 0.031 0 0.050 0.019 0 0.031 0 0.050 0 0 0.019 0 0.031 0 0.050 0.019 0 0.031 0 0.050 0 0 0.019 0 0.031 0 0.050 0.019 0 0.031 0 0.050 0 0 0.019 0 0.031 0 0.050 0.019 0 0.031 0 0.050 0 0 0.019 0 0.031 0 0.050 0.019 0 0.031 0 0.050 0 0 0.019 0 0.031 0 0.050 0.019 0 0.031 0 0.050 0 0 0.019 0 0.031 0 0.050 0.019 0 0.031 0 0.050 0 0 0.019 0 0.031 0 0.050 0.031 0 0.069 0 0.1 0 0 0.019 0 0.031 0 0.050 0.019 0 0.031 0 0.050 0 0 0.019 0 0.031 0 0.050 0.019 0 0.031 0 0.050 0 0 0.019 0 0.031 0 0.050 0.031 0 0.069 0 0.1 0 0 0.019 0 0.031 0 0.050 0.019 0 0.031 0 0.050 0 0 0.019 0 0.031 0 0.050 0.031 0 0.069 0 0.1 0 0 0.019 0 0.031 0 0.050 0.019 0 0.031 0 0.050 0 0 0.019 0 0.031 0 0.050 0.031 0 0.069 0 0.1 0 0 0.019 0 0.031 0 0.050 0.019 0 0.031 0 0.050 0 0 0.019 0 0.031 0 0.050 0.031 0 0.069 0 0.1 0 0 0.019 0 0.031 0 0.050 0.031 0 0.069 0 0.1 0 0 0.019 0 0.031 0 0.050 0.031 0 0.069 0 0.1 0 0 0.019 0 0.031 0 0.050 0.031 0 0.069 0 0.1 0 0 0.019 0 0.031 0 0.050 0.031 0 0.069 0 0.1 0 0 0.019 0 0.031 0 0.050 0.031 0 0.069 0 0.1 0 0 0.019 0 0.031 0 0.050 0.050 0 0.1 0 0.15 0 0 0.019 0 0.031 0 0.050 0.031 0 0.069 0 0.1 0 0 0.019 0 0.031 0 0.050 0.050 0 0.1 0 0.15 0 0 0.019 0 0.031 0 0.050 0.050 0 0.1 0 0.15 0 0 0.019 0 0.031 0 0.050 0.069 0 0.131 0 0.2 0 0 0.019 0 0.031 0 0.050 0.081 0 0.169 0 0.25 0 0 0.019 0 0.031 0 0.050 0.1 0 0.2 0 0.3 0 0 0.019 0 0.031 0 0.050 0.45 0 0.9 0 1.35 0v0zM7.9 16.5c-0.019 0-0.031 0-0.050 0 0 0.081 0 0.169 0 0.25-0.019 0-0.031 0-0.050 0 0 0.069 0 0.131 0 0.2-0.019 0-0.031 0-0.050 0 0 0.050 0 0.1 0 0.15-0.019 0-0.031 0-0.050 0 0 0.050 0 0.1 0 0.15-0.019 0-0.031 0-0.050 0 0 0.031 0 0.069 0 0.1-0.019 0-0.031 0-0.050 0 0 0.031 0 0.069 0 0.1-0.019 0-0.031 0-0.050 0 0 0.031 0 0.069 0 0.1-0.019 0-0.031 0-0.050 0 0 0.031 0 0.069 0 0.1-0.019 0-0.031 0-0.050 0 0 0.019 0 0.031 0 0.050-0.019 0-0.031 0-0.050 0 0 0.031 0 0.069 0 0.1-0.019 0-0.031 0-0.050 0 0 0.019 0 0.031 0 0.050-0.019 0-0.031 0-0.050 0 0 0.019 0 0.031 0 0.050-0.019 0-0.031 0-0.050 0 0 0.031 0 0.069 0 0.1-0.019 0-0.031 0-0.050 0 0 0.019 0 0.031 0 0.050-0.019 0-0.031 0-0.050 0 0 0.019 0 0.031 0 0.050-0.019 0-0.031 0-0.050 0 0 0.019 0 0.031 0 0.050-0.019 0-0.031 0-0.050 0 0 0.019 0 0.031 0 0.050-0.019 0-0.031 0-0.050 0 0 0.019 0 0.031 0 0.050-0.019 0-0.031 0-0.050 0 0 0.019 0 0.031 0 0.050-0.019 0-0.031 0-0.050 0 0 0.019 0 0.031 0 0.050-0.019 0-0.031 0-0.050 0 0 0.019 0 0.031 0 0.050-0.019 0-0.031 0-0.050 0 0 0.019 0 0.031 0 0.050-0.019 0-0.031 0-0.050 0 0 0.019 0 0.031 0 0.050-0.031 0-0.069 0-0.1 0 0 0.019 0 0.031 0 0.050-0.019 0-0.031 0-0.050 0 0 0.019 0 0.031 0 0.050-0.031 0-0.069 0-0.1 0 0 0.019 0 0.031 0 0.050-0.019 0-0.031 0-0.050 0 0 0.019 0 0.031 0 0.050-0.031 0-0.069 0-0.1 0 0 0.019 0 0.031 0 0.050-0.031 0-0.069 0-0.1 0 0 0.019 0 0.031 0 0.050-0.031 0-0.069 0-0.1 0 0 0.019 0 0.031 0 0.050-0.031 0-0.069 0-0.1 0 0 0.019 0 0.031 0 0.050-0.050 0-0.1 0-0.15 0 0 0.019 0 0.031 0 0.050-0.050 0-0.1 0-0.15 0 0 0.019 0 0.031 0 0.050-0.069 0-0.131 0-0.2 0 0 0.019 0 0.031 0 0.050-0.081 0-0.169 0-0.25 0 0 0.019 0 0.031 0 0.050-0.269 0-0.531 0-0.8 0 0-0.019 0-0.031 0-0.050-0.081 0-0.169 0-0.25 0 0-0.019 0-0.031 0-0.050-0.069 0-0.131 0-0.2 0 0-0.019 0-0.031 0-0.050-0.050 0-0.1 0-0.15 0 0-0.019 0-0.031 0-0.050-0.031 0-0.069 0-0.1 0 0-0.019 0-0.031 0-0.050-0.050 0-0.1 0-0.15 0 0-0.019 0-0.031 0-0.050-0.031 0-0.069 0-0.1 0 0-0.019 0-0.031 0-0.050-0.031 0-0.069 0-0.1 0 0-0.019 0-0.031 0-0.050-0.019 0-0.031 0-0.050 0 0-0.019 0-0.031 0-0.050-0.031 0-0.069 0-0.1 0 0-0.019 0-0.031 0-0.050-0.031 0-0.069 0-0.1 0 0-0.019 0-0.031 0-0.050-0.019 0-0.031 0-0.050 0 0-0.019 0-0.031 0-0.050-0.019 0-0.031 0-0.050 0 0-0.019 0-0.031 0-0.050-0.031 0-0.069 0-0.1 0 0-0.019 0-0.031 0-0.050-0.019 0-0.031 0-0.050 0 0-0.019 0-0.031 0-0.050-0.019 0-0.031 0-0.050 0 0-0.019 0-0.031 0-0.050-0.019 0-0.031 0-0.050 0 0-0.019 0-0.031 0-0.050-0.019 0-0.031 0-0.050 0 0-0.019 0-0.031 0-0.050-0.019 0-0.031 0-0.050 0 0-0.019 0-0.031 0-0.050-0.019 0-0.031 0-0.050 0 0-0.019 0-0.031 0-0.050-0.019 0-0.031 0-0.050 0 0-0.019 0-0.031 0-0.050-0.019 0-0.031 0-0.050 0 0-0.031 0-0.069 0-0.1-0.019 0-0.031 0-0.050 0 0-0.019 0-0.031 0-0.050-0.019 0-0.031 0-0.050 0 0-0.019 0-0.031 0-0.050-0.019 0-0.031 0-0.050 0 0-0.031 0-0.069 0-0.1-0.019 0-0.031 0-0.050 0 0-0.019 0-0.031 0-0.050-0.019 0-0.031 0-0.050 0 0-0.031 0-0.069 0-0.1-0.019 0-0.031 0-0.050 0 0-0.031 0-0.069 0-0.1-0.019 0-0.031 0-0.050 0 0-0.031 0-0.069 0-0.1-0.019 0-0.031 0-0.050 0 0-0.031 0-0.069 0-0.1-0.019 0-0.031 0-0.050 0 0-0.031 0-0.069 0-0.1-0.019 0-0.031 0-0.050 0 0-0.050 0-0.1 0-0.15-0.019 0-0.031 0-0.050 0 0-0.050 0-0.1 0-0.15-0.019 0-0.031 0-0.050 0 0-0.069 0-0.131 0-0.2-0.019 0-0.031 0-0.050 0 0-0.1 0-0.2 0-0.3-0.019 0-0.031 0-0.050 0 0-0.2 0-0.4 0-0.6 0.019 0 0.031 0 0.050 0 0-0.119 0-0.231 0-0.35 0.019 0 0.031 0 0.050 0 0-0.069 0-0.131 0-0.2 0.019 0 0.031 0 0.050 0 0-0.050 0-0.1 0-0.15 0.019 0 0.031 0 0.050 0 0-0.050 0-0.1 0-0.15 0.019 0 0.031 0 0.050 0 0-0.031 0-0.069 0-0.1 0.019 0 0.031 0 0.050 0 0-0.031 0-0.069 0-0.1 0.019 0 0.031 0 0.050 0 0-0.031 0-0.069 0-0.1 0.019 0 0.031 0 0.050 0 0-0.031 0-0.069 0-0.1 0.019 0 0.031 0 0.050 0 0-0.031 0-0.069 0-0.1 0.019 0 0.031 0 0.050 0 0-0.019 0-0.031 0-0.050 0.019 0 0.031 0 0.050 0 0-0.031 0-0.069 0-0.1 0.019 0 0.031 0 0.050 0 0-0.019 0-0.031 0-0.050 0.019 0 0.031 0 0.050 0 0-0.019 0-0.031 0-0.050 0.019 0 0.031 0 0.050 0 0-0.019 0-0.031 0-0.050 0.019 0 0.031 0 0.050 0 0-0.019 0-0.031 0-0.050 0.019 0 0.031 0 0.050 0 0-0.031 0-0.069 0-0.1 0.019 0 0.031 0 0.050 0 0-0.019 0-0.031 0-0.050 0.019 0 0.031 0 0.050 0 0-0.019 0-0.031 0-0.050 0.019 0 0.031 0 0.050 0 0-0.019 0-0.031 0-0.050 0.031 0 0.069 0 0.1 0 0-0.019 0-0.031 0-0.050 0.019 0 0.031 0 0.050 0 0-0.019 0-0.031 0-0.050 0.019 0 0.031 0 0.050 0 0-0.019 0-0.031 0-0.050 0.019 0 0.031 0 0.050 0 0-0.019 0-0.031 0-0.050 0.019 0 0.031 0 0.050 0 0-0.019 0-0.031 0-0.050 0.031 0 0.069 0 0.1 0 0-0.019 0-0.031 0-0.050 0.019 0 0.031 0 0.050 0 0-0.019 0-0.031 0-0.050 0.031 0 0.069 0 0.1 0 0-0.019 0-0.031 0-0.050 0.031 0 0.069 0 0.1 0 0-0.019 0-0.031 0-0.050 0.031 0 0.069 0 0.1 0 0-0.019 0-0.031 0-0.050 0.031 0 0.069 0 0.1 0 0-0.019 0-0.031 0-0.050 0.031 0 0.069 0 0.1 0 0-0.019 0-0.031 0-0.050 0.050 0 0.1 0 0.15 0 0-0.019 0-0.031 0-0.050 0.050 0 0.1 0 0.15 0 0-0.019 0-0.031 0-0.050 0.069 0 0.131 0 0.2 0 0-0.019 0-0.031 0-0.050 0.119 0 0.231 0 0.35 0 0-0.019 0-0.031 0-0.050 0.181 0 0.369 0 0.55 0 0 0.019 0 0.031 0 0.050 0.1 0 0.2 0 0.3 0 0 0.019 0 0.031 0 0.050 0.069 0 0.131 0 0.2 0 0 0.019 0 0.031 0 0.050 0.050 0 0.1 0 0.15 0 0 0.019 0 0.031 0 0.050 0.050 0 0.1 0 0.15 0 0 0.019 0 0.031 0 0.050 0.031 0 0.069 0 0.1 0 0 0.019 0 0.031 0 0.050 0.050 0 0.1 0 0.15 0 0 0.019 0 0.031 0 0.050 0.031 0 0.069 0 0.1 0 0 0.019 0 0.031 0 0.050 0.019 0 0.031 0 0.050 0 0 0.019 0 0.031 0 0.050 0.031 0 0.069 0 0.1 0 0 0.019 0 0.031 0 0.050 0.031 0 0.069 0 0.1 0 0 0.019 0 0.031 0 0.050 0.019 0 0.031 0 0.050 0 0 0.019 0 0.031 0 0.050 0.019 0 0.031 0 0.050 0 0 0.019 0 0.031 0 0.050 0.019 0 0.031 0 0.050 0 0 0.019 0 0.031 0 0.050 0.031 0 0.069 0 0.1 0 0 0.019 0 0.031 0 0.050 0.019 0 0.031 0 0.050 0 0 0.019 0 0.031 0 0.050 0.019 0 0.031 0 0.050 0 0 0.019 0 0.031 0 0.050 0.019 0 0.031 0 0.050 0 0 0.019 0 0.031 0 0.050 0.019 0 0.031 0 0.050 0 0 0.019 0 0.031 0 0.050 0.019 0 0.031 0 0.050 0 0 0.019 0 0.031 0 0.050 0.019 0 0.031 0 0.050 0 0 0.019 0 0.031 0 0.050 0.019 0 0.031 0 0.050 0 0 0.031 0 0.069 0 0.1 0.019 0 0.031 0 0.050 0 0 0.019 0 0.031 0 0.050 0.019 0 0.031 0 0.050 0 0 0.019 0 0.031 0 0.050 0.019 0 0.031 0 0.050 0 0 0.019 0 0.031 0 0.050 0.019 0 0.031 0 0.050 0 0 0.031 0 0.069 0 0.1 0.019 0 0.031 0 0.050 0 0 0.031 0 0.069 0 0.1 0.019 0 0.031 0 0.050 0 0 0.019 0 0.031 0 0.050 0.019 0 0.031 0 0.050 0 0 0.031 0 0.069 0 0.1 0.019 0 0.031 0 0.050 0 0 0.031 0 0.069 0 0.1 0.019 0 0.031 0 0.050 0 0 0.050 0 0.1 0 0.15 0.019 0 0.031 0 0.050 0 0 0.031 0 0.069 0 0.1 0.019 0 0.031 0 0.050 0 0 0.050 0 0.1 0 0.15 0.019 0 0.031 0 0.050 0 0 0.069 0 0.131 0 0.2 0.019 0 0.031 0 0.050 0 0 0.1 0 0.2 0 0.3 0.019 0 0.031 0 0.050 0 0 0.269 0 0.531 0 0.8v0zM23.95 26.75c0.019 0 0.031 0 0.050 0 0-0.119 0-0.231 0-0.35 0.019 0 0.031 0 0.050 0 0-0.069 0-0.131 0-0.2 0.019 0 0.031 0 0.050 0 0-0.050 0-0.1 0-0.15 0.019 0 0.031 0 0.050 0 0-0.050 0-0.1 0-0.15 0.019 0 0.031 0 0.050 0 0-0.050 0-0.1 0-0.15 0.019 0 0.031 0 0.050 0 0-0.031 0-0.069 0-0.1 0.019 0 0.031 0 0.050 0 0-0.031 0-0.069 0-0.1 0.019 0 0.031 0 0.050 0 0-0.019 0-0.031 0-0.050 0.019 0 0.031 0 0.050 0 0-0.031 0-0.069 0-0.1 0.019 0 0.031 0 0.050 0 0-0.031 0-0.069 0-0.1 0.019 0 0.031 0 0.050 0 0-0.019 0-0.031 0-0.050 0.019 0 0.031 0 0.050 0 0-0.019 0-0.031 0-0.050 0.019 0 0.031 0 0.050 0 0-0.031 0-0.069 0-0.1 0.019 0 0.031 0 0.050 0 0-0.019 0-0.031 0-0.050 0.019 0 0.031 0 0.050 0 0-0.019 0-0.031 0-0.050 0.019 0 0.031 0 0.050 0 0-0.019 0-0.031 0-0.050 0.019 0 0.031 0 0.050 0 0-0.019 0-0.031 0-0.050 0.019 0 0.031 0 0.050 0 0-0.019 0-0.031 0-0.050 0.019 0 0.031 0 0.050 0 0-0.019 0-0.031 0-0.050 0.019 0 0.031 0 0.050 0 0-0.019 0-0.031 0-0.050 0.019 0 0.031 0 0.050 0 0-0.019 0-0.031 0-0.050 0.019 0 0.031 0 0.050 0 0-0.019 0-0.031 0-0.050 0.019 0 0.031 0 0.050 0 0-0.019 0-0.031 0-0.050 0.031 0 0.069 0 0.1 0 0-0.019 0-0.031 0-0.050 0.019 0 0.031 0 0.050 0 0-0.019 0-0.031 0-0.050 0.019 0 0.031 0 0.050 0 0-0.019 0-0.031 0-0.050 0.031 0 0.069 0 0.1 0 0-0.019 0-0.031 0-0.050 0.031 0 0.069 0 0.1 0 0-0.019 0-0.031 0-0.050 0.019 0 0.031 0 0.050 0 0-0.019 0-0.031 0-0.050 0.031 0 0.069 0 0.1 0 0-0.019 0-0.031 0-0.050 0.050 0 0.1 0 0.15 0 0-0.019 0-0.031 0-0.050 0.031 0 0.069 0 0.1 0 0-0.019 0-0.031 0-0.050 0.050 0 0.1 0 0.15 0 0-0.019 0-0.031 0-0.050 0.050 0 0.1 0 0.15 0 0-0.019 0-0.031 0-0.050 0.081 0 0.169 0 0.25 0 0-0.019 0-0.031 0-0.050 0.169 0 0.331 0 0.5 0 0-0.019 0-0.031 0-0.050 0.019 0 0.031 0 0.050 0 0 0.019 0 0.031 0 0.050 0.169 0 0.331 0 0.5 0 0 0.019 0 0.031 0 0.050 0.069 0 0.131 0 0.2 0 0 0.019 0 0.031 0 0.050 0.069 0 0.131 0 0.2 0 0 0.019 0 0.031 0 0.050 0.050 0 0.1 0 0.15 0 0 0.019 0 0.031 0 0.050 0.031 0 0.069 0 0.1 0 0 0.019 0 0.031 0 0.050 0.031 0 0.069 0 0.1 0 0 0.019 0 0.031 0 0.050 0.031 0 0.069 0 0.1 0 0 0.019 0 0.031 0 0.050 0.031 0 0.069 0 0.1 0 0 0.019 0 0.031 0 0.050 0.031 0 0.069 0 0.1 0 0 0.019 0 0.031 0 0.050 0.019 0 0.031 0 0.050 0 0 0.019 0 0.031 0 0.050 0.031 0 0.069 0 0.1 0 0 0.019 0 0.031 0 0.050 0.019 0 0.031 0 0.050 0 0 0.019 0 0.031 0 0.050 0.019 0 0.031 0 0.050 0 0 0.019 0 0.031 0 0.050 0.019 0 0.031 0 0.050 0 0 0.019 0 0.031 0 0.050 0.031 0 0.069 0 0.1 0 0 0.019 0 0.031 0 0.050 0.019 0 0.031 0 0.050 0 0 0.019 0 0.031 0 0.050 0.019 0 0.031 0 0.050 0 0 0.019 0 0.031 0 0.050 0.019 0 0.031 0 0.050 0 0 0.019 0 0.031 0 0.050 0.019 0 0.031 0 0.050 0 0 0.019 0 0.031 0 0.050 0.019 0 0.031 0 0.050 0 0 0.019 0 0.031 0 0.050 0.019 0 0.031 0 0.050 0 0 0.031 0 0.069 0 0.1 0.019 0 0.031 0 0.050 0 0 0.019 0 0.031 0 0.050 0.019 0 0.031 0 0.050 0 0 0.019 0 0.031 0 0.050 0.019 0 0.031 0 0.050 0 0 0.031 0 0.069 0 0.1 0.019 0 0.031 0 0.050 0 0 0.019 0 0.031 0 0.050 0.019 0 0.031 0 0.050 0 0 0.031 0 0.069 0 0.1 0.019 0 0.031 0 0.050 0 0 0.019 0 0.031 0 0.050 0.019 0 0.031 0 0.050 0 0 0.031 0 0.069 0 0.1 0.019 0 0.031 0 0.050 0 0 0.031 0 0.069 0 0.1 0.019 0 0.031 0 0.050 0 0 0.050 0 0.1 0 0.15 0.019 0 0.031 0 0.050 0 0 0.031 0 0.069 0 0.1 0.019 0 0.031 0 0.050 0 0 0.050 0 0.1 0 0.15 0.019 0 0.031 0 0.050 0 0 0.069 0 0.131 0 0.2 0.019 0 0.031 0 0.050 0 0 0.081 0 0.169 0 0.25 0.019 0 0.031 0 0.050 0 0 0.3 0 0.6 0 0.9-0.019 0-0.031 0-0.050 0 0 0.081 0 0.169 0 0.25-0.019 0-0.031 0-0.050 0 0 0.050 0 0.1 0 0.15-0.019 0-0.031 0-0.050 0 0 0.050 0 0.1 0 0.15-0.019 0-0.031 0-0.050 0 0 0.050 0 0.1 0 0.15-0.019 0-0.031 0-0.050 0 0 0.031 0 0.069 0 0.1-0.019 0-0.031 0-0.050 0 0 0.031 0 0.069 0 0.1-0.019 0-0.031 0-0.050 0 0 0.031 0 0.069 0 0.1-0.019 0-0.031 0-0.050 0 0 0.031 0 0.069 0 0.1-0.019 0-0.031 0-0.050 0 0 0.031 0 0.069 0 0.1-0.019 0-0.031 0-0.050 0 0 0.019 0 0.031 0 0.050-0.019 0-0.031 0-0.050 0 0 0.031 0 0.069 0 0.1-0.019 0-0.031 0-0.050 0 0 0.019 0 0.031 0 0.050-0.019 0-0.031 0-0.050 0 0 0.019 0 0.031 0 0.050-0.019 0-0.031 0-0.050 0 0 0.019 0 0.031 0 0.050-0.019 0-0.031 0-0.050 0 0 0.019 0 0.031 0 0.050-0.019 0-0.031 0-0.050 0 0 0.019 0 0.031 0 0.050-0.019 0-0.031 0-0.050 0 0 0.019 0 0.031 0 0.050-0.019 0-0.031 0-0.050 0 0 0.019 0 0.031 0 0.050-0.019 0-0.031 0-0.050 0 0 0.019 0 0.031 0 0.050-0.019 0-0.031 0-0.050 0 0 0.019 0 0.031 0 0.050-0.019 0-0.031 0-0.050 0 0 0.019 0 0.031 0 0.050-0.019 0-0.031 0-0.050 0 0 0.019 0 0.031 0 0.050-0.019 0-0.031 0-0.050 0 0 0.019 0 0.031 0 0.050-0.019 0-0.031 0-0.050 0 0 0.019 0 0.031 0 0.050-0.031 0-0.069 0-0.1 0 0 0.019 0 0.031 0 0.050-0.019 0-0.031 0-0.050 0 0 0.019 0 0.031 0 0.050-0.031 0-0.069 0-0.1 0 0 0.019 0 0.031 0 0.050-0.019 0-0.031 0-0.050 0 0 0.019 0 0.031 0 0.050-0.031 0-0.069 0-0.1 0 0 0.019 0 0.031 0 0.050-0.031 0-0.069 0-0.1 0 0 0.019 0 0.031 0 0.050-0.050 0-0.1 0-0.15 0 0 0.019 0 0.031 0 0.050-0.031 0-0.069 0-0.1 0 0 0.019 0 0.031 0 0.050-0.050 0-0.1 0-0.15 0 0 0.019 0 0.031 0 0.050-0.050 0-0.1 0-0.15 0 0 0.019 0 0.031 0 0.050-0.081 0-0.169 0-0.25 0 0 0.019 0 0.031 0 0.050-0.319 0-0.631 0-0.95 0 0-0.019 0-0.031 0-0.050-0.081 0-0.169 0-0.25 0 0-0.019 0-0.031 0-0.050-0.069 0-0.131 0-0.2 0 0-0.019 0-0.031 0-0.050-0.031 0-0.069 0-0.1 0 0-0.019 0-0.031 0-0.050-0.050 0-0.1 0-0.15 0 0-0.019 0-0.031 0-0.050-0.031 0-0.069 0-0.1 0 0-0.019 0-0.031 0-0.050-0.031 0-0.069 0-0.1 0 0-0.019 0-0.031 0-0.050-0.031 0-0.069 0-0.1 0 0-0.019 0-0.031 0-0.050-0.031 0-0.069 0-0.1 0 0-0.019 0-0.031 0-0.050-0.019 0-0.031 0-0.050 0 0-0.019 0-0.031 0-0.050-0.031 0-0.069 0-0.1 0 0-0.019 0-0.031 0-0.050-0.019 0-0.031 0-0.050 0 0-0.019 0-0.031 0-0.050-0.019 0-0.031 0-0.050 0 0-0.019 0-0.031 0-0.050-0.031 0-0.069 0-0.1 0 0-0.019 0-0.031 0-0.050-0.019 0-0.031 0-0.050 0 0-0.019 0-0.031 0-0.050-0.019 0-0.031 0-0.050 0 0-0.019 0-0.031 0-0.050-0.019 0-0.031 0-0.050 0 0-0.019 0-0.031 0-0.050-0.019 0-0.031 0-0.050 0 0-0.019 0-0.031 0-0.050-0.019 0-0.031 0-0.050 0 0-0.019 0-0.031 0-0.050-0.019 0-0.031 0-0.050 0 0-0.019 0-0.031 0-0.050-0.019 0-0.031 0-0.050 0 0-0.019 0-0.031 0-0.050-0.019 0-0.031 0-0.050 0 0-0.019 0-0.031 0-0.050-0.019 0-0.031 0-0.050 0 0-0.031 0-0.069 0-0.1-0.019 0-0.031 0-0.050 0 0-0.019 0-0.031 0-0.050-0.019 0-0.031 0-0.050 0 0-0.031 0-0.069 0-0.1-0.019 0-0.031 0-0.050 0 0-0.019 0-0.031 0-0.050-0.019 0-0.031 0-0.050 0 0-0.031 0-0.069 0-0.1-0.019 0-0.031 0-0.050 0 0-0.031 0-0.069 0-0.1-0.019 0-0.031 0-0.050 0 0-0.031 0-0.069 0-0.1-0.019 0-0.031 0-0.050 0 0-0.031 0-0.069 0-0.1-0.019 0-0.031 0-0.050 0 0-0.031 0-0.069 0-0.1-0.019 0-0.031 0-0.050 0 0-0.050 0-0.1 0-0.15-0.019 0-0.031 0-0.050 0 0-0.050 0-0.1 0-0.15-0.019 0-0.031 0-0.050 0 0-0.069 0-0.131 0-0.2-0.019 0-0.031 0-0.050 0 0-0.119 0-0.231 0-0.35-0.019 0-0.031 0-0.050 0 0-0.169 0-0.331 0-0.5v0zM26.1 7.8c0-0.019 0-0.031 0-0.050-0.050 0-0.1 0-0.15 0 0-0.019 0-0.031 0-0.050-0.031 0-0.069 0-0.1 0 0-0.019 0-0.031 0-0.050-0.031 0-0.069 0-0.1 0 0-0.019 0-0.031 0-0.050-0.031 0-0.069 0-0.1 0 0-0.019 0-0.031 0-0.050-0.031 0-0.069 0-0.1 0 0-0.019 0-0.031 0-0.050-0.031 0-0.069 0-0.1 0 0-0.019 0-0.031 0-0.050-0.019 0-0.031 0-0.050 0 0-0.019 0-0.031 0-0.050-0.031 0-0.069 0-0.1 0 0-0.019 0-0.031 0-0.050-0.019 0-0.031 0-0.050 0 0-0.019 0-0.031 0-0.050-0.031 0-0.069 0-0.1 0 0-0.019 0-0.031 0-0.050-0.019 0-0.031 0-0.050 0 0-0.019 0-0.031 0-0.050-0.019 0-0.031 0-0.050 0 0-0.019 0-0.031 0-0.050-0.019 0-0.031 0-0.050 0 0-0.019 0-0.031 0-0.050-0.019 0-0.031 0-0.050 0 0-0.019 0-0.031 0-0.050-0.019 0-0.031 0-0.050 0 0-0.019 0-0.031 0-0.050-0.019 0-0.031 0-0.050 0 0-0.019 0-0.031 0-0.050-0.019 0-0.031 0-0.050 0 0-0.019 0-0.031 0-0.050-0.019 0-0.031 0-0.050 0 0-0.019 0-0.031 0-0.050-0.019 0-0.031 0-0.050 0 0-0.019 0-0.031 0-0.050-0.019 0-0.031 0-0.050 0 0-0.031 0-0.069 0-0.1-0.019 0-0.031 0-0.050 0 0-0.019 0-0.031 0-0.050-0.019 0-0.031 0-0.050 0 0-0.019 0-0.031 0-0.050-0.019 0-0.031 0-0.050 0 0-0.031 0-0.069 0-0.1-0.019 0-0.031 0-0.050 0 0-0.031 0-0.069 0-0.1-0.019 0-0.031 0-0.050 0 0-0.031 0-0.069 0-0.1-0.019 0-0.031 0-0.050 0 0-0.031 0-0.069 0-0.1-0.019 0-0.031 0-0.050 0 0-0.031 0-0.069 0-0.1-0.019 0-0.031 0-0.050 0 0-0.031 0-0.069 0-0.1-0.019 0-0.031 0-0.050 0 0-0.050 0-0.1 0-0.15-0.019 0-0.031 0-0.050 0 0-0.050 0-0.1 0-0.15-0.019 0-0.031 0-0.050 0 0-0.069 0-0.131 0-0.2-0.019 0-0.031 0-0.050 0 0-0.119 0-0.231 0-0.35-0.019 0-0.031 0-0.050 0 0-0.169 0-0.331 0-0.5 0.019 0 0.031 0 0.050 0 0-0.119 0-0.231 0-0.35 0.019 0 0.031 0 0.050 0 0-0.069 0-0.131 0-0.2 0.019 0 0.031 0 0.050 0 0-0.050 0-0.1 0-0.15 0.019 0 0.031 0 0.050 0 0-0.050 0-0.1 0-0.15 0.019 0 0.031 0 0.050 0 0-0.031 0-0.069 0-0.1 0.019 0 0.031 0 0.050 0 0-0.050 0-0.1 0-0.15 0.019 0 0.031 0 0.050 0 0-0.031 0-0.069 0-0.1 0.019 0 0.031 0 0.050 0 0-0.019 0-0.031 0-0.050 0.019 0 0.031 0 0.050 0 0-0.031 0-0.069 0-0.1 0.019 0 0.031 0 0.050 0 0-0.031 0-0.069 0-0.1 0.019 0 0.031 0 0.050 0 0-0.019 0-0.031 0-0.050 0.019 0 0.031 0 0.050 0 0-0.019 0-0.031 0-0.050 0.019 0 0.031 0 0.050 0 0-0.031 0-0.069 0-0.1 0.019 0 0.031 0 0.050 0 0-0.019 0-0.031 0-0.050 0.019 0 0.031 0 0.050 0 0-0.019 0-0.031 0-0.050 0.019 0 0.031 0 0.050 0 0-0.019 0-0.031 0-0.050 0.019 0 0.031 0 0.050 0 0-0.019 0-0.031 0-0.050 0.019 0 0.031 0 0.050 0 0-0.019 0-0.031 0-0.050 0.019 0 0.031 0 0.050 0 0-0.019 0-0.031 0-0.050 0.019 0 0.031 0 0.050 0 0-0.019 0-0.031 0-0.050 0.019 0 0.031 0 0.050 0 0-0.019 0-0.031 0-0.050 0.019 0 0.031 0 0.050 0 0-0.019 0-0.031 0-0.050 0.019 0 0.031 0 0.050 0 0-0.019 0-0.031 0-0.050 0.031 0 0.069 0 0.1 0 0-0.019 0-0.031 0-0.050 0.019 0 0.031 0 0.050 0 0-0.019 0-0.031 0-0.050 0.019 0 0.031 0 0.050 0 0-0.019 0-0.031 0-0.050 0.031 0 0.069 0 0.1 0 0-0.019 0-0.031 0-0.050 0.031 0 0.069 0 0.1 0 0-0.019 0-0.031 0-0.050 0.019 0 0.031 0 0.050 0 0-0.019 0-0.031 0-0.050 0.031 0 0.069 0 0.1 0 0-0.019 0-0.031 0-0.050 0.050 0 0.1 0 0.15 0 0-0.019 0-0.031 0-0.050 0.031 0 0.069 0 0.1 0 0-0.019 0-0.031 0-0.050 0.050 0 0.1 0 0.15 0 0-0.019 0-0.031 0-0.050 0.050 0 0.1 0 0.15 0 0-0.019 0-0.031 0-0.050 0.081 0 0.169 0 0.25 0 0-0.019 0-0.031 0-0.050 0.35 0 0.7 0 1.050 0 0 0.019 0 0.031 0 0.050 0.069 0 0.131 0 0.2 0 0 0.019 0 0.031 0 0.050 0.069 0 0.131 0 0.2 0 0 0.019 0 0.031 0 0.050 0.050 0 0.1 0 0.15 0 0 0.019 0 0.031 0 0.050 0.031 0 0.069 0 0.1 0 0 0.019 0 0.031 0 0.050 0.031 0 0.069 0 0.1 0 0 0.019 0 0.031 0 0.050 0.031 0 0.069 0 0.1 0 0 0.019 0 0.031 0 0.050 0.031 0 0.069 0 0.1 0 0 0.019 0 0.031 0 0.050 0.031 0 0.069 0 0.1 0 0 0.019 0 0.031 0 0.050 0.019 0 0.031 0 0.050 0 0 0.019 0 0.031 0 0.050 0.031 0 0.069 0 0.1 0 0 0.019 0 0.031 0 0.050 0.019 0 0.031 0 0.050 0 0 0.019 0 0.031 0 0.050 0.019 0 0.031 0 0.050 0 0 0.019 0 0.031 0 0.050 0.019 0 0.031 0 0.050 0 0 0.019 0 0.031 0 0.050 0.031 0 0.069 0 0.1 0 0 0.019 0 0.031 0 0.050 0.019 0 0.031 0 0.050 0 0 0.019 0 0.031 0 0.050 0.019 0 0.031 0 0.050 0 0 0.019 0 0.031 0 0.050 0.019 0 0.031 0 0.050 0 0 0.019 0 0.031 0 0.050 0.019 0 0.031 0 0.050 0 0 0.019 0 0.031 0 0.050 0.019 0 0.031 0 0.050 0 0 0.019 0 0.031 0 0.050 0.019 0 0.031 0 0.050 0 0 0.031 0 0.069 0 0.1 0.019 0 0.031 0 0.050 0 0 0.019 0 0.031 0 0.050 0.019 0 0.031 0 0.050 0 0 0.019 0 0.031 0 0.050 0.019 0 0.031 0 0.050 0 0 0.031 0 0.069 0 0.1 0.019 0 0.031 0 0.050 0 0 0.019 0 0.031 0 0.050 0.019 0 0.031 0 0.050 0 0 0.031 0 0.069 0 0.1 0.019 0 0.031 0 0.050 0 0 0.019 0 0.031 0 0.050 0.019 0 0.031 0 0.050 0 0 0.031 0 0.069 0 0.1 0.019 0 0.031 0 0.050 0 0 0.031 0 0.069 0 0.1 0.019 0 0.031 0 0.050 0 0 0.050 0 0.1 0 0.15 0.019 0 0.031 0 0.050 0 0 0.031 0 0.069 0 0.1 0.019 0 0.031 0 0.050 0 0 0.050 0 0.1 0 0.15 0.019 0 0.031 0 0.050 0 0 0.069 0 0.131 0 0.2 0.019 0 0.031 0 0.050 0 0 0.081 0 0.169 0 0.25 0.019 0 0.031 0 0.050 0 0 0.3 0 0.6 0 0.9-0.019 0-0.031 0-0.050 0 0 0.081 0 0.169 0 0.25-0.019 0-0.031 0-0.050 0 0 0.069 0 0.131 0 0.2-0.019 0-0.031 0-0.050 0 0 0.050 0 0.1 0 0.15-0.019 0-0.031 0-0.050 0 0 0.031 0 0.069 0 0.1-0.019 0-0.031 0-0.050 0 0 0.031 0 0.069 0 0.1-0.019 0-0.031 0-0.050 0 0 0.031 0 0.069 0 0.1-0.019 0-0.031 0-0.050 0 0 0.031 0 0.069 0 0.1-0.019 0-0.031 0-0.050 0 0 0.031 0 0.069 0 0.1-0.019 0-0.031 0-0.050 0 0 0.031 0 0.069 0 0.1-0.019 0-0.031 0-0.050 0 0 0.019 0 0.031 0 0.050-0.019 0-0.031 0-0.050 0 0 0.031 0 0.069 0 0.1-0.019 0-0.031 0-0.050 0 0 0.019 0 0.031 0 0.050-0.019 0-0.031 0-0.050 0 0 0.019 0 0.031 0 0.050-0.019 0-0.031 0-0.050 0 0 0.019 0 0.031 0 0.050-0.019 0-0.031 0-0.050 0 0 0.019 0 0.031 0 0.050-0.019 0-0.031 0-0.050 0 0 0.019 0 0.031 0 0.050-0.019 0-0.031 0-0.050 0 0 0.019 0 0.031 0 0.050-0.019 0-0.031 0-0.050 0 0 0.019 0 0.031 0 0.050-0.019 0-0.031 0-0.050 0 0 0.019 0 0.031 0 0.050-0.019 0-0.031 0-0.050 0 0 0.019 0 0.031 0 0.050-0.019 0-0.031 0-0.050 0 0 0.019 0 0.031 0 0.050-0.019 0-0.031 0-0.050 0 0 0.019 0 0.031 0 0.050-0.019 0-0.031 0-0.050 0 0 0.019 0 0.031 0 0.050-0.019 0-0.031 0-0.050 0 0 0.019 0 0.031 0 0.050-0.031 0-0.069 0-0.1 0 0 0.019 0 0.031 0 0.050-0.019 0-0.031 0-0.050 0 0 0.019 0 0.031 0 0.050-0.031 0-0.069 0-0.1 0 0 0.019 0 0.031 0 0.050-0.019 0-0.031 0-0.050 0 0 0.019 0 0.031 0 0.050-0.031 0-0.069 0-0.1 0 0 0.019 0 0.031 0 0.050-0.031 0-0.069 0-0.1 0 0 0.019 0 0.031 0 0.050-0.031 0-0.069 0-0.1 0 0 0.019 0 0.031 0 0.050-0.050 0-0.1 0-0.15 0 0 0.019 0 0.031 0 0.050-0.050 0-0.1 0-0.15 0 0 0.019 0 0.031 0 0.050-0.050 0-0.1 0-0.15 0 0 0.019 0 0.031 0 0.050-0.081 0-0.169 0-0.25 0 0 0.019 0 0.031 0 0.050-0.319 0-0.631 0-0.95 0 0-0.019 0-0.031 0-0.050-0.081 0-0.169 0-0.25 0 0-0.019 0-0.031 0-0.050-0.069 0-0.131 0-0.2 0z"></path>
</svg>
