<!-- Generated by IcoMoon.io -->
<svg version="1.1" xmlns="http://www.w3.org/2000/svg" width="32" height="32" viewBox="0 0 32 32">
<title>sort-alpha-asc</title>
<path d="M10 24v-24h-4v24h-5l7 7 7-7h-5z"></path>
<path d="M29 32h-8c-0.369 0-0.706-0.2-0.881-0.531-0.175-0.325-0.156-0.719 0.050-1.025l6.963-10.444h-6.131c-0.55 0-1-0.45-1-1s0.45-1 1-1h8c0.369 0 0.706 0.2 0.881 0.531 0.175 0.325 0.156 0.719-0.050 1.025l-6.963 10.444h6.131c0.55 0 1 0.45 1 1s-0.45 1-1 1v0z"></path>
<path d="M31.894 12.55l-6-12c-0.169-0.338-0.512-0.55-0.894-0.55s-0.725 0.212-0.894 0.55l-6 12c-0.25 0.494-0.044 1.094 0.45 1.344 0.144 0.069 0.294 0.106 0.444 0.106 0.369 0 0.719-0.2 0.894-0.55l1.725-3.45h6.762l1.725 3.45c0.25 0.494 0.85 0.694 1.344 0.45 0.494-0.25 0.694-0.856 0.444-1.35v0zM22.619 8l2.381-4.763 2.381 4.763h-4.762z"></path>
</svg>
