<!-- Generated by IcoMoon.io -->
<svg version="1.1" xmlns="http://www.w3.org/2000/svg" width="32" height="32" viewBox="0 0 32 32">
<title>spin3</title>
<path d="M3.781 22.425l3.469-1.819c1.169 2.419 3.169 4.225 5.631 5.075 5.081 1.75 10.575-1.144 12.25-6.456l-2.806-0.587 7.012-5.631 2.563 8.619-3.087-1.119c-2.344 7.431-10.037 11.488-17.15 9.031-3.45-1.188-6.25-3.712-7.881-7.113v0zM2.388 19.163l-2.244-9.019 2.875 1.469c2.344-7.431 10.044-11.488 17.15-9.037 3.45 1.188 6.25 3.713 7.881 7.112l-3.469 1.819c-1.169-2.419-3.169-4.231-5.631-5.081-5.081-1.75-10.575 1.144-12.25 6.456l3.55 0.594-7.862 5.688zM11.088 14.563h10.55v2.85h-10.55v-2.85z"></path>
</svg>
