<!-- Generated by IcoMoon.io -->
<svg version="1.1" xmlns="http://www.w3.org/2000/svg" width="32" height="32" viewBox="0 0 32 32">
<title>spinner6</title>
<path d="M12 4c0-2.206 1.794-4 4-4s4 1.794 4 4-1.794 4-4 4-4-1.794-4-4zM24.719 16v0c0-1.813 1.469-3.281 3.281-3.281s3.281 1.469 3.281 3.281v0c0 1.813-1.469 3.281-3.281 3.281s-3.281-1.469-3.281-3.281zM21.512 24.488c0-1.644 1.331-2.975 2.975-2.975s2.975 1.331 2.975 2.975-1.331 2.975-2.975 2.975-2.975-1.337-2.975-2.975zM13.306 28c0-1.488 1.206-2.694 2.694-2.694s2.694 1.206 2.694 2.694c0 1.488-1.206 2.694-2.694 2.694s-2.694-1.206-2.694-2.694zM5.075 24.488c0-1.344 1.094-2.438 2.438-2.438s2.437 1.094 2.437 2.438-1.094 2.438-2.438 2.438-2.438-1.094-2.438-2.438zM1.794 16c0-1.219 0.988-2.206 2.206-2.206s2.206 0.988 2.206 2.206-0.987 2.206-2.206 2.206-2.206-0.988-2.206-2.206zM5.513 7.513v0c0-1.106 0.894-2 2-2s2 0.894 2 2v0c0 1.106-0.894 2-2 2s-2-0.894-2-2zM28.106 7.513c0 2-1.625 3.625-3.625 3.625s-3.625-1.625-3.625-3.625c0-2 1.625-3.625 3.625-3.625 2.006 0.006 3.625 1.625 3.625 3.625z"></path>
</svg>
