<!-- Generated by IcoMoon.io -->
<svg version="1.1" xmlns="http://www.w3.org/2000/svg" width="32" height="32" viewBox="0 0 32 32">
<title>square-o</title>
<path d="M25.387 2.994h-18.756c-1.987 0-3.606 1.625-3.606 3.606v18.762c0 1.988 1.625 3.606 3.606 3.606h18.762c1.988 0 3.606-1.625 3.606-3.606v-18.762c0-1.981-1.625-3.606-3.613-3.606v0zM31.881 6.6v18.762c0 3.587-2.906 6.494-6.494 6.494h-18.756c-3.587 0-6.494-2.906-6.494-6.494v-18.762c-0.006-3.581 2.906-6.494 6.494-6.494h18.762c3.581 0 6.488 2.913 6.488 6.494v0z"></path>
</svg>
