<!-- Generated by IcoMoon.io -->
<svg version="1.1" xmlns="http://www.w3.org/2000/svg" width="32" height="32" viewBox="0 0 32 32">
<title>star-half-empty</title>
<path d="M22.706 18.438l4.906-4.769-8.056-1.181-0.575-1.144-3.031-6.144v18.375l7.194 3.8-1.144-6.781-0.231-1.262 0.938-0.894zM31.331 13.438l-6.925 6.756 1.644 9.544c0.131 0.837-0.169 1.337-0.762 1.337-0.212 0-0.475-0.075-0.762-0.231l-8.569-4.506-8.569 4.506c-0.287 0.15-0.556 0.231-0.763 0.231-0.594 0-0.9-0.494-0.763-1.337l1.638-9.544-6.95-6.756c-0.819-0.819-0.556-1.625 0.594-1.794l9.581-1.394 4.294-8.681c0.25-0.512 0.594-0.781 0.938-0.781v0c0.344 0 0.669 0.269 0.938 0.781l4.288 8.681 9.581 1.394c1.144 0.175 1.412 0.975 0.569 1.794v0z"></path>
</svg>
