<!-- Generated by IcoMoon.io -->
<svg version="1.1" xmlns="http://www.w3.org/2000/svg" width="32" height="32" viewBox="0 0 32 32">
<title>star</title>
<path d="M31.887 12.65c0 0.344-0.25 0.669-0.494 0.919l-6.925 6.75 1.644 9.538c0.019 0.131 0.019 0.25 0.019 0.381 0 0.494-0.231 0.956-0.781 0.956-0.269 0-0.531-0.094-0.762-0.231l-8.569-4.5-8.569 4.5c-0.25 0.131-0.494 0.231-0.763 0.231-0.556 0-0.8-0.456-0.8-0.956 0-0.131 0.019-0.25 0.037-0.381l1.638-9.538-6.95-6.756c-0.231-0.25-0.475-0.575-0.475-0.919 0-0.575 0.594-0.8 1.069-0.875l9.581-1.394 4.294-8.681c0.169-0.363 0.494-0.781 0.938-0.781s0.762 0.419 0.938 0.781l4.288 8.681 9.581 1.394c0.45 0.075 1.063 0.306 1.063 0.881v0z"></path>
</svg>
