<!-- Generated by IcoMoon.io -->
<svg version="1.1" xmlns="http://www.w3.org/2000/svg" width="32" height="32" viewBox="0 0 32 32">
<title>terms</title>
<path d="M14.531 20.175c0 1.663-1.363 3.006-3.037 3.006s-3.037-1.344-3.037-3.006c0-1.663 1.363-3.006 3.037-3.006v0c1.681 0.006 3.037 1.35 3.037 3.006v0zM11.756 27.394h19.688v2.956h-19.688v-2.956zM10.481 28.875c0 1.663-1.363 3.006-3.037 3.006s-3.037-1.35-3.037-3.006c0-1.663 1.362-3.006 3.037-3.006v0c1.681 0 3.037 1.344 3.037 3.006v0 0zM10.481 11.494c0 1.662-1.363 3.006-3.037 3.006s-3.037-1.344-3.037-3.006c0-1.662 1.362-3.006 3.037-3.006v0c1.681 0 3.037 1.344 3.037 3.006v0zM11.756 10.006h19.688v3.006h-19.688v-3.006zM15.813 18.694h15.694v3.006h-15.725l0.031-3.006zM7.65 1.663h23.881v3.006h-23.913l0.031-3.006zM6.431 3.138c0 1.663-1.362 3.006-3.038 3.006s-3.038-1.35-3.038-3.006 1.363-3.006 3.038-3.006v0c1.681 0 3.038 1.344 3.038 3.006v0z"></path>
</svg>
