<!-- Generated by IcoMoon.io -->
<svg version="1.1" xmlns="http://www.w3.org/2000/svg" width="32" height="32" viewBox="0 0 32 32">
<title>tree</title>
<path d="M30.387 22.944h-0.494v-6.45c0-1.912-1.556-3.475-3.475-3.475h-8.431v-3.969h0.494c0.819 0 1.488-0.669 1.488-1.487v-4.956c0-0.819-0.669-1.488-1.488-1.488h-4.963c-0.819 0-1.488 0.669-1.488 1.488v4.963c0 0.819 0.669 1.488 1.488 1.488h0.494v3.969h-8.431c-1.913 0-3.475 1.556-3.475 3.475v6.45h-0.494c-0.819-0.006-1.488 0.663-1.488 1.481v4.963c0 0.819 0.669 1.488 1.488 1.488h4.963c0.819 0 1.488-0.669 1.488-1.488v-4.962c0-0.819-0.669-1.488-1.487-1.488h-0.494v-5.95h7.938v5.95h-0.494c-0.819 0-1.488 0.669-1.488 1.488v4.962c0 0.819 0.669 1.488 1.488 1.488h4.963c0.819 0 1.488-0.669 1.488-1.488v-4.962c0-0.819-0.669-1.488-1.488-1.488h-0.494v-5.95h7.938v5.95h-0.494c-0.819 0-1.488 0.669-1.488 1.488v4.962c0 0.819 0.669 1.488 1.488 1.488h4.962c0.819 0 1.488-0.669 1.488-1.488v-4.962c-0.012-0.819-0.681-1.488-1.5-1.488zM6.075 28.9h-3.962v-3.969h3.969v3.969zM17.988 28.9h-3.969v-3.969h3.969v3.969zM14.012 7.069v-3.969h3.969v3.969h-3.969zM29.887 28.9h-3.969v-3.969h3.969v3.969z"></path>
</svg>
