<!-- Generated by IcoMoon.io -->
<svg version="1.1" xmlns="http://www.w3.org/2000/svg" width="32" height="32" viewBox="0 0 32 32">
<title>twitter</title>
<path d="M16 0.125c-8.769 0-15.875 7.106-15.875 15.875s7.106 15.875 15.875 15.875 15.875-7.106 15.875-15.875-7.106-15.875-15.875-15.875zM25.125 11.319c0.006 0.2 0.012 0.406 0.012 0.606 0 6.219-4.738 13.394-13.394 13.394-2.656 0-5.131-0.781-7.219-2.113 0.369 0.044 0.744 0.069 1.125 0.069 2.206 0 4.238-0.75 5.844-2.012-2.063-0.038-3.8-1.4-4.4-3.269 0.287 0.056 0.581 0.087 0.888 0.087 0.431 0 0.844-0.056 1.237-0.163-2.156-0.431-3.775-2.338-3.775-4.619 0-0.019 0-0.037 0-0.056 0.638 0.35 1.362 0.563 2.131 0.588-1.263-0.844-2.094-2.287-2.094-3.919 0-0.863 0.231-1.669 0.638-2.369 2.319 2.85 5.787 4.725 9.7 4.919-0.081-0.344-0.119-0.706-0.119-1.075 0-2.6 2.106-4.706 4.706-4.706 1.356 0 2.575 0.569 3.438 1.487 1.075-0.213 2.081-0.6 2.988-1.144-0.35 1.1-1.1 2.019-2.069 2.606 0.95-0.113 1.856-0.369 2.706-0.744-0.625 0.938-1.425 1.769-2.344 2.431z"></path>
</svg>
