<!-- Generated by IcoMoon.io -->
<svg version="1.1" xmlns="http://www.w3.org/2000/svg" width="32" height="32" viewBox="0 0 32 32">
<title>upload</title>
<path d="M10.969 7.638c0.244 0 4.869-7.5 5.113-7.5 0.119 0.356 4.988 7.294 5.106 7.65 0.119 0 0 0 0.119 0 0 0.237 0-0.237 0 0 0.244 0.119-3.65-5.144-3.406-5.025 0 0.237 3.406 4.781 3.406 5.025 0.244 0.119-2.919-4.069-2.675-3.95 0 0.237 2.556 3.706 2.556 3.95 0.244 0.119-2.069-2.987-1.825-2.869 0 0.237 1.8 2.681 1.944 2.869 0.438 0.544-1.306-1.519-0.944-1.281 0 0.237 0.944 1.044 0.944 1.281 0.156 0.225-0.369-0.438-0.119 0-1.094 0-2.188 0-3.288 0 0 5.025 0 10.044 0 15.069-1.219 0-2.431 0-3.65 0 0-5.019 0-10.044 0-15.069-1.094 0-2.188 0-3.281 0 0-0.119-0.069 0.1 0 0 0.656-0.931 0 0 1.825-2.869 0.144-0.231 0.194-0.475 0.438-0.594 0-0.237 0.294-0.244 0.294-0.481 0.244-0.119 0.113-0.381 0.356-0.5 0-0.237 0.375-0.331 0.375-0.575 0.244-0.119 0.113-0.425 0.356-0.55 0-0.238 0.375-0.288 0.375-0.531 0.119 0 0.975-1.55 1.094-1.55 0.119-0.362-5.231 7.856-5.113 7.5v0zM0.75 11.019c3.65 0 7.3 0 10.95 0 0 0.719 0 1.438 0 2.15-2.919 0-5.844 0-8.762 0 0 5.5 0 11 0 16.5 8.762 0 17.519 0 26.288 0 0-5.5 0-11.006 0-16.5-2.925 0-5.844 0-8.762 0 0-0.719 0-1.438 0-2.15 3.65 0 7.3 0 10.95 0 0 6.931 0 13.875 0 20.806-10.219 0-20.444 0-30.663 0 0-6.938 0-13.875 0-20.806v0z"></path>
</svg>
