<!-- Generated by IcoMoon.io -->
<svg version="1.1" xmlns="http://www.w3.org/2000/svg" width="32" height="32" viewBox="0 0 32 32">
<title>user-circle-o</title>
<path d="M16 0.125c8.769 0 15.875 7.106 15.875 15.875 0 8.719-7.069 15.875-15.875 15.875-8.787 0-15.875-7.137-15.875-15.875 0-8.769 7.106-15.875 15.875-15.875zM26.969 24.063c1.65-2.269 2.637-5.050 2.637-8.063 0-7.494-6.113-13.606-13.606-13.606s-13.606 6.113-13.606 13.606c0 3.012 0.994 5.794 2.638 8.063 0.638-3.169 2.181-5.794 5.419-5.794 1.438 1.4 3.381 2.269 5.544 2.269s4.113-0.869 5.544-2.269c3.25 0 4.794 2.619 5.431 5.794v0zM22.806 12.6c0-3.756-3.050-6.806-6.806-6.806s-6.806 3.050-6.806 6.806 3.050 6.8 6.806 6.8 6.806-3.044 6.806-6.8v0z"></path>
</svg>
