<!-- Generated by IcoMoon.io -->
<svg version="1.1" xmlns="http://www.w3.org/2000/svg" width="32" height="32" viewBox="0 0 32 32">
<title>video</title>
<path d="M31.837 10.444c0 0.125 0-0.125 0 0v0c0 0.125 0-0.125 0 0-0.256 0 0.263 0 0 0 0 0 0.131-0.256 0 0-0.381 0 0.388 0 0 0 0 0.125 0-0.125 0 0-0.387 0.125-7.7 2.931-8.087 3.056 0-1.15 0-2.294 0-3.438-1.538 0-3.081 0-4.619 0 0-2.037 0-4.075 0-6.112-4.106 0-8.213 0-12.325 0 0.006 1.181 0.112 1.962 0.388 2.675 2.95 0 5.906 0 8.856 0 0 1.144 0 2.294 0 3.438-5.262 0-10.525 0-15.787 0 0 3.694 0 7.387 0 11.081 0 2.056-0.019 4.606-0.019 6.031 5.131 0 10.675 0.081 15.813 0.081 2.481 0 5.787 0.050 7.662 0.006 0-1.019 0.044-2.425 0.044-3.444 1.356 0.294 7.088 2.163 8.088 2.675 0.256 0-0.256 0 0 0 0 0.125 0-0.125 0 0 0.513 0-0.512 0 0 0 0.125 0.256-0.131-0.256 0 0 0.256 0-0.256 0 0 0 0 0.125 0-0.125 0 0v0c-0.012-5.35-0.012-10.7-0.012-16.050 0 0-0.113 0.044 0 0v0zM21.056 24.581c-6.031 0-12.069 0-18.1 0 0-3.95 0-7.9 0-11.844 6.031 0 12.069 0 18.1 0 0 3.95 0 7.894 0 11.844zM29.144 23.056c-0.381-0.125-0.775-0.256-1.156-0.381 0-0.131 1.156 0.506 1.156 0.381-0.381 0-1.925-0.769-2.313-0.769-0.125-0.256 2.444 1.019 2.313 0.769-0.644-0.125-4.681-1.906-5.325-2.031-0.194-0.119 0.456 0.238 0 0-0.050-2.656-0.113-4.519-0.050-4.55 0.131 0 5.262-2.363 5.394-2.363 0 2.925-0.019 6.012-0.019 8.944v0zM6.806 18.087c3.469 0 6.931 0 10.4 0 0 0.894 0 1.788 0 2.675-3.469 0-6.931 0-10.4 0 0-0.894 0-1.781 0-2.675v0z"></path>
</svg>
