<!-- Generated by IcoMoon.io -->
<svg version="1.1" xmlns="http://www.w3.org/2000/svg" width="32" height="32" viewBox="0 0 32 32">
<title>visuals</title>
<path d="M16 4.888c-8.769 0-15.875 6.425-15.875 11.113s7.106 11.113 15.875 11.113c8.769 0 15.875-6.3 15.875-11.113s-7.106-11.113-15.875-11.113v0zM16 23.938c-4.381 0-12.7-3.069-12.7-7.938s8.319-7.938 12.7-7.938c4.381 0 12.7 3.194 12.7 7.938s-8.319 7.938-12.7 7.938zM16 9.65c-3.506 0-6.35 2.844-6.35 6.35s2.844 6.35 6.35 6.35c3.506 0 6.35-2.844 6.35-6.35s-2.844-6.35-6.35-6.35zM16 19.175c-1.75 0-3.175-1.425-3.175-3.175s1.425-3.175 3.175-3.175c1.75 0 3.175 1.425 3.175 3.175s-1.425 3.175-3.175 3.175v0z"></path>
</svg>
